<?xml version="1.0" encoding="UTF-8" standalone="no"?>
<!DOCTYPE svg PUBLIC "-//W3C//DTD SVG 1.1//EN" "http://www.w3.org/Graphics/SVG/1.1/DTD/svg11.dtd">
<svg width="100%" height="100%" viewBox="0 0 24 24" version="1.1" xmlns="http://www.w3.org/2000/svg" xmlns:xlink="http://www.w3.org/1999/xlink" xml:space="preserve" xmlns:serif="http://www.serif.com/" style="fill-rule:evenodd;clip-rule:evenodd;stroke-linejoin:round;stroke-miterlimit:2;">
    <g transform="matrix(0.024,0,0,0.024,0,0)">
        <path d="M894.4,195.8C866.1,165.6 837,136.2 806.8,107.9C742.8,48 647,47.1 583,106.8C537.3,149.5 494.1,194.8 449.8,238.9C449.5,239.2 449.4,239.6 449.2,240.1C449,240.8 449.3,241.6 449.9,241.8C450.3,242 450.6,242.1 450.9,242.1C452.5,242.2 454.2,242.2 455.8,242.2C495,241.7 531.9,250.2 566.2,269.3C571.7,272.4 574.3,270.1 577.7,266.6C603,241.2 628.2,215.7 653.7,190.6C677.8,166.8 710.7,166.9 734.6,190.7C759.6,215.5 784.5,240.4 809.2,265.3C832.6,288.9 833,321.9 809.5,345.5C732.7,423 655.5,500.1 578,577C571.4,583.6 562.1,588.8 553.2,591.5C531.1,598.3 512.5,590.5 496.6,574.5C476,553.7 455.3,533.1 435,512.8C428.6,506.4 418.3,506.4 411.9,512.8L357.9,566.9C351.5,573.3 351.5,583.6 357.8,590.1C379.8,612.6 401.9,635.6 424.8,657.8C488.3,719.4 590.1,719 652.5,658.2C677.9,633.4 703.1,608.4 728.1,583.2C784,527.1 840.7,471.9 895.2,414.5C951.7,354.8 950.8,256 894.4,195.8Z"/>
    </g>
    <g transform="matrix(0.024,0,0,0.024,0,0)">
        <path d="M548.2,757.9C547.3,757.8 546.5,757.8 545.6,757.8C505.8,758.5 468.1,750 433.3,730.6C427.6,727.4 425.1,730.2 421.8,733.5C396.7,758.6 371.7,783.9 346.5,808.8C321.5,833.5 289.1,833.3 264.2,808.5C240.9,785.3 217.7,762 194.4,738.7C165.4,709.7 165.3,679.1 194.3,650.1L416.8,427.6C419.1,425.3 421.4,423 423.8,420.8C441.4,404.9 465.8,401.3 486.3,412.6C493.3,416.4 499.5,422.1 505.2,427.8C525.4,447.6 545.3,467.7 565,487.4C571.4,493.8 581.7,493.8 588.1,487.4C606.4,469.1 624.6,451 643.4,432.3C649.8,425.9 649.7,415.7 643.3,409.3C617.5,383.6 592.2,357.1 564.5,333.4C504.1,281.5 410,283.8 351.8,338.2C310.4,377 271,417.7 230.9,457.8C188.8,500 145.9,541.4 105.2,585C47.7,646.5 48.5,743.4 106.1,805.1C134.1,835.1 163.2,864.1 193.1,892.2C256.4,951.7 352.6,952.9 416.1,893.7C462,850.8 505.5,805.3 550.1,761C550.4,760.7 550.5,760.2 550.6,759.6C550.6,758.8 549.6,758 548.2,757.9Z"/>
    </g>
</svg>
