<?xml version="1.0" encoding="iso-8859-1"?>
<!-- Generator: Adobe Illustrator 18.1.1, SVG Export Plug-In . SVG Version: 6.00 Build 0)  -->
<svg version="1.1" id="Capa_1" xmlns="http://www.w3.org/2000/svg" xmlns:xlink="http://www.w3.org/1999/xlink" x="0px" y="0px"
	 viewBox="0 0 572.835 572.835" style="enable-background:new 0 0 572.835 572.835;" xml:space="preserve">
<g>
	<g>
		<path style="fill:#010002;" d="M427.79,417.996c12.24-17.544,18.36-37.536,18.36-59.979c0-18.357-3.471-34.065-10.404-47.121
			c-6.938-12.648-17.136-23.463-30.603-32.438c-6.525-4.08-13.563-7.854-21.111-11.322s-15.813-6.63-24.786-9.486
			c-8.979-3.264-18.462-6.12-28.458-8.568s-20.502-4.896-31.521-7.344c-16.318-3.672-28.764-6.732-37.332-9.18
			c-3.672-0.816-7.242-1.938-10.71-3.366s-7.038-2.958-10.71-4.59c-6.936-3.672-12.24-7.752-15.912-12.24
			c-3.672-4.896-5.508-10.2-5.508-15.912c0-9.792,5.508-18.36,16.524-25.704c11.424-7.752,27.132-11.628,47.124-11.628
			c20.397,0,35.292,3.468,44.676,10.404c8.977,7.344,17.136,17.34,24.48,29.988c5.712,9.792,11.016,16.932,15.91,21.42
			c5.306,4.896,13.058,7.344,23.258,7.344c10.605,0,19.788-3.876,27.54-11.628c7.344-7.752,11.016-16.524,11.016-26.316
			s-2.856-19.992-8.568-30.6s-14.481-20.4-26.313-29.376s-26.521-16.32-44.064-22.032c-18.357-5.712-39.372-8.568-63.036-8.568
			c-30.6,0-56.916,4.284-78.948,12.852c-22.848,8.16-40.392,20.196-52.632,36.108c-11.832,16.32-17.748,34.476-17.748,54.468
			c0,22.032,5.712,39.984,17.136,53.856c11.832,14.688,27.336,26.112,46.512,34.271c18.36,7.753,41.82,14.688,70.38,20.81
			c10.608,2.04,19.992,4.08,28.152,6.12s15.3,4.08,21.42,6.12c11.424,3.672,21.012,8.976,28.764,15.911
			c6.938,6.937,10.404,15.505,10.404,25.702c0,13.466-6.732,24.687-20.196,33.66c-13.872,9.384-32.025,14.076-54.468,14.076
			c-16.728,0-29.58-2.448-38.556-7.344c-9.792-4.488-17.34-10.2-22.644-17.137c-6.12-8.159-11.424-17.342-15.912-27.54
			c-4.488-10.607-9.588-18.359-15.3-23.258c-6.528-5.304-14.484-7.955-23.868-7.955c-11.016,0-20.4,3.47-28.152,10.403
			c-7.752,6.938-11.628,15.3-11.628,25.092c0,15.912,5.916,32.232,17.748,48.96c10.608,16.32,25.296,29.377,44.064,39.17
			c24.888,13.464,57.12,20.194,96.696,20.194c32.64,0,60.588-4.896,83.844-14.688C396.374,449.82,414.734,435.948,427.79,417.996z
			 M552.638,347.004c10.608,22.032,15.912,45.288,15.912,69.771c0,21.624-4.08,41.922-12.24,60.894
			c-8.157,18.972-19.275,35.496-33.354,49.572s-30.603,25.191-49.572,33.354s-39.27,12.24-60.894,12.24
			c-13.464,0-26.418-1.632-38.862-4.896c-12.444-3.266-23.97-7.753-34.578-13.466c-8.16,1.227-16.422,2.244-24.786,3.063
			c-8.361,0.813-16.626,1.224-24.786,1.224c-37.125,0-72.012-7.038-104.649-21.114c-32.64-14.073-61.2-33.354-85.68-57.834
			c-24.48-24.479-43.758-53.039-57.834-85.68c-14.077-32.641-21.116-67.527-21.116-104.655c0-18.357,1.836-36.516,5.508-54.468
			C11.426,212.16,4.286,185.844,4.286,156.06c0-21.624,4.08-41.922,12.24-60.894S35.804,59.67,49.88,45.594S80.48,20.4,99.452,12.24
			S138.722,0,160.346,0c15.504,0,30.192,2.142,44.064,6.426c13.872,4.284,26.928,10.098,39.168,17.442
			c14.688-2.448,29.988-3.672,45.897-3.672c37.129,0,72.015,7.038,104.652,21.114s61.2,33.354,85.68,57.834
			s43.761,53.04,57.834,85.68c14.076,32.64,21.114,67.524,21.114,104.649c0,9.792-0.51,19.482-1.53,29.07
			C556.208,328.134,554.678,337.62,552.638,347.004z"/>
	</g>
</g>
<g>
</g>
<g>
</g>
<g>
</g>
<g>
</g>
<g>
</g>
<g>
</g>
<g>
</g>
<g>
</g>
<g>
</g>
<g>
</g>
<g>
</g>
<g>
</g>
<g>
</g>
<g>
</g>
<g>
</g>
</svg>
