<?xml version="1.0" encoding="iso-8859-1"?>
<!-- Generator: Adobe Illustrator 18.1.1, SVG Export Plug-In . SVG Version: 6.00 Build 0)  -->
<svg version="1.1" id="Capa_1" xmlns="http://www.w3.org/2000/svg" xmlns:xlink="http://www.w3.org/1999/xlink" x="0px" y="0px"
	 viewBox="0 0 612 612" style="enable-background:new 0 0 612 612;" xml:space="preserve">
<g>
	<g>
		<path style="fill:#010002;" d="M587.826,186.966c-16.116-37.332-37.944-69.768-65.484-97.308s-59.976-49.368-97.308-65.484
			S348.024,0,306,0c-28.152,0-55.284,3.672-81.396,11.016s-50.49,17.646-73.134,30.906s-43.248,29.172-61.812,47.736
			s-34.476,39.168-47.736,61.812c-13.26,22.646-23.562,47.022-30.906,73.134C3.672,250.716,0,277.848,0,306
			s3.672,55.284,11.016,81.396c7.344,26.11,17.646,50.487,30.906,73.134c13.26,22.644,29.172,43.249,47.736,61.812
			c18.564,18.564,39.168,34.478,61.812,47.736c22.644,13.26,47.022,23.561,73.134,30.906C250.716,608.328,277.848,612,306,612
			s55.284-3.672,81.396-11.016c26.111-7.346,50.488-17.646,73.135-30.906c22.644-13.259,43.249-29.172,61.812-47.736
			c18.564-18.563,34.478-39.168,47.736-61.812c13.26-22.646,23.561-47.023,30.906-73.135C608.328,361.284,612,334.152,612,306
			C612,263.976,603.942,224.298,587.826,186.966z M332.316,474.3h-162.18c-2.856,0-5.202-1.02-7.038-3.06s-2.754-4.284-2.754-6.732
			V214.812V195.84v-1.224c0-0.408,0.408-1.02,1.224-1.836l72.828-71.604v-1.836h2.448h1.224h18.36h0.612h143.82
			c2.854,0,5.202,1.02,7.038,3.06s2.754,4.284,2.754,6.732v108.324h-31.824v-86.292H260.1v63.648c0,2.448-1.224,3.672-3.672,3.672
			h-64.26v223.992h140.148L332.316,474.3L332.316,474.3z M497.556,396.576c0,3.264-1.836,4.896-5.508,4.896h-67.32v67.32
			c0,3.672-1.632,5.508-4.896,5.508h-47.124c-3.263,0-4.896-1.836-4.896-5.508v-67.32H299.88c-3.264,0-4.896-1.632-4.896-4.896
			v-47.124c0-3.265,1.632-4.896,4.896-4.896h67.933v-67.32c0-3.672,1.633-5.508,4.896-5.508h47.124c3.264,0,4.896,1.836,4.896,5.508
			v67.32h67.32c3.672,0,5.508,1.632,5.508,4.896L497.556,396.576L497.556,396.576z"/>
	</g>
</g>
<g>
</g>
<g>
</g>
<g>
</g>
<g>
</g>
<g>
</g>
<g>
</g>
<g>
</g>
<g>
</g>
<g>
</g>
<g>
</g>
<g>
</g>
<g>
</g>
<g>
</g>
<g>
</g>
<g>
</g>
</svg>
