<?xml version="1.0" encoding="iso-8859-1"?>
<!-- Generator: Adobe Illustrator 18.1.1, SVG Export Plug-In . SVG Version: 6.00 Build 0)  -->
<svg version="1.1" id="Capa_1" xmlns="http://www.w3.org/2000/svg" xmlns:xlink="http://www.w3.org/1999/xlink" x="0px" y="0px"
	 viewBox="0 0 574.056 574.056" style="enable-background:new 0 0 574.056 574.056;" xml:space="preserve">
<g>
	<g>
		<path style="fill:#010002;" d="M559.367,205.632c4.08,0,7.549,1.428,10.404,4.284c2.854,2.856,4.285,6.324,4.285,10.404v133.417
			c0,4.08-1.432,7.547-4.285,10.404c-2.855,2.854-6.324,4.283-10.404,4.283H368.424v190.943c0,4.08-1.43,7.549-4.283,10.404
			c-2.857,2.854-6.324,4.285-10.404,4.285H220.32c-4.08,0-7.548-1.432-10.404-4.285c-2.856-2.855-4.284-6.324-4.284-10.404V368.424
			H14.688c-4.08,0-7.548-1.43-10.404-4.283C1.428,361.285,0,357.816,0,353.736V220.321c0-4.08,1.428-7.548,4.284-10.404
			s6.324-4.284,10.404-4.284h190.944V14.688c0-4.08,1.428-7.548,4.284-10.404S216.24,0,220.32,0h133.417
			c4.08,0,7.547,1.428,10.404,4.284c2.854,2.856,4.283,6.324,4.283,10.404v190.944H559.367L559.367,205.632z"/>
	</g>
</g>
<g>
</g>
<g>
</g>
<g>
</g>
<g>
</g>
<g>
</g>
<g>
</g>
<g>
</g>
<g>
</g>
<g>
</g>
<g>
</g>
<g>
</g>
<g>
</g>
<g>
</g>
<g>
</g>
<g>
</g>
</svg>
