<?xml version="1.0" encoding="iso-8859-1"?>
<!-- Generator: Adobe Illustrator 18.1.1, SVG Export Plug-In . SVG Version: 6.00 Build 0)  -->
<svg version="1.1" id="Capa_1" xmlns="http://www.w3.org/2000/svg" xmlns:xlink="http://www.w3.org/1999/xlink" x="0px" y="0px"
	 viewBox="0 0 594.253 594.253" style="enable-background:new 0 0 594.253 594.253;" xml:space="preserve">
<g>
	<g>
		<path style="fill:#010002;" d="M408.203,342.412c0-7.752-3.467-13.463-10.4-17.135l-96.084-45.901
			c11.016-6.936,19.988-17.034,26.928-30.294c6.936-13.26,10.402-27.846,10.402-43.758c0-11.424-1.838-22.236-5.51-32.436
			s-8.77-19.074-15.299-26.622c-6.529-7.548-14.178-13.566-22.95-18.054s-18.054-6.732-27.846-6.732s-19.074,2.244-27.846,6.732
			c-8.772,4.488-16.422,10.506-22.95,18.054s-11.73,16.422-15.606,26.622c-3.876,10.2-5.814,21.012-5.814,32.436
			c0,16.32,3.57,31.11,10.71,44.37s16.626,23.358,28.458,30.294l-97.308,45.289c-3.264,1.223-5.814,3.467-7.65,6.729
			c-1.836,3.268-2.754,6.732-2.754,10.404v77.115c0,5.303,1.53,9.791,4.59,13.463s6.834,5.508,11.322,5.508H391.68
			c4.486,0,8.361-1.836,11.629-5.508c3.264-3.672,4.895-8.16,4.895-13.463L408.203,342.412L408.203,342.412z M535.5,131.885v50.796
			h41.004c4.896,0,9.078,1.734,12.549,5.202c3.467,3.468,5.199,7.65,5.199,12.546v53.244c0,4.896-1.732,9.078-5.199,12.546
			c-3.471,3.468-7.65,5.202-12.549,5.202H535.5v50.796h41.004c4.896,0,9.078,1.734,12.549,5.201
			c3.467,3.469,5.199,7.65,5.199,12.547v53.244c0,4.895-1.732,9.078-5.199,12.545c-3.471,3.469-7.65,5.203-12.549,5.203H535.5
			v50.795h41.004c4.896,0,9.078,1.734,12.549,5.203c3.467,3.467,5.199,7.65,5.199,12.545v53.244c0,4.896-1.732,9.078-5.199,12.547
			c-3.471,3.467-7.65,5.201-12.549,5.201H535.5v14.688c0,8.16-2.754,14.994-8.262,20.502c-5.508,5.512-12.342,8.266-20.502,8.266
			H28.764c-8.16,0-14.994-2.754-20.502-8.266C2.754,580.174,0,573.34,0,565.18V29.069c0-8.16,2.754-14.994,8.262-20.502
			c5.508-5.508,12.342-8.262,20.502-8.262h477.973c8.16,0,14.994,2.754,20.502,8.262s8.262,12.342,8.262,20.502v14.076h41.004
			c4.896,0,9.078,1.734,12.549,5.202c3.467,3.468,5.199,7.65,5.199,12.546v53.244c0,4.896-1.732,9.078-5.199,12.546
			c-3.471,3.468-7.65,5.202-12.549,5.202L535.5,131.885L535.5,131.885z"/>
	</g>
</g>
<g>
</g>
<g>
</g>
<g>
</g>
<g>
</g>
<g>
</g>
<g>
</g>
<g>
</g>
<g>
</g>
<g>
</g>
<g>
</g>
<g>
</g>
<g>
</g>
<g>
</g>
<g>
</g>
<g>
</g>
</svg>
