<?xml version="1.0" encoding="iso-8859-1"?>
<!-- Generator: Adobe Illustrator 18.1.1, SVG Export Plug-In . SVG Version: 6.00 Build 0)  -->
<svg version="1.1" id="Capa_1" xmlns="http://www.w3.org/2000/svg" xmlns:xlink="http://www.w3.org/1999/xlink" x="0px" y="0px"
	 viewBox="0 0 575.28 575.28" style="enable-background:new 0 0 575.28 575.28;" xml:space="preserve">
<g>
	<g>
		<path style="fill:#010002;" d="M290.088,230.112c-15.912,0-30.906-2.958-44.982-8.874c-14.076-5.916-26.316-14.076-36.72-24.48
			c-10.404-10.404-18.564-22.644-24.48-36.72c-5.916-14.076-8.874-29.07-8.874-44.982s2.958-30.804,8.874-44.676
			c5.916-13.872,14.076-26.01,24.48-36.414S231.03,15.3,245.106,9.18C259.182,3.06,274.176,0,290.088,0s30.804,3.06,44.676,9.18
			s26.01,14.382,36.414,24.786s18.666,22.542,24.786,36.414s9.18,28.764,9.18,44.676s-3.06,30.906-9.18,44.982
			s-14.382,26.316-24.786,36.72s-22.542,18.564-36.414,24.48S306,230.112,290.088,230.112z M383.112,253.98
			c21.216,0,39.678,4.182,55.386,12.546c15.708,8.364,28.56,19.278,38.556,32.742s17.442,28.864,22.338,46.206
			c4.896,17.34,7.345,34.983,7.345,52.938v167.076c0,6.528-3.265,9.792-9.791,9.792h-60.59c-6.525,0-9.792-3.264-9.792-9.792
			V419.832c0-2.854-1.122-5.916-3.363-9.18c-2.244-3.264-5.814-4.896-10.71-4.896s-8.469,1.635-10.71,4.896
			c-2.244,3.264-3.366,6.324-3.366,9.18v145.656c0,2.856-1.021,5.202-3.063,7.038s-4.485,2.754-7.344,2.754H185.436
			c-6.528,0-9.792-3.264-9.792-9.792V419.832c0-2.854-0.918-5.916-2.754-9.18s-5.61-4.896-11.322-4.896s-9.486,1.635-11.322,4.896
			c-1.836,3.264-2.754,6.324-2.754,9.18v145.656c0,2.856-1.02,5.202-3.06,7.038c-2.04,1.836-4.488,2.754-7.344,2.754h-58.14
			c-6.936,0-10.404-3.264-10.404-9.792V398.412c0-17.952,2.448-35.598,7.344-52.938c4.896-17.343,12.444-32.742,22.644-46.206
			s23.052-24.378,38.556-32.742s34.068-12.546,55.692-12.546h97.308H383.112L383.112,253.98z"/>
	</g>
</g>
<g>
</g>
<g>
</g>
<g>
</g>
<g>
</g>
<g>
</g>
<g>
</g>
<g>
</g>
<g>
</g>
<g>
</g>
<g>
</g>
<g>
</g>
<g>
</g>
<g>
</g>
<g>
</g>
<g>
</g>
</svg>
