<?xml version="1.0" encoding="iso-8859-1"?>
<!-- Generator: Adobe Illustrator 18.1.1, SVG Export Plug-In . SVG Version: 6.00 Build 0)  -->
<svg version="1.1" id="Capa_1" xmlns="http://www.w3.org/2000/svg" xmlns:xlink="http://www.w3.org/1999/xlink" x="0px" y="0px"
	 viewBox="0 0 612 612" style="enable-background:new 0 0 612 612;" xml:space="preserve">
<g>
	<g>
		<path style="fill:#010002;" d="M587.826,186.966c-16.116-37.332-37.944-69.768-65.484-97.308s-59.976-49.368-97.308-65.484
			S348.024,0,306,0c-28.152,0-55.284,3.672-81.396,11.016s-50.49,17.646-73.134,30.906s-43.248,29.172-61.812,47.736
			s-34.476,39.168-47.736,61.812c-13.26,22.646-23.562,47.022-30.906,73.134C3.672,250.716,0,277.848,0,306
			s3.672,55.284,11.016,81.396c7.344,26.11,17.646,50.487,30.906,73.134c13.26,22.644,29.172,43.249,47.736,61.812
			c18.564,18.564,39.168,34.478,61.812,47.736c22.644,13.26,47.022,23.561,73.134,30.906C250.716,608.328,277.848,612,306,612
			s55.284-3.672,81.396-11.016c26.111-7.346,50.488-17.646,73.135-30.906c22.644-13.259,43.249-29.172,61.812-47.736
			c18.564-18.563,34.478-39.168,47.736-61.812c13.26-22.646,23.561-47.023,30.906-73.135C608.328,361.284,612,334.152,612,306
			C612,263.976,603.942,224.298,587.826,186.966z M183.6,227.664v-14.688c0-0.816,0.408-1.632,1.224-2.448l56.304-55.692
			c0.408,0,0.714-0.102,0.918-0.306s0.714-0.306,1.53-0.306h14.076c2.04,0,3.06,1.02,3.06,3.06v70.38c0,2.04-1.02,3.06-3.06,3.06
			H186.66C184.62,230.724,183.6,229.704,183.6,227.664z M402.696,454.104c0,5.715-2.856,8.568-8.568,8.568H194.004
			c-5.712,0-8.568-2.854-8.568-8.568V263.772c0-2.04,0.816-3.978,2.448-5.814s3.672-2.754,6.12-2.754h80.784
			c3.264,0,5.916-1.122,7.956-3.366s3.06-4.998,3.06-8.262v-80.172c0-2.04,0.918-3.979,2.754-5.814s3.774-2.754,5.814-2.754h99.756
			c2.448,0,4.488,0.92,6.12,2.755s2.448,3.774,2.448,5.814L402.696,454.104L402.696,454.104z"/>
	</g>
</g>
<g>
</g>
<g>
</g>
<g>
</g>
<g>
</g>
<g>
</g>
<g>
</g>
<g>
</g>
<g>
</g>
<g>
</g>
<g>
</g>
<g>
</g>
<g>
</g>
<g>
</g>
<g>
</g>
<g>
</g>
</svg>
