<?xml version="1.0" encoding="iso-8859-1"?>
<!-- Generator: Adobe Illustrator 18.1.1, SVG Export Plug-In . SVG Version: 6.00 Build 0)  -->
<svg version="1.1" id="Capa_1" xmlns="http://www.w3.org/2000/svg" xmlns:xlink="http://www.w3.org/1999/xlink" x="0px" y="0px"
	 viewBox="0 0 534.885 534.885" style="enable-background:new 0 0 534.885 534.885;" xml:space="preserve">
<g>
	<g>
		<path style="fill:#010002;" d="M457.162,16.524V520.2c0,4.08-1.428,7.548-4.283,10.404c-2.855,2.854-6.324,4.281-10.404,4.281
			H95.471c-4.488,0-8.16-1.428-11.016-4.281c-2.856-2.856-4.284-6.324-4.284-10.404V190.332c0-4.08,1.428-7.548,4.284-10.404
			s6.528-4.284,11.016-4.284h139.536c5.712,0,10.506-1.938,14.382-5.814c3.876-3.876,5.814-8.67,5.814-14.382V16.524
			c0-4.488,1.428-8.058,4.284-10.71s6.324-3.978,10.404-3.978h172.584c4.08,0,7.547,1.326,10.404,3.978
			C455.735,8.466,457.162,12.036,457.162,16.524z M205.631,132.192c3.264,0,4.896-1.632,4.896-4.896V5.508
			c0-3.672-1.632-5.508-4.896-5.508h-24.48c-1.224,0-2.448,0.612-3.672,1.836L79.559,97.92c-1.224,1.224-1.836,2.448-1.836,3.672
			v25.704c0,3.264,1.632,4.896,4.896,4.896H205.631L205.631,132.192z"/>
	</g>
</g>
<g>
</g>
<g>
</g>
<g>
</g>
<g>
</g>
<g>
</g>
<g>
</g>
<g>
</g>
<g>
</g>
<g>
</g>
<g>
</g>
<g>
</g>
<g>
</g>
<g>
</g>
<g>
</g>
<g>
</g>
</svg>
