<?xml version="1.0" encoding="iso-8859-1"?>
<!-- Generator: Adobe Illustrator 18.1.1, SVG Export Plug-In . SVG Version: 6.00 Build 0)  -->
<svg version="1.1" id="Capa_1" xmlns="http://www.w3.org/2000/svg" xmlns:xlink="http://www.w3.org/1999/xlink" x="0px" y="0px"
	 viewBox="0 0 573.62 573.62" style="enable-background:new 0 0 573.62 573.62;" xml:space="preserve">
<g>
	<g>
		<path style="fill:#010002;" d="M553.249,559.543c1.224,1.224,1.632,2.754,1.224,4.59c-0.405,1.836-1.428,3.162-3.06,3.979
			c-2.856,2.445-5.916,2.04-9.18-1.227L317.629,271.291l-60.588-11.628c-5.712-1.632-9.996-4.284-12.852-7.956l-25.704-32.436v27.54
			v65.484l66.096,75.276c1.632,1.224,2.754,2.754,3.367,4.59c0.609,1.836,1.122,3.771,1.527,5.812l31.215,142.599
			c1.632,7.344,0.201,14.178-4.284,20.502c-4.488,6.324-10.608,10.302-18.36,11.934c-1.632,0.408-3.672,0.612-6.12,0.612
			c-6.936,0-13.056-2.04-18.358-6.12c-5.307-4.08-8.772-9.384-10.404-15.912L233.788,414.5l-53.856-60.588l-23.868,84.456
			c-0.816,2.04-1.53,3.876-2.142,5.508s-1.53,3.264-2.754,4.896L71.604,550.975c-6.12,7.347-13.872,11.019-23.256,11.019
			c-6.528,0-12.444-1.836-17.748-5.508c-6.528-4.488-10.302-10.509-11.322-18.057s0.714-14.382,5.202-20.502l76.5-97.308
			l29.376-105.876c0-0.408,0.102-0.714,0.306-0.918s0.306-0.511,0.306-0.918l-0.612-88.74l-15.912,21.42l-6.12,63.036
			c-0.816,5.304-3.264,9.792-7.344,13.464s-8.976,5.508-14.688,5.508c-0.816,0-1.428-0.204-1.836-0.609
			c-6.12-0.408-11.22-2.856-15.3-7.347c-4.08-4.485-5.712-9.588-4.896-15.3l7.344-67.932c0-3.672,1.224-7.14,3.672-10.404
			l61.2-82.62c4.488-7.344,11.016-12.954,19.584-16.83s17.544-4.998,26.928-3.366c6.12,1.224,11.424,3.468,15.912,6.732
			c4.08,2.04,6.936,4.08,8.568,6.12l66.708,83.844l64.873,12.852c6.12,1.224,10.813,4.182,14.076,8.874s4.488,9.894,3.672,15.606
			c-1.632,6.936-5.916,11.832-12.852,14.688L553.249,559.543L553.249,559.543z M172.584,112.171
			c-7.752-1.632-14.688-4.59-20.808-8.874s-11.322-9.384-15.606-15.3s-7.242-12.546-8.874-19.89c-1.632-7.344-1.632-14.892,0-22.644
			s4.59-14.688,8.874-20.808s9.486-11.118,15.606-14.994c6.12-3.876,12.852-6.63,20.196-8.262
			c7.344-1.632,14.892-1.836,22.644-0.612c7.752,1.632,14.79,4.59,21.114,8.874s11.526,9.384,15.606,15.3s6.936,12.546,8.568,19.89
			s1.632,14.892,0,22.644s-4.59,14.688-8.874,20.808s-9.486,11.22-15.606,15.3c-6.12,4.08-12.852,6.936-20.196,8.568
			S180.336,113.803,172.584,112.171z"/>
	</g>
</g>
<g>
</g>
<g>
</g>
<g>
</g>
<g>
</g>
<g>
</g>
<g>
</g>
<g>
</g>
<g>
</g>
<g>
</g>
<g>
</g>
<g>
</g>
<g>
</g>
<g>
</g>
<g>
</g>
<g>
</g>
</svg>
