<?xml version="1.0" encoding="iso-8859-1"?>
<!-- Generator: Adobe Illustrator 18.1.1, SVG Export Plug-In . SVG Version: 6.00 Build 0)  -->
<svg version="1.1" id="Capa_1" xmlns="http://www.w3.org/2000/svg" xmlns:xlink="http://www.w3.org/1999/xlink" x="0px" y="0px"
	 viewBox="0 0 545.296 545.296" style="enable-background:new 0 0 545.296 545.296;" xml:space="preserve">
<g>
	<g>
		<path style="fill:#010002;" d="M161.876,276.012c-2.448-2.447-3.672-5.303-3.672-8.568V164.016c0-3.264,1.224-6.12,3.672-8.568
			s5.304-3.672,8.568-3.672h103.428c5.712,0,9.588,2.448,11.628,7.344c2.04,4.488,1.227,8.976-2.448,13.464L179.624,276.012
			c-3.264,2.449-6.12,3.672-8.568,3.672h-0.612C167.18,279.684,164.324,278.461,161.876,276.012z M131.276,276.012
			c2.448-2.447,3.672-5.302,3.672-8.568V164.016c0-3.264-1.224-6.12-3.672-8.568s-5.304-3.672-8.568-3.672H19.28
			c-3.264,0-6.12,1.224-8.568,3.672s-3.672,5.304-3.672,8.568v103.428c0,3.266,1.224,6.121,3.672,8.568
			c2.448,2.449,5.304,3.672,8.568,3.672h103.428C125.972,279.684,128.828,278.461,131.276,276.012z M19.28,127.908h103.428
			c3.264,0,6.12-1.224,8.568-3.672s3.672-5.304,3.672-8.568V12.24c0-3.264-1.224-6.12-3.672-8.568
			C128.828,1.224,125.972,0,122.708,0H19.28c-3.264,0-6.12,1.224-8.568,3.672C8.264,6.12,7.04,8.976,7.04,12.24v103.428
			c0,3.264,1.224,6.12,3.672,8.568C13.16,126.684,16.016,127.908,19.28,127.908z M170.444,127.908h103.428
			c3.263,0,6.12-1.224,8.568-3.672c2.445-2.448,3.672-5.304,3.672-8.568V12.24c0-3.264-1.227-6.12-3.672-8.568
			C279.992,1.224,277.134,0,273.872,0H170.444c-3.264,0-6.12,1.224-8.568,3.672c-2.448,2.448-3.672,5.304-3.672,8.568v103.428
			c0,3.264,1.224,6.12,3.672,8.568C164.324,126.684,167.18,127.908,170.444,127.908z M535.502,275.094
			c-1.836-1.836-3.978-2.753-6.426-2.753v0.001H356.492c-2.04,0-4.284,0.813-6.732,2.448l-58.14,56.916
			c-1.223,1.225-2.039,2.754-2.448,4.59s-0.204,3.568,0.612,5.203c1.223,4.078,4.08,6.117,8.568,6.117h230.724
			c2.448,0,4.59-0.918,6.426-2.754s2.754-3.979,2.754-6.426V281.52C538.256,279.072,537.338,276.93,535.502,275.094z
			 M529.076,468.18h-247.86c-2.854,0-5.099,0.918-6.729,2.754s-2.448,3.98-2.448,6.426v58.752c0,2.449,0.817,4.594,2.448,6.43
			s3.876,2.754,6.729,2.754h247.86c2.448,0,4.59-0.918,6.426-2.754s2.754-3.98,2.754-6.43V477.36c0-2.445-0.918-4.59-2.754-6.426
			S531.524,468.18,529.076,468.18z M281.215,445.537h247.86c2.448,0,4.59-0.92,6.426-2.756s2.754-3.979,2.754-6.426v-56.916
			c0-2.449-0.813-4.59-2.445-6.426c-1.634-1.836-3.266-2.754-4.896-2.754H282.44c-3.266,0-5.814,0.918-7.65,2.754
			s-2.754,3.977-2.754,6.426v56.916c0,2.447,0.817,4.59,2.448,6.426S278.36,445.537,281.215,445.537z M529.075,42.84
			c0-7.752-2.856-14.484-8.568-20.196c-5.304-5.304-11.832-7.956-19.584-7.956c-7.343,0-14.075,2.652-20.193,7.956L35.192,468.18
			c-5.304,4.896-7.956,11.424-7.956,19.584c0,7.752,2.652,14.281,7.956,19.584c5.304,5.305,11.832,8.059,19.584,8.262
			c7.752,0.205,14.484-2.549,20.196-8.262L520.507,62.425C526.219,56.712,529.075,50.184,529.075,42.84z"/>
	</g>
</g>
<g>
</g>
<g>
</g>
<g>
</g>
<g>
</g>
<g>
</g>
<g>
</g>
<g>
</g>
<g>
</g>
<g>
</g>
<g>
</g>
<g>
</g>
<g>
</g>
<g>
</g>
<g>
</g>
<g>
</g>
</svg>
