<?xml version="1.0" encoding="iso-8859-1"?>
<!-- Generator: Adobe Illustrator 18.1.1, SVG Export Plug-In . SVG Version: 6.00 Build 0)  -->
<svg version="1.1" id="Capa_1" xmlns="http://www.w3.org/2000/svg" xmlns:xlink="http://www.w3.org/1999/xlink" x="0px" y="0px"
	 viewBox="0 0 577.732 577.732" style="enable-background:new 0 0 577.732 577.732;" xml:space="preserve">
<g>
	<g>
		<path style="fill:#010002;" d="M441.254,192.169c0,4.08-1.633,7.752-4.896,11.016L299.88,339.661
			c-2.445,2.856-5.916,4.284-10.401,4.284h-0.614c-4.488,0-8.16-1.428-11.016-4.284l-93.024-93.024
			c-2.856-2.856-4.284-6.528-4.284-11.016c0-4.488,1.428-8.16,4.284-11.016l29.988-29.988c2.856-2.856,6.426-4.284,10.71-4.284
			c4.284,0,7.854,1.428,10.71,4.284l52.632,53.244l96.083-96.084c2.857-2.856,6.426-4.386,10.711-4.59
			c4.283-0.204,7.854,1.326,10.709,4.59l29.988,29.988C439.62,184.621,441.254,188.089,441.254,192.169z M577.73,288.866
			c0,39.984-7.549,77.418-22.646,112.302c-15.096,34.885-35.803,65.484-62.119,91.801c-26.313,26.315-57.018,47.021-92.104,62.117
			c-35.088,15.099-72.42,22.646-111.996,22.646c-39.984,0-77.418-7.548-112.302-22.646c-34.884-15.096-65.484-35.802-91.8-62.117
			c-26.316-26.314-47.022-56.916-62.118-91.801S0.001,328.85,0.001,288.865c0-39.576,7.548-76.908,22.644-111.996
			s35.802-65.79,62.118-92.106s56.916-47.022,91.8-62.118S248.882,0,288.866,0c39.576,0,76.908,7.548,111.996,22.646
			c35.088,15.096,65.791,35.802,92.104,62.118c26.316,26.316,47.023,57.018,62.119,92.106
			C570.182,211.958,577.73,249.29,577.73,288.866z M501.23,288.865c0-29.376-5.611-56.916-16.83-82.62
			c-11.221-25.704-26.418-48.144-45.594-67.32c-19.18-19.176-41.617-34.374-67.32-45.594c-25.705-11.22-53.244-16.83-82.621-16.83
			c-29.376,0-56.916,5.61-82.62,16.83s-48.144,26.418-67.32,45.594s-34.374,41.616-45.594,67.32s-16.83,53.244-16.83,82.62
			s5.61,56.916,16.83,82.62c11.22,25.704,26.418,48.144,45.594,67.32s41.616,34.374,67.32,45.594s53.244,16.83,82.62,16.83
			s56.916-5.61,82.621-16.83c25.703-11.22,48.143-26.418,67.32-45.594c19.176-19.179,34.373-41.616,45.594-67.32
			C495.618,345.781,501.23,318.241,501.23,288.865z"/>
	</g>
</g>
<g>
</g>
<g>
</g>
<g>
</g>
<g>
</g>
<g>
</g>
<g>
</g>
<g>
</g>
<g>
</g>
<g>
</g>
<g>
</g>
<g>
</g>
<g>
</g>
<g>
</g>
<g>
</g>
<g>
</g>
</svg>
