<?xml version="1.0" encoding="iso-8859-1"?>
<!-- Generator: Adobe Illustrator 18.1.1, SVG Export Plug-In . SVG Version: 6.00 Build 0)  -->
<svg version="1.1" id="Capa_1" xmlns="http://www.w3.org/2000/svg" xmlns:xlink="http://www.w3.org/1999/xlink" x="0px" y="0px"
	 viewBox="0 0 555.085 555.085" style="enable-background:new 0 0 555.085 555.085;" xml:space="preserve">
<g>
	<g>
		<path style="fill:#010002;" d="M202.878,235.62h142.596v-62.424v-0.612c0-9.792-1.938-18.972-5.812-27.54
			s-9.078-16.014-15.606-22.338c-6.525-6.324-14.074-11.322-22.644-14.994s-17.748-5.508-27.54-5.508s-18.972,1.836-27.54,5.508
			s-16.116,8.772-22.644,15.3s-11.628,14.076-15.3,22.644s-5.508,17.748-5.508,27.54L202.878,235.62L202.878,235.62z
			 M511.939,235.62c5.304,0,9.791,1.836,13.464,5.508c3.672,3.672,5.508,8.16,5.508,13.464v281.521
			c0,5.304-1.836,9.792-5.508,13.464c-3.673,3.672-8.16,5.508-13.464,5.508H43.146c-5.304,0-9.792-1.836-13.464-5.508
			s-5.508-8.16-5.508-13.464V254.591c0-5.304,1.836-9.792,5.508-13.464s8.16-5.508,13.464-5.508h26.928h31.212v-62.423
			c0-23.664,4.59-46.104,13.77-67.32s21.522-39.576,37.026-55.08s33.762-27.846,54.774-37.026S250.206,0,273.87,0
			s46.104,4.59,67.32,13.77s39.573,21.522,55.077,37.026c15.507,15.504,27.849,33.864,37.026,55.08s13.771,43.656,13.771,67.32
			v0.612v61.812h37.941L511.939,235.62L511.939,235.62z"/>
	</g>
</g>
<g>
</g>
<g>
</g>
<g>
</g>
<g>
</g>
<g>
</g>
<g>
</g>
<g>
</g>
<g>
</g>
<g>
</g>
<g>
</g>
<g>
</g>
<g>
</g>
<g>
</g>
<g>
</g>
<g>
</g>
</svg>
