<?xml version="1.0" encoding="iso-8859-1"?>
<!-- Generator: Adobe Illustrator 18.1.1, SVG Export Plug-In . SVG Version: 6.00 Build 0)  -->
<svg version="1.1" id="Capa_1" xmlns="http://www.w3.org/2000/svg" xmlns:xlink="http://www.w3.org/1999/xlink" x="0px" y="0px"
	 viewBox="0 0 596.699 596.699" style="enable-background:new 0 0 596.699 596.699;" xml:space="preserve">
<g>
	<g>
		<path style="fill:#010002;" d="M557.531,112.302c10.609,0,19.789,3.876,27.541,11.628s11.627,16.932,11.627,27.54v347.003
			c0,11.016-3.875,20.4-11.627,28.152s-16.932,11.629-27.541,11.629H39.78c-11.016,0-20.4-3.877-28.152-11.629
			C3.876,518.873,0,509.487,0,498.473V151.47c0-10.608,3.876-19.788,11.628-27.54s17.136-11.628,28.152-11.628h42.228l36.108-45.288
			c4.896-5.712,10.812-8.568,17.748-8.568h104.652c9.384,0,16.116,4.488,20.196,13.464c2.04,2.856,6.222,8.16,12.546,15.912
			s13.158,15.912,20.502,24.48L557.531,112.302L557.531,112.302z"/>
	</g>
</g>
<g>
</g>
<g>
</g>
<g>
</g>
<g>
</g>
<g>
</g>
<g>
</g>
<g>
</g>
<g>
</g>
<g>
</g>
<g>
</g>
<g>
</g>
<g>
</g>
<g>
</g>
<g>
</g>
<g>
</g>
</svg>
