<?xml version="1.0" encoding="iso-8859-1"?>
<!-- Generator: Adobe Illustrator 18.1.1, SVG Export Plug-In . SVG Version: 6.00 Build 0)  -->
<svg version="1.1" id="Capa_1" xmlns="http://www.w3.org/2000/svg" xmlns:xlink="http://www.w3.org/1999/xlink" x="0px" y="0px"
	 viewBox="0 0 612 612" style="enable-background:new 0 0 612 612;" xml:space="preserve">
<g>
	<g>
		<path style="fill:#010002;" d="M492.66,383.112c8.565-12.24,12.852-26.316,12.852-42.229c0-10.2-1.938-19.89-5.812-29.067
			c-3.876-9.183-9.183-17.036-15.912-23.563c-6.732-6.528-14.382-11.424-22.95-14.688s-17.748-4.284-27.54-3.06
			c-3.672-13.872-9.282-26.724-16.83-38.556s-16.521-21.93-26.928-30.294c-10.404-8.364-21.828-14.892-34.272-19.584
			c-12.441-4.692-25.602-7.038-39.474-7.038c-19.176,0-37.128,4.488-53.856,13.464s-31.008,21.828-42.84,38.556
			c-6.12-1.632-12.648-2.448-19.584-2.448c-13.056,0-25.194,2.652-36.414,7.956s-21.012,12.546-29.376,21.726
			c-8.364,9.18-14.994,19.992-19.89,32.436s-7.344,25.602-7.344,39.474c0,21.216,5.1,39.981,15.3,56.304
			c2.448,4.08,6.12,6.12,11.016,6.12h349.452C486.744,388.62,490.212,386.784,492.66,383.112z M306,0
			c42.024,0,81.702,8.058,119.034,24.174s69.768,37.944,97.308,65.484s49.368,59.976,65.484,97.308S612,263.976,612,306
			c0,28.152-3.672,55.284-11.016,81.396c-7.347,26.109-17.646,50.487-30.906,73.134c-13.26,22.644-29.172,43.248-47.736,61.812
			c-18.562,18.564-39.168,34.479-61.812,47.736c-22.646,13.26-47.022,23.562-73.136,30.906C361.284,608.328,334.152,612,306,612
			s-55.284-3.672-81.396-11.016c-26.112-7.347-50.49-17.646-73.134-30.906s-43.248-29.172-61.812-47.736
			c-18.564-18.562-34.476-39.168-47.736-61.812c-13.26-22.646-23.562-47.022-30.906-73.135C3.672,361.284,0,334.152,0,306
			s3.672-55.284,11.016-81.396s17.646-50.49,30.906-73.134s29.172-43.248,47.736-61.812s39.168-34.476,61.812-47.736
			s47.022-23.562,73.134-30.906S277.848,0,306,0z"/>
	</g>
</g>
<g>
</g>
<g>
</g>
<g>
</g>
<g>
</g>
<g>
</g>
<g>
</g>
<g>
</g>
<g>
</g>
<g>
</g>
<g>
</g>
<g>
</g>
<g>
</g>
<g>
</g>
<g>
</g>
<g>
</g>
</svg>
