<?xml version="1.0" encoding="iso-8859-1"?>
<!-- Generator: Adobe Illustrator 18.1.1, SVG Export Plug-In . SVG Version: 6.00 Build 0)  -->
<svg version="1.1" id="Capa_1" xmlns="http://www.w3.org/2000/svg" xmlns:xlink="http://www.w3.org/1999/xlink" x="0px" y="0px"
	 viewBox="0 0 589.968 589.968" style="enable-background:new 0 0 589.968 589.968;" xml:space="preserve">
<g>
	<g>
		<path style="fill:#010002;" d="M482.867,278.154c14.281-1.632,27.949-0.102,41.004,4.59c13.059,4.692,24.48,11.832,34.273,21.42
			c9.791,9.589,17.543,21.114,23.256,34.578c5.711,13.464,8.568,27.948,8.568,43.452c0,22.848-6.324,43.656-18.975,62.424
			c-3.672,5.712-8.771,8.568-15.301,8.568H39.168c-7.344,0-12.648-3.063-15.912-9.183C7.752,418.708,0,390.964,0,360.774
			c0-20.811,3.57-40.395,10.71-58.752c7.14-18.36,17.034-34.272,29.682-47.736s27.234-24.174,43.758-32.13
			s34.374-11.934,53.55-11.934c9.792,0,19.38,1.224,28.764,3.672c17.136-24.48,38.25-43.452,63.342-56.916
			c25.092-13.464,51.714-20.196,79.866-20.196c19.992,0,39.271,3.468,57.836,10.404c18.563,6.936,35.494,16.626,50.797,29.07
			c15.299,12.444,28.457,27.336,39.473,44.676C468.793,238.272,477.156,257.346,482.867,278.154z"/>
	</g>
</g>
<g>
</g>
<g>
</g>
<g>
</g>
<g>
</g>
<g>
</g>
<g>
</g>
<g>
</g>
<g>
</g>
<g>
</g>
<g>
</g>
<g>
</g>
<g>
</g>
<g>
</g>
<g>
</g>
<g>
</g>
</svg>
