<?xml version="1.0" encoding="iso-8859-1"?>
<!-- Generator: Adobe Illustrator 18.1.1, SVG Export Plug-In . SVG Version: 6.00 Build 0)  -->
<svg version="1.1" id="Capa_1" xmlns="http://www.w3.org/2000/svg" xmlns:xlink="http://www.w3.org/1999/xlink" x="0px" y="0px"
	 viewBox="0 0 577.732 577.732" style="enable-background:new 0 0 577.732 577.732;" xml:space="preserve">
<g>
	<g>
		<path style="fill:#010002;" d="M419.223,157.896c5.711,5.712,6.729,11.628,3.059,17.748l-89.963,150.552
			c-0.816,1.632-2.449,3.264-4.896,4.896L175.645,422.28c-2.04,1.224-4.488,1.836-7.344,1.836c-4.08,0-7.344-1.428-9.792-4.284
			l-0.612-0.609c-2.448-2.04-3.876-4.692-4.284-7.956c-0.408-3.267,0.204-6.528,1.836-9.792l91.188-151.167
			c1.632-2.448,3.264-4.08,4.896-4.896l150.552-89.964c2.855-1.632,5.916-2.244,9.182-1.836
			C414.529,154.021,417.181,155.448,419.223,157.896z M288.866,0c39.576,0,76.908,7.548,111.996,22.646
			c35.088,15.096,65.791,35.802,92.104,62.118c26.316,26.316,47.023,57.018,62.119,92.106
			c15.098,35.088,22.646,72.42,22.646,111.996c0,39.984-7.549,77.418-22.646,112.302c-15.096,34.884-35.803,65.484-62.119,91.8
			c-26.313,26.316-57.018,47.022-92.104,62.118c-35.088,15.099-72.42,22.646-111.996,22.646c-39.984,0-77.418-7.548-112.302-22.646
			c-34.884-15.096-65.484-35.802-91.8-62.118c-26.316-26.313-47.022-56.916-62.118-91.8C7.549,366.282,0.001,328.849,0.001,288.864
			c0-39.576,7.548-76.908,22.644-111.996s35.802-65.79,62.118-92.106s56.916-47.022,91.8-62.118C211.447,7.548,248.882,0,288.866,0z
			 M288.866,76.5c-29.376,0-56.916,5.61-82.62,16.83s-48.144,26.418-67.32,45.594s-34.374,41.616-45.594,67.32
			s-16.83,53.244-16.83,82.62s5.61,56.916,16.83,82.62c11.22,25.704,26.418,48.144,45.594,67.32s41.616,34.374,67.32,45.594
			s53.244,16.83,82.62,16.83s56.916-5.61,82.621-16.83c25.703-11.22,48.143-26.418,67.32-45.594
			c19.176-19.179,34.373-41.616,45.594-67.32c11.219-25.704,16.83-53.244,16.83-82.62s-5.611-56.916-16.83-82.62
			c-11.221-25.704-26.418-48.144-45.594-67.32c-19.18-19.176-41.617-34.374-67.32-45.594C345.78,82.11,318.241,76.5,288.866,76.5z"
			/>
	</g>
</g>
<g>
</g>
<g>
</g>
<g>
</g>
<g>
</g>
<g>
</g>
<g>
</g>
<g>
</g>
<g>
</g>
<g>
</g>
<g>
</g>
<g>
</g>
<g>
</g>
<g>
</g>
<g>
</g>
<g>
</g>
</svg>
