<?xml version="1.0" encoding="iso-8859-1"?>
<!-- Generator: Adobe Illustrator 18.1.1, SVG Export Plug-In . SVG Version: 6.00 Build 0)  -->
<svg version="1.1" id="Capa_1" xmlns="http://www.w3.org/2000/svg" xmlns:xlink="http://www.w3.org/1999/xlink" x="0px" y="0px"
	 viewBox="0 0 573.441 573.441" style="enable-background:new 0 0 573.441 573.441;" xml:space="preserve">
<g>
	<g>
		<path style="fill:#010002;" d="M290.699,276.624c0,4.08-1.428,7.446-4.284,10.098c-2.856,2.652-6.324,3.977-10.404,3.977H16.523
			c-4.08,0-7.446-1.325-10.098-3.977s-3.978-6.018-3.978-10.098V14.688c0-4.08,1.326-7.548,3.978-10.404S12.443,0,16.523,0h259.488
			c4.08,0,7.548,1.428,10.404,4.284c2.856,2.856,4.284,6.324,4.284,10.404L290.699,276.624L290.699,276.624z M556.306,282.132
			c4.08,0,7.551,1.428,10.404,4.284c2.856,2.855,4.284,6.324,4.284,10.404v261.936c0,4.08-1.428,7.549-4.284,10.402
			c-2.854,2.855-6.324,4.283-10.404,4.283H297.43c-4.08,0-7.548-1.428-10.402-4.283c-2.856-2.854-4.284-6.322-4.284-10.402V296.818
			c0-4.08,1.428-7.547,4.284-10.403c2.854-2.856,6.322-4.284,10.402-4.284h258.876V282.132L556.306,282.132z"/>
	</g>
</g>
<g>
</g>
<g>
</g>
<g>
</g>
<g>
</g>
<g>
</g>
<g>
</g>
<g>
</g>
<g>
</g>
<g>
</g>
<g>
</g>
<g>
</g>
<g>
</g>
<g>
</g>
<g>
</g>
<g>
</g>
</svg>
