<?xml version="1.0" encoding="iso-8859-1"?>
<!-- Generator: Adobe Illustrator 18.1.1, SVG Export Plug-In . SVG Version: 6.00 Build 0)  -->
<svg version="1.1" id="Capa_1" xmlns="http://www.w3.org/2000/svg" xmlns:xlink="http://www.w3.org/1999/xlink" x="0px" y="0px"
	 viewBox="0 0 535.5 535.5" style="enable-background:new 0 0 535.5 535.5;" xml:space="preserve">
<g>
	<g>
		<path style="fill:#010002;" d="M501.229,167.382h-33.66v33.048v33.66h-34.273H302.328h-34.271v-33.66v-33.048h-34.273v102.204l0,0
			h34.272l0,0v197.063h99.757v-97.92h34.27v97.92h64.873V269.586h0.611h33.66L501.229,167.382L501.229,167.382z M302.328,69.461
			V200.43h130.967v-33.048v-31.824V69.461H302.328z M535.5,135.557v31.824v102.204v34.271h-34.271V500.31h-33.66h-0.611h-64.873
			h-34.271h-99.755l0,0h-34.273V303.857H134.03v64.872h31.824v33.66h34.272v97.92h-34.272l0,0h-97.92H33.66v-97.92h34.272v64.26
			h97.92v-64.26h-97.92v-33.66h31.824v-64.872H33.66v-34.271h165.852V135.559h0.612h33.66h34.272V69.462V35.19h34.271h130.969
			h34.271v34.272v66.096h33.66L535.5,135.557L535.5,135.557z M165.852,135.557v-31.824h33.66v31.824H165.852z M33.66,135.557
			v134.028H0V135.557H33.66z M67.932,135.557H33.66v-31.824h34.272C67.932,103.733,67.932,135.557,67.932,135.557z M165.852,103.733
			h-97.92V69.461h97.92V103.733z"/>
	</g>
</g>
<g>
</g>
<g>
</g>
<g>
</g>
<g>
</g>
<g>
</g>
<g>
</g>
<g>
</g>
<g>
</g>
<g>
</g>
<g>
</g>
<g>
</g>
<g>
</g>
<g>
</g>
<g>
</g>
<g>
</g>
</svg>
