<?xml version="1.0" encoding="iso-8859-1"?>
<!-- Generator: Adobe Illustrator 18.1.1, SVG Export Plug-In . SVG Version: 6.00 Build 0)  -->
<svg version="1.1" id="Capa_1" xmlns="http://www.w3.org/2000/svg" xmlns:xlink="http://www.w3.org/1999/xlink" x="0px" y="0px"
	 viewBox="0 0 612 612" style="enable-background:new 0 0 612 612;" xml:space="preserve">
<g>
	<g>
		<path style="fill:#010002;" d="M306,612c-28.152,0-55.284-3.672-81.396-11.016c-26.112-7.347-50.49-17.646-73.134-30.906
			s-43.248-29.172-61.812-47.736c-18.564-18.562-34.476-39.168-47.736-61.812c-13.26-22.646-23.562-47.022-30.906-73.135
			C3.672,361.284,0,334.152,0,306s3.672-55.284,11.016-81.396s17.646-50.49,30.906-73.134s29.172-43.248,47.736-61.812
			s39.168-34.476,61.812-47.736s47.022-23.562,73.134-30.906S277.848,0,306,0c42.024,0,81.702,8.058,119.034,24.174
			s69.768,37.944,97.308,65.484s49.368,59.976,65.484,97.308S612,263.976,612,306c0,28.152-3.672,55.284-11.016,81.396
			c-7.347,26.109-17.646,50.487-30.906,73.134c-13.26,22.644-29.172,43.248-47.736,61.812
			c-18.562,18.564-39.168,34.479-61.812,47.736c-22.646,13.26-47.022,23.562-73.136,30.906C361.284,608.328,334.152,612,306,612z
			 M180.54,316.404l118.728,166.464c2.448,3.264,5.712,4.896,9.792,4.896c3.675,0,6.732-1.632,9.183-4.896l118.116-166.464
			c2.445-3.267,2.649-7.143,0.609-11.628c-2.04-4.08-5.508-6.12-10.401-6.12h-55.08V149.328c0-3.264-1.122-6.018-3.366-8.262
			c-2.244-2.244-4.998-3.366-8.262-3.366H257.04c-3.264,0-6.018,1.122-8.262,3.366c-2.244,2.244-3.366,4.998-3.366,8.262v149.328
			H189.72c-4.488,0-7.752,2.04-9.792,6.12C177.888,309.264,178.092,313.14,180.54,316.404z"/>
	</g>
</g>
<g>
</g>
<g>
</g>
<g>
</g>
<g>
</g>
<g>
</g>
<g>
</g>
<g>
</g>
<g>
</g>
<g>
</g>
<g>
</g>
<g>
</g>
<g>
</g>
<g>
</g>
<g>
</g>
<g>
</g>
</svg>
