<?xml version="1.0" encoding="iso-8859-1"?>
<!-- Generator: Adobe Illustrator 18.1.1, SVG Export Plug-In . SVG Version: 6.00 Build 0)  -->
<svg version="1.1" id="Capa_1" xmlns="http://www.w3.org/2000/svg" xmlns:xlink="http://www.w3.org/1999/xlink" x="0px" y="0px"
	 viewBox="0 0 612 612" style="enable-background:new 0 0 612 612;" xml:space="preserve">
<g>
	<g>
		<path style="fill:#010002;" d="M306,612c-28.152,0-55.284-3.672-81.396-11.016c-26.112-7.347-50.49-17.646-73.134-30.906
			s-43.248-29.172-61.812-47.736c-18.564-18.562-34.476-39.168-47.736-61.812c-13.26-22.646-23.562-47.022-30.906-73.135
			C3.672,361.284,0,334.152,0,306s3.672-55.284,11.016-81.396s17.646-50.49,30.906-73.134s29.172-43.248,47.736-61.812
			s39.168-34.476,61.812-47.736s47.022-23.562,73.134-30.906S277.848,0,306,0c42.024,0,81.702,8.058,119.034,24.174
			s69.768,37.944,97.308,65.484s49.368,59.976,65.484,97.308S612,263.976,612,306c0,28.152-3.672,55.284-11.016,81.396
			c-7.347,26.109-17.646,50.487-30.906,73.134c-13.26,22.644-29.172,43.248-47.736,61.812
			c-18.562,18.564-39.168,34.479-61.812,47.736c-22.646,13.26-47.022,23.562-73.136,30.906C361.284,608.328,334.152,612,306,612z
			 M235.62,197.676l64.26,89.352c0.816,1.632,2.448,2.448,4.896,2.448c2.042,0,3.672-1.02,4.896-3.06l63.648-88.74
			c1.224-2.448,1.224-4.692,0-6.732c-0.816-2.04-2.448-3.06-4.896-3.06h-29.988V107.1c0-4.08-2.037-6.12-6.117-6.12h-55.692
			c-4.08,0-6.12,2.04-6.12,6.12v80.784h-29.988c-2.448,0-4.284,1.021-5.508,3.06C234.192,192.984,234.396,195.228,235.62,197.676z
			 M465.732,288.864h-82.011c-4.896,0-9.384,1.428-13.464,4.284s-6.936,6.732-8.565,11.628
			c-4.08,12.648-11.427,22.749-22.032,30.294c-10.608,7.548-22.44,11.319-35.496,11.319s-24.786-3.771-35.19-11.319
			s-17.85-17.646-22.338-30.294c-1.632-4.896-4.386-8.772-8.262-11.628s-8.262-4.284-13.158-4.284h-82.008
			c-6.528,0-11.934,2.244-16.218,6.732s-6.426,9.792-6.426,15.912v130.968c0,6.528,2.142,12.036,6.426,16.524
			c4.284,4.488,9.69,6.732,16.218,6.732h322.524c6.117,0,11.424-2.244,15.909-6.732c4.488-4.488,6.732-9.996,6.732-16.524V311.508
			c0-6.12-2.244-11.424-6.732-15.912C477.156,291.108,471.852,288.864,465.732,288.864z"/>
	</g>
</g>
<g>
</g>
<g>
</g>
<g>
</g>
<g>
</g>
<g>
</g>
<g>
</g>
<g>
</g>
<g>
</g>
<g>
</g>
<g>
</g>
<g>
</g>
<g>
</g>
<g>
</g>
<g>
</g>
<g>
</g>
</svg>
