<?xml version="1.0" encoding="iso-8859-1"?>
<!-- Generator: Adobe Illustrator 18.1.1, SVG Export Plug-In . SVG Version: 6.00 Build 0)  -->
<svg version="1.1" id="Capa_1" xmlns="http://www.w3.org/2000/svg" xmlns:xlink="http://www.w3.org/1999/xlink" x="0px" y="0px"
	 viewBox="0 0 420.444 420.444" style="enable-background:new 0 0 420.444 420.444;" xml:space="preserve">
<g>
	<g>
		<path style="fill:#010002;" d="M18.972,257.041c-7.344,0-12.24-3.267-14.688-9.792c-3.264-6.528-2.244-12.444,3.06-17.748
			L198.288,23.869c3.264-3.264,7.14-4.896,11.628-4.896c4.488,0,8.364,1.632,11.628,4.896l189.72,203.795
			c4.08,3.265,6.12,7.549,6.12,12.853c0,4.488-1.528,8.364-4.59,11.628c-3.06,3.267-6.834,4.896-11.322,4.896h-0.609H18.972
			L18.972,257.041z M404.532,288.866c4.485,0,8.262,1.527,11.321,4.59c3.061,3.06,4.591,6.834,4.591,11.319v80.784
			c0,4.488-1.53,8.262-4.591,11.322c-3.062,3.06-6.836,4.59-11.321,4.59H15.912c-4.488,0-8.262-1.53-11.322-4.59
			C1.53,393.818,0,390.047,0,385.559v-80.784c0-4.485,1.53-8.262,4.59-11.319c3.06-3.063,6.834-4.591,11.322-4.591L404.532,288.866
			L404.532,288.866z"/>
	</g>
</g>
<g>
</g>
<g>
</g>
<g>
</g>
<g>
</g>
<g>
</g>
<g>
</g>
<g>
</g>
<g>
</g>
<g>
</g>
<g>
</g>
<g>
</g>
<g>
</g>
<g>
</g>
<g>
</g>
<g>
</g>
</svg>
