<?xml version="1.0" encoding="iso-8859-1"?>
<!-- Generator: Adobe Illustrator 18.1.1, SVG Export Plug-In . SVG Version: 6.00 Build 0)  -->
<svg version="1.1" id="Capa_1" xmlns="http://www.w3.org/2000/svg" xmlns:xlink="http://www.w3.org/1999/xlink" x="0px" y="0px"
	 viewBox="0 0 529.297 529.297" style="enable-background:new 0 0 529.297 529.297;" xml:space="preserve">
<g>
	<g>
		<path style="fill:#010002;" d="M102.204,164.707c-5.712-5.712-8.568-12.648-8.568-20.808s2.856-15.096,8.568-20.808
			c5.712-5.712,12.648-8.568,20.808-8.568s15.096,2.856,20.808,8.568c5.712,5.712,8.568,12.648,8.568,20.808
			s-2.856,15.096-8.568,20.808s-12.648,8.568-20.808,8.568C114.852,173.275,107.916,170.419,102.204,164.707z M64.566,305.161
			c1.836,1.428,3.978,2.143,6.426,2.143c2.448,0,4.59-0.715,6.426-2.143s2.754-3.773,2.754-7.037v-75.889v-3.672
			c0-1.224,0.612-2.04,1.836-2.448s2.244-0.612,3.06-0.612s1.836,0.204,3.06,0.612c1.224,0.408,1.836,1.224,1.836,2.448v182.988
			c0,3.672,1.326,6.732,3.978,9.18s5.814,3.674,9.486,3.674c3.672,0,6.834-1.227,9.486-3.674c2.652-2.445,3.978-5.508,3.978-9.18
			v-71.604v-40.395c0-2.041,0.816-3.365,2.448-3.979s2.856-0.918,3.672-0.918s1.938,0.307,3.366,0.918s2.142,1.938,2.142,3.979
			v40.395v71.604c0,3.672,1.326,6.732,3.978,9.18c2.652,2.447,5.814,3.674,9.486,3.674c4.08,0,7.344-1.227,9.792-3.674
			c2.448-2.445,3.672-5.508,3.672-9.18l0.612-182.988c0-1.224,0.612-2.04,1.836-2.448s2.244-0.612,3.06-0.612
			s1.836,0.204,3.06,0.612s1.836,1.224,1.836,2.448v3.672v75.889c0,3.264,0.918,5.609,2.754,7.037s3.876,2.143,6.12,2.143
			c2.244,0,4.284-0.715,6.12-2.143s2.754-3.773,2.754-7.037v-84.457c0-8.16-2.754-15.504-8.262-22.032s-12.954-9.792-22.338-9.792
			h-33.048h-0.612h-30.6c-9.384,0-16.218,3.264-20.502,9.792c-4.284,6.528-6.426,13.872-6.426,22.032v84.457
			C61.812,301.387,62.73,303.733,64.566,305.161z M381.888,67.093c3.672,3.468,5.508,7.854,5.508,13.158v364.751
			c0,5.305-1.836,9.691-5.508,13.158c-3.672,3.469-8.16,5.203-13.464,5.203H18.972c-5.304,0-9.792-1.734-13.464-5.203
			C1.836,454.694,0,450.307,0,445.002V80.251c0-5.304,1.836-9.69,5.508-13.158c3.672-3.468,8.16-5.202,13.464-5.202h349.452
			C373.728,61.891,378.216,63.625,381.888,67.093z M356.796,92.492H30.6v340.27h326.196L356.796,92.492L356.796,92.492z
			 M263.773,173.275c8.16,0,15.096-2.856,20.808-8.568s8.565-12.648,8.565-20.808s-2.854-15.096-8.565-20.808
			c-5.711-5.712-12.648-8.568-20.808-8.568s-15.096,2.856-20.808,8.568c-5.712,5.712-8.568,12.648-8.568,20.808
			s2.856,15.096,8.568,20.808S255.613,173.275,263.773,173.275z M205.326,305.161c1.836,1.428,3.978,2.143,6.426,2.143
			s4.59-0.715,6.426-2.143s2.754-3.773,2.754-7.037v-75.889v-3.672c0-1.224,0.612-2.04,1.836-2.448s2.244-0.612,3.06-0.612
			s1.836,0.204,3.06,0.612s1.836,1.224,1.836,2.448v182.988c0,3.672,1.326,6.732,3.978,9.18c2.652,2.447,5.814,3.674,9.486,3.674
			s6.834-1.227,9.486-3.674c2.652-2.445,3.978-5.508,3.978-9.18v-71.604v-40.395c0-2.041,0.816-3.365,2.448-3.979
			c1.632-0.611,2.856-0.918,3.672-0.918s2.04,0.307,3.671,0.918c1.633,0.611,2.449,1.938,2.449,3.979v40.395v71.604
			c0,3.672,1.223,6.732,3.669,9.18c2.448,2.447,5.712,3.674,9.792,3.674c3.675,0,6.834-1.227,9.486-3.674
			c2.652-2.445,3.979-5.508,3.979-9.18V218.563c0-1.224,0.609-2.04,1.836-2.448c1.224-0.408,2.242-0.612,3.06-0.612
			s1.836,0.204,3.063,0.612c1.224,0.408,1.836,1.224,1.836,2.448v3.672v75.889c0,3.264,0.918,5.609,2.754,7.037
			s3.978,2.143,6.426,2.143s4.59-0.715,6.426-2.143s2.754-3.773,2.754-7.037v-84.457c0-8.16-2.854-15.504-8.565-22.032
			c-5.716-6.528-13.264-9.792-22.646-9.792h-32.437h-0.612H260.1h-29.988c-9.384,0-16.32,3.264-20.808,9.792
			c-4.488,6.528-6.732,13.872-6.732,22.032v84.457C202.572,301.387,203.49,303.733,205.326,305.161z M523.826,391.885
			c-10.589,0-27.432,0-27.432,0s0-4.57,0-11.584c0-21.633,0-63.768,0-79.898c0,0,0.139-3.775-4.759-3.775c-4.883,0-34.91,0-41.75,0
			c-6.856,0-5.655,4.51-5.655,4.51c0,16.6,0,57.314,0,79.738c0,7.822,0,12.918,0,12.918s-21.002,0-29.696,0
			c-8.651,0-0.68,7.537-0.68,7.537l52.682,63.668c0,0,4.31,5.057,8.845,0.51c6.229-6.246,51.036-65.729,51.036-65.729
			S534.377,391.885,523.826,391.885z M415.975,143.146c10.589,0,27.432,0,27.432,0s0,4.571,0,11.585c0,21.632,0,63.768,0,79.899
			c0,0-0.139,3.774,4.759,3.774c4.883,0,34.91,0,41.75,0c6.856,0,5.655-4.51,5.655-4.51c0-16.599,0-57.314,0-79.737
			c0-7.823,0-12.918,0-12.918s21.002,0,29.696,0c8.651,0,0.68-7.537,0.68-7.537l-52.682-63.668c0,0-4.31-5.058-8.845-0.511
			c-6.229,6.247-51.036,65.73-51.036,65.73S405.424,143.146,415.975,143.146z"/>
	</g>
</g>
<g>
</g>
<g>
</g>
<g>
</g>
<g>
</g>
<g>
</g>
<g>
</g>
<g>
</g>
<g>
</g>
<g>
</g>
<g>
</g>
<g>
</g>
<g>
</g>
<g>
</g>
<g>
</g>
<g>
</g>
</svg>
