<?xml version="1.0" encoding="iso-8859-1"?>
<!-- Generator: Adobe Illustrator 18.1.1, SVG Export Plug-In . SVG Version: 6.00 Build 0)  -->
<svg version="1.1" id="Capa_1" xmlns="http://www.w3.org/2000/svg" xmlns:xlink="http://www.w3.org/1999/xlink" x="0px" y="0px"
	 viewBox="0 0 577.732 577.732" style="enable-background:new 0 0 577.732 577.732;" xml:space="preserve">
<g>
	<g>
		<path style="fill:#010002;" d="M439.418,246.024c0-4.08-1.326-7.548-3.978-10.404s-6.021-4.284-10.101-4.284h-272.95
			c-4.08,0-7.548,1.428-10.404,4.284s-4.284,6.324-4.284,10.404v85.68c0,4.08,1.428,7.548,4.284,10.404
			c2.856,2.854,6.324,4.284,10.404,4.284h272.953c4.08,0,7.446-1.431,10.101-4.284c2.649-2.856,3.978-6.324,3.978-10.404
			L439.418,246.024L439.418,246.024z M288.866,0c39.576,0,76.908,7.548,111.996,22.646c35.088,15.096,65.79,35.802,92.104,62.118
			c26.316,26.316,47.022,57.018,62.118,92.106c15.096,35.088,22.646,72.42,22.646,111.996c0,39.984-7.55,77.418-22.646,112.302
			c-15.096,34.886-35.802,65.484-62.118,91.8c-26.313,26.316-57.018,47.022-92.104,62.118
			c-35.089,15.099-72.42,22.646-111.996,22.646c-39.984,0-77.521-7.548-112.608-22.646c-35.088-15.096-65.688-35.802-91.8-62.118
			c-26.112-26.313-46.716-56.916-61.812-91.8C7.55,366.284,0.002,328.849,0.002,288.864c0-39.576,7.548-76.908,22.644-111.996
			s35.7-65.79,61.812-92.106s56.712-47.022,91.8-62.118C211.346,7.548,248.882,0,288.866,0z M288.866,76.5
			c-29.376,0-56.916,5.61-82.62,16.83s-48.144,26.418-67.32,45.594s-34.374,41.616-45.594,67.32s-16.83,53.244-16.83,82.62
			s5.61,56.916,16.83,82.62c11.22,25.704,26.418,48.144,45.594,67.32s41.616,34.374,67.32,45.594s53.244,16.83,82.62,16.83
			s56.916-5.61,82.62-16.83c25.703-11.22,48.144-26.418,67.317-45.594c19.179-19.179,34.374-41.616,45.597-67.32
			c11.22-25.704,16.83-53.244,16.83-82.62s-5.61-56.916-16.83-82.62c-11.223-25.704-26.418-48.144-45.597-67.32
			c-19.176-19.176-41.613-34.374-67.317-45.594C345.782,82.11,318.242,76.5,288.866,76.5z"/>
	</g>
</g>
<g>
</g>
<g>
</g>
<g>
</g>
<g>
</g>
<g>
</g>
<g>
</g>
<g>
</g>
<g>
</g>
<g>
</g>
<g>
</g>
<g>
</g>
<g>
</g>
<g>
</g>
<g>
</g>
<g>
</g>
</svg>
