<?xml version="1.0" encoding="iso-8859-1"?>
<!-- Generator: Adobe Illustrator 18.1.1, SVG Export Plug-In . SVG Version: 6.00 Build 0)  -->
<svg version="1.1" id="Capa_1" xmlns="http://www.w3.org/2000/svg" xmlns:xlink="http://www.w3.org/1999/xlink" x="0px" y="0px"
	 viewBox="0 0 574.056 574.056" style="enable-background:new 0 0 574.056 574.056;" xml:space="preserve">
<g>
	<g>
		<path style="fill:#010002;" d="M287.028,204.41c11.832,0,23.052,2.142,33.66,6.426c10.605,4.284,19.789,10.2,27.541,17.748
			c7.752,7.548,13.871,16.32,18.357,26.316c4.488,9.996,6.732,20.706,6.732,32.13s-2.244,22.133-6.732,32.129
			c-4.486,9.996-10.605,18.771-18.357,26.316c-7.752,7.547-16.936,13.465-27.541,17.748c-10.607,4.281-21.828,6.426-33.66,6.426
			s-23.052-2.145-33.66-6.426c-10.608-4.283-19.788-10.199-27.54-17.748c-7.752-7.547-13.872-16.32-18.36-26.316
			s-6.732-20.705-6.732-32.129s2.244-22.134,6.732-32.13c4.488-9.996,10.608-18.768,18.36-26.316s16.932-13.464,27.54-17.748
			C263.976,206.552,275.196,204.41,287.028,204.41z M287.028,416.162c18.767,0,36.312-3.365,52.632-10.098
			s30.602-15.912,42.84-27.539c12.24-11.629,21.932-25.297,29.07-41.004c7.137-15.709,10.709-32.539,10.709-50.491
			s-3.57-34.782-10.709-50.49c-7.141-15.708-16.83-29.376-29.07-41.004c-12.238-11.628-26.52-20.808-42.84-27.54
			s-33.865-10.098-52.632-10.098c-18.768,0-36.312,3.366-52.632,10.098s-30.6,15.912-42.84,27.54
			c-12.24,11.628-21.93,25.296-29.07,41.004s-10.71,32.538-10.71,50.49s3.57,34.782,10.71,50.491
			c7.14,15.707,16.83,29.375,29.07,41.004c12.24,11.627,26.52,20.807,42.84,27.539S268.26,416.162,287.028,416.162z
			 M287.028,115.058c27.744,0,54.162,3.264,79.253,9.792c25.092,6.528,48.246,14.994,69.463,25.398
			c21.215,10.404,40.395,22.134,57.527,35.19c17.137,13.056,31.723,25.908,43.758,38.556c12.037,12.648,21.217,24.582,27.541,35.802
			c6.324,11.22,9.486,20.298,9.486,27.234s-3.162,16.014-9.486,27.235c-6.324,11.219-15.504,23.15-27.541,35.801
			c-12.035,12.646-26.621,25.5-43.758,38.557c-17.135,13.059-36.313,24.785-57.527,35.189
			c-21.217,10.402-44.371,18.871-69.463,25.396c-25.092,6.527-51.51,9.791-79.253,9.791c-28.152,0-54.672-3.264-79.56-9.791
			c-24.888-6.525-47.94-14.994-69.156-25.396c-21.216-10.404-40.392-22.133-57.528-35.189
			c-17.136-13.057-31.722-25.908-43.758-38.557s-21.216-24.582-27.54-35.801C3.162,303.042,0,293.964,0,287.03
			c0-6.936,3.162-16.014,9.486-27.234s15.504-23.154,27.54-35.802s26.622-25.5,43.758-38.556s36.312-24.786,57.528-35.19
			c21.216-10.404,44.268-18.87,69.156-25.398C232.356,118.322,258.876,115.058,287.028,115.058z"/>
	</g>
</g>
<g>
</g>
<g>
</g>
<g>
</g>
<g>
</g>
<g>
</g>
<g>
</g>
<g>
</g>
<g>
</g>
<g>
</g>
<g>
</g>
<g>
</g>
<g>
</g>
<g>
</g>
<g>
</g>
<g>
</g>
</svg>
