<?xml version="1.0" encoding="iso-8859-1"?>
<!-- Generator: Adobe Illustrator 18.1.1, SVG Export Plug-In . SVG Version: 6.00 Build 0)  -->
<svg version="1.1" id="Capa_1" xmlns="http://www.w3.org/2000/svg" xmlns:xlink="http://www.w3.org/1999/xlink" x="0px" y="0px"
	 viewBox="0 0 573.872 573.872" style="enable-background:new 0 0 573.872 573.872;" xml:space="preserve">
<g>
	<g>
		<path style="fill:#010002;" d="M535.111,283.703H350.287l23.868,108.935h149.328L535.111,283.703z M222.991,283.703H38.167
			l11.628,108.935h149.328L222.991,283.703z M568.771,251.878c4.08,4.488,5.715,9.384,4.896,14.688l-15.912,146.877
			c-0.814,4.896-2.958,8.979-6.426,12.24c-3.468,3.266-7.446,4.896-11.937,4.896H359.467c-4.488,0-8.364-1.431-11.628-4.284
			c-3.264-2.856-5.304-6.528-6.12-11.019l-28.764-127.904c-2.04-1.633-5.406-3.162-10.098-4.59
			c-4.692-1.43-10.509-2.144-17.443-2.144c-5.712,0-10.608,0.612-14.688,1.836c-4.08,1.226-7.548,2.448-10.404,3.672
			l-28.764,129.131c-0.816,4.488-2.856,8.16-6.12,11.019c-3.264,2.854-7.14,4.284-11.628,4.284H33.882
			c-4.488,0-8.466-1.633-11.934-4.896c-3.468-3.264-5.406-7.344-5.814-12.24L0.223,266.566c-0.816-5.712,0.612-10.608,4.284-14.688
			c0.408-0.408,1.836-1.326,4.284-2.754l7.344-4.284c0,0,2.346-1.224,7.038-3.672s6.018-3.162,3.978-2.142l184.212-93.636
			c4.488-2.448,9.078-2.754,13.77-0.918c4.692,1.836,8.058,4.998,10.098,9.486c2.04,4.896,2.346,9.894,0.918,14.994
			c-1.428,5.1-4.386,8.67-8.874,10.71L96.307,239.026h378.828l-130.968-59.364c-4.488-2.04-7.548-5.61-9.18-10.71
			c-1.633-5.1-1.431-10.098,0.609-14.994c2.04-4.488,5.511-7.548,10.404-9.18c4.896-1.632,9.588-1.428,14.076,0.612l189.72,95.472
			c0.816,0.408,3.774,1.836,8.874,4.284C563.772,247.594,567.139,249.838,568.771,251.878z"/>
	</g>
</g>
<g>
</g>
<g>
</g>
<g>
</g>
<g>
</g>
<g>
</g>
<g>
</g>
<g>
</g>
<g>
</g>
<g>
</g>
<g>
</g>
<g>
</g>
<g>
</g>
<g>
</g>
<g>
</g>
<g>
</g>
</svg>
