<?xml version="1.0" encoding="iso-8859-1"?>
<!-- Generator: Adobe Illustrator 18.1.1, SVG Export Plug-In . SVG Version: 6.00 Build 0)  -->
<svg version="1.1" id="Capa_1" xmlns="http://www.w3.org/2000/svg" xmlns:xlink="http://www.w3.org/1999/xlink" x="0px" y="0px"
	 viewBox="0 0 612 612" style="enable-background:new 0 0 612 612;" xml:space="preserve">
<g>
	<g>
		<path style="fill:#010002;" d="M306,612c-28.152,0-55.284-3.672-81.396-11.016c-26.112-7.347-50.49-17.646-73.134-30.906
			s-43.248-29.172-61.812-47.736c-18.564-18.562-34.476-39.168-47.736-61.812c-13.26-22.646-23.562-47.022-30.906-73.135
			C3.672,361.284,0,334.152,0,306s3.672-55.284,11.016-81.396s17.646-50.49,30.906-73.134s29.172-43.248,47.736-61.812
			s39.168-34.476,61.812-47.736s47.022-23.562,73.134-30.906S277.848,0,306,0c42.024,0,81.702,8.058,119.034,24.174
			s69.768,37.944,97.308,65.484s49.368,59.976,65.484,97.308S612,263.976,612,306c0,28.152-3.672,55.284-11.016,81.396
			c-7.347,26.109-17.646,50.487-30.906,73.134c-13.26,22.644-29.172,43.248-47.736,61.812
			c-18.562,18.564-39.168,34.479-61.812,47.736c-22.646,13.26-47.022,23.562-73.136,30.906C361.284,608.328,334.152,612,306,612z
			 M472.464,261.936c-1.632-3.672-4.08-5.508-7.344-5.508H351.9l-37.944-108.936c-1.632-3.672-4.284-5.508-7.956-5.508
			c-3.264,0-5.712,1.836-7.344,5.508L260.1,256.428H146.88c-3.672,0-6.12,1.632-7.344,4.896s-0.408,6.324,2.448,9.18l88.128,69.771
			l-39.78,111.993c-0.816,4.08,0.204,6.938,3.06,8.568c2.448,2.448,5.508,2.652,9.18,0.612L306,399.636l103.428,62.424
			c0.816,0.408,2.244,0.612,4.284,0.612s3.672-0.612,4.896-1.836c2.854-2.448,3.672-5.304,2.445-8.568l-39.168-111.993
			l88.128-69.771C472.872,268.056,473.688,265.2,472.464,261.936z"/>
	</g>
</g>
<g>
</g>
<g>
</g>
<g>
</g>
<g>
</g>
<g>
</g>
<g>
</g>
<g>
</g>
<g>
</g>
<g>
</g>
<g>
</g>
<g>
</g>
<g>
</g>
<g>
</g>
<g>
</g>
<g>
</g>
</svg>
