<?xml version="1.0" encoding="iso-8859-1"?>
<!-- Generator: Adobe Illustrator 18.1.1, SVG Export Plug-In . SVG Version: 6.00 Build 0)  -->
<svg version="1.1" id="Capa_1" xmlns="http://www.w3.org/2000/svg" xmlns:xlink="http://www.w3.org/1999/xlink" x="0px" y="0px"
	 viewBox="0 0 612 612" style="enable-background:new 0 0 612 612;" xml:space="preserve">
<g>
	<g>
		<path style="fill:#010002;" d="M306,612c-28.152,0-55.284-3.672-81.396-11.016c-26.112-7.347-50.49-17.646-73.134-30.906
			s-43.248-29.172-61.812-47.736c-18.564-18.562-34.476-39.168-47.736-61.812c-13.26-22.646-23.562-47.022-30.906-73.135
			C3.672,361.284,0,334.152,0,306s3.672-55.284,11.016-81.396s17.646-50.49,30.906-73.134s29.172-43.248,47.736-61.812
			s39.168-34.476,61.812-47.736s47.022-23.562,73.134-30.906S277.848,0,306,0c42.024,0,81.702,8.058,119.034,24.174
			s69.768,37.944,97.308,65.484s49.368,59.976,65.484,97.308S612,263.976,612,306c0,28.152-3.672,55.284-11.016,81.396
			c-7.347,26.109-17.646,50.487-30.906,73.134c-13.26,22.644-29.172,43.248-47.736,61.812
			c-18.562,18.564-39.168,34.479-61.812,47.736c-22.646,13.26-47.022,23.562-73.136,30.906C361.284,608.328,334.152,612,306,612z
			 M448.596,158.508c-2.445,0.816-6.426,2.55-11.934,5.202c-5.508,2.652-12.036,5.508-19.584,8.568s-15.912,5.712-25.092,7.956
			c-9.183,2.244-18.771,3.264-28.767,3.06s-19.989-2.142-29.985-5.814s-19.482-9.996-28.458-18.972s-19.176-14.994-30.6-18.054
			s-22.95-4.182-34.578-3.366s-23.052,3.06-34.272,6.732s-21.114,7.752-29.682,12.24c-8.568,4.488-15.504,8.874-20.808,13.158
			c-5.304,4.284-7.956,7.242-7.956,8.874v75.276v71.604v131.58c0,6.12,2.244,11.424,6.732,15.912
			c4.488,4.488,9.792,6.732,15.912,6.732c6.528,0,11.934-2.244,16.218-6.732s6.426-9.792,6.426-15.912V329.868
			c6.936-3.267,14.892-6.12,23.868-8.568s18.36-3.567,28.152-3.366c9.792,0.204,19.89,2.244,30.294,6.12s20.502,10.71,30.294,20.502
			c12.24,12.24,25.806,19.688,40.698,22.339c14.895,2.651,29.479,2.552,43.761-0.307c14.277-2.854,27.54-7.344,39.777-13.464
			c12.24-6.12,22.032-11.628,29.376-16.524c4.08-2.854,6.732-6.018,7.956-9.483c1.227-3.469,1.836-9.486,1.836-18.056V178.092
			c0-5.712-1.428-10.914-4.281-15.606C461.04,157.794,455.94,156.468,448.596,158.508z"/>
	</g>
</g>
<g>
</g>
<g>
</g>
<g>
</g>
<g>
</g>
<g>
</g>
<g>
</g>
<g>
</g>
<g>
</g>
<g>
</g>
<g>
</g>
<g>
</g>
<g>
</g>
<g>
</g>
<g>
</g>
<g>
</g>
</svg>
