<?xml version="1.0" encoding="iso-8859-1"?>
<!-- Generator: Adobe Illustrator 18.1.1, SVG Export Plug-In . SVG Version: 6.00 Build 0)  -->
<svg version="1.1" id="Capa_1" xmlns="http://www.w3.org/2000/svg" xmlns:xlink="http://www.w3.org/1999/xlink" x="0px" y="0px"
	 viewBox="0 0 580.345 580.345" style="enable-background:new 0 0 580.345 580.345;" xml:space="preserve">
<g>
	<g>
		<path style="fill:#010002;" d="M529.465,36.883c6.12-1.632,11.322-1.632,15.606,0c4.281,1.632,7.647,4.182,10.098,7.65
			c2.448,3.468,4.284,7.548,5.508,12.24c1.225,4.692,1.836,9.282,1.836,13.77V292.7c0,14.277-1.122,24.377-3.366,30.293
			c-2.241,5.916-6.834,11.322-13.77,16.219c-8.16,5.711-18.258,12.035-30.294,18.971c-12.036,6.939-25.398,13.264-40.086,18.975
			c-14.688,5.713-30.192,10.303-46.515,13.77c-16.317,3.469-32.739,4.693-49.266,3.672c-16.523-1.02-32.844-4.689-48.96-11.016
			s-31.11-16.422-44.982-30.293c-16.728-16.73-33.864-28.459-51.408-35.191c-17.544-6.729-34.68-10.301-51.408-10.709
			s-32.64,1.529-47.736,5.814c-15.096,4.283-28.56,9.078-40.392,14.381v214.811c0,10.609-3.774,19.586-11.322,26.932
			c-7.548,7.344-16.626,11.016-27.234,11.016s-19.584-3.672-26.928-11.016c-7.343-7.349-11.015-16.322-11.015-26.933V319.628
			V197.839V70.543c0-2.856,4.488-7.854,13.464-14.994s20.808-14.586,35.496-22.338s31.416-14.79,50.184-21.114
			s38.046-10.2,57.834-11.628s39.27,0.408,58.446,5.508c19.176,5.1,36.516,15.402,52.02,30.906s31.722,26.418,48.654,32.742
			c16.935,6.324,33.762,9.588,50.49,9.792s32.946-1.632,48.654-5.508s29.985-8.466,42.84-13.77
			c12.852-5.304,23.97-10.2,33.354-14.688C518.653,40.963,525.385,38.107,529.465,36.883z"/>
	</g>
</g>
<g>
</g>
<g>
</g>
<g>
</g>
<g>
</g>
<g>
</g>
<g>
</g>
<g>
</g>
<g>
</g>
<g>
</g>
<g>
</g>
<g>
</g>
<g>
</g>
<g>
</g>
<g>
</g>
<g>
</g>
</svg>
