<?xml version="1.0" encoding="iso-8859-1"?>
<!-- Generator: Adobe Illustrator 18.1.1, SVG Export Plug-In . SVG Version: 6.00 Build 0)  -->
<svg version="1.1" id="Capa_1" xmlns="http://www.w3.org/2000/svg" xmlns:xlink="http://www.w3.org/1999/xlink" x="0px" y="0px"
	 viewBox="0 0 509.184 509.184" style="enable-background:new 0 0 509.184 509.184;" xml:space="preserve">
<g>
	<g>
		<path style="fill:#010002;" d="M504.593,389.844c2.854,2.856,4.284,6.222,4.284,10.098c0,3.877-1.431,7.242-4.284,10.101
			l-94.86,94.857c-2.854,2.856-6.12,4.284-9.792,4.284c-3.264,0-6.729-1.428-10.403-4.284L254.284,369.647L119.033,504.899
			c-2.856,2.856-6.12,4.284-9.792,4.284c-3.264,0-6.732-1.428-10.404-4.284l-94.86-94.857c-2.448-2.448-3.672-5.916-3.672-10.404
			c0-4.08,1.224-7.344,3.672-9.792l135.252-135.254L4.589,119.34c-2.856-2.448-4.284-5.712-4.284-9.792
			c0-4.488,1.428-7.956,4.284-10.404l94.248-94.86C101.693,1.428,105.161,0,109.241,0s7.344,1.428,9.792,4.284l135.251,135.252
			L389.537,4.284C392.392,1.428,395.761,0,399.637,0s7.242,1.428,10.098,4.284l94.86,94.86c2.854,2.856,4.284,6.222,4.284,10.098
			s-1.431,7.242-4.284,10.098L369.341,254.592L504.593,389.844L504.593,389.844z"/>
	</g>
</g>
<g>
</g>
<g>
</g>
<g>
</g>
<g>
</g>
<g>
</g>
<g>
</g>
<g>
</g>
<g>
</g>
<g>
</g>
<g>
</g>
<g>
</g>
<g>
</g>
<g>
</g>
<g>
</g>
<g>
</g>
</svg>
