<?xml version="1.0" encoding="iso-8859-1"?>
<!-- Generator: Adobe Illustrator 18.1.1, SVG Export Plug-In . SVG Version: 6.00 Build 0)  -->
<svg version="1.1" id="Capa_1" xmlns="http://www.w3.org/2000/svg" xmlns:xlink="http://www.w3.org/1999/xlink" x="0px" y="0px"
	 viewBox="0 0 578.954 578.954" style="enable-background:new 0 0 578.954 578.954;" xml:space="preserve">
<g>
	<g>
		<path style="fill:#010002;" d="M235.621,151.164c12.24,14.28,19.482,30.294,21.726,48.042c2.244,17.748-0.102,34.578-7.038,50.49
			c9.384,12.648,17.34,23.256,23.868,31.824s10.2,13.056,11.016,13.464c1.224,2.039,3.264,3.063,6.12,3.063
			c2.857,0,5.304-1.227,7.343-3.674L512.857,0h48.959c4.08,0,7.549,1.326,10.404,3.978c2.854,2.652,4.285,6.018,4.285,10.098
			v121.788l-279.688,235.62c-1.223,1.227-2.854,1.836-4.895,1.836h-1.837c-1.224,0-2.448-0.609-3.672-1.836l-88.74-71.604
			c-10.608,4.08-21.828,6.119-33.66,6.119c-13.056,0-25.806-2.756-38.25-8.264s-23.358-13.566-32.742-24.174
			c-8.568-9.792-14.586-20.604-18.054-32.436s-4.794-23.766-3.978-35.802s3.978-23.562,9.486-34.578s13.158-20.808,22.95-29.376
			c8.976-7.752,18.666-13.464,29.07-17.136s21.114-5.508,32.13-5.508c13.056,0,25.806,2.754,38.25,8.262
			C215.323,132.498,226.237,140.556,235.621,151.164z M446.148,313.344c5.713-5.303,8.568-11.627,8.568-18.971
			c0-7.347-2.652-13.669-7.955-18.975L576.505,165.85v399.027c0,4.08-1.432,7.443-4.285,10.098
			c-2.855,2.652-6.324,3.979-10.404,3.979H17.137c-4.08,0-7.548-1.324-10.404-3.979s-4.284-6.018-4.284-10.098V14.076
			c0-4.08,1.428-7.446,4.284-10.098S13.057,0,17.137,0h467.566l-132.19,181.152l-39.168-39.168
			c-5.713-5.712-12.24-8.568-19.584-8.568c-7.345,0-13.873,2.856-19.584,8.568l-9.792,9.792c-1.632-2.448-3.366-4.998-5.202-7.65
			s-3.774-5.202-5.814-7.65c-11.016-13.056-24.276-23.154-39.78-30.294c-15.504-7.14-31.824-10.71-48.96-10.71
			c-14.28,0-27.846,2.448-40.698,7.344s-24.582,11.832-35.19,20.808c-12.24,10.608-21.726,22.848-28.458,36.72
			s-10.71,28.254-11.934,43.146s0.408,29.682,4.896,44.37s12.036,28.152,22.644,40.392c10.2,11.834,22.236,21.318,36.108,28.459
			c13.872,7.139,28.56,11.115,44.064,11.934L274.177,446.76c5.712,5.713,12.24,8.566,19.584,8.566
			c7.344,0,13.871-2.854,19.584-8.566L446.148,313.344L446.148,313.344z"/>
	</g>
</g>
<g>
</g>
<g>
</g>
<g>
</g>
<g>
</g>
<g>
</g>
<g>
</g>
<g>
</g>
<g>
</g>
<g>
</g>
<g>
</g>
<g>
</g>
<g>
</g>
<g>
</g>
<g>
</g>
<g>
</g>
</svg>
