<?xml version="1.0" encoding="iso-8859-1"?>
<!-- Generator: Adobe Illustrator 18.1.1, SVG Export Plug-In . SVG Version: 6.00 Build 0)  -->
<svg version="1.1" id="Capa_1" xmlns="http://www.w3.org/2000/svg" xmlns:xlink="http://www.w3.org/1999/xlink" x="0px" y="0px"
	 viewBox="0 0 525.799 525.799" style="enable-background:new 0 0 525.799 525.799;" xml:space="preserve">
<g>
	<g>
		<path style="fill:#010002;" d="M525.701,141.401c0-2.041-0.409-3.672-1.224-4.896c-0.816-1.224-3.062-3.672-6.732-7.344
			l-7.956-7.956c-4.486-4.08-8.771-4.08-12.852,0l-18.974,18.972l-20.194,20.196c-4.897,4.896-9.078,8.364-12.546,10.404
			c-3.471,2.04-6.732,3.162-9.792,3.366c-3.063,0.204-7.242,0.306-12.546,0.306h-7.956c-5.712,0-12.24-1.938-19.584-5.814
			c-7.347-3.876-14.484-9.282-21.421-16.218c-7.346-7.344-12.953-14.688-16.829-22.032c-3.876-7.344-5.814-13.872-5.814-19.584
			v-7.956c4.897-10.2,4.998-14.382,0.306-12.546c-4.69,1.836-3.568-1.428,3.366-9.792c6.938-8.364,10.404-12.546,10.404-12.546
			l20.196-20.196l18.972-18.972c4.08-4.08,4.08-8.364,0-12.852l-7.956-7.956c-3.672-3.672-6.12-5.916-7.344-6.732
			c-1.226-0.816-2.856-1.224-4.896-1.224c-19.176-0.408-38.146,3.468-56.916,11.628c-18.767,8.16-35.901,19.992-51.408,35.496
			c-15.911,15.504-28.15,32.946-36.719,52.326c-8.568,19.38-12.852,38.862-12.852,58.446c0,13.056,3.06,26.52,9.18,40.392
			L48.341,362.944c-1.224,0.816-4.182,3.062-8.874,6.732s-9.69,8.466-14.994,14.382S14.171,396.91,9.479,404.866
			s-7.65,16.83-8.874,26.622c-2.856,22.441,5.712,44.475,25.704,66.099c0,0.405,0.102,0.609,0.306,0.609s0.306,0.204,0.306,0.612
			h0.612l0.612,0.612c21.216,20.397,43.248,28.968,66.096,25.704c9.792-1.227,18.666-4.185,26.622-8.874
			c7.956-4.692,14.892-9.69,20.808-14.994c5.916-5.307,10.71-10.304,14.382-14.994c3.672-4.692,5.916-7.65,6.732-8.874
			l164.627-187.272c13.872,6.12,27.336,9.183,40.395,9.183c19.584,0,39.063-4.285,58.443-12.854
			c19.382-8.566,36.822-20.808,52.326-36.719c15.504-15.504,27.336-32.64,35.496-51.408
			C522.233,179.549,526.109,160.577,525.701,141.401z M109.542,455.969c-5.712,5.712-12.342,8.565-19.89,8.565
			s-14.178-2.854-19.89-8.565s-8.568-12.342-8.568-19.893c0-7.548,2.856-14.178,8.568-19.89s12.342-8.567,19.89-8.567
			c7.548,0,14.178,2.855,19.89,8.567c5.712,5.712,8.568,12.342,8.568,19.89C118.11,443.627,115.254,450.257,109.542,455.969z"/>
	</g>
</g>
<g>
</g>
<g>
</g>
<g>
</g>
<g>
</g>
<g>
</g>
<g>
</g>
<g>
</g>
<g>
</g>
<g>
</g>
<g>
</g>
<g>
</g>
<g>
</g>
<g>
</g>
<g>
</g>
<g>
</g>
</svg>
