<?xml version="1.0" encoding="iso-8859-1"?>
<!-- Generator: Adobe Illustrator 18.1.1, SVG Export Plug-In . SVG Version: 6.00 Build 0)  -->
<svg version="1.1" id="Capa_1" xmlns="http://www.w3.org/2000/svg" xmlns:xlink="http://www.w3.org/1999/xlink" x="0px" y="0px"
	 viewBox="0 0 612 612" style="enable-background:new 0 0 612 612;" xml:space="preserve">
<g>
	<g>
		<path style="fill:#010002;" d="M533.052,312.12v-4.284c0-35.904-7.344-68.952-22.032-99.144s-34.68-55.896-59.976-77.112
			c-6.936,0.816-14.28,1.734-22.032,2.754s-15.3,2.652-22.644,4.896c-7.345,2.244-13.977,4.896-19.893,7.956
			s-10.302,7.038-13.155,11.934c-4.896,7.752-8.265,14.28-10.101,19.584s-3.06,9.894-3.672,13.77s-0.918,7.038-0.918,9.486
			s-0.612,4.896-1.836,7.344s-2.754,4.386-4.59,5.814s-3.366,2.958-4.59,4.59c-1.227,1.632-1.836,3.876-1.836,6.732
			s1.224,6.732,3.672,11.628c2.04,3.672,3.06,7.344,3.06,11.016c2.856,0,5.712-0.204,8.568-0.612
			c2.448-0.408,4.998-0.918,7.648-1.53c2.651-0.612,4.997-1.938,7.037-3.978l42.842,3.672c3.265-4.08,7.141-6.936,11.629-8.568
			c2.039-0.816,4.281-1.428,6.729-1.836c2.04,0.408,4.488,1.428,7.344,3.06c2.448,1.632,5.202,4.08,8.265,7.344
			c3.06,3.264,6.63,8.364,10.71,15.3l-17.748,12.24c-4.08-1.224-8.979-3.672-14.688-7.344c-2.854-1.632-5.916-3.672-9.18-6.12
			c-3.264-1.632-7.854-2.55-13.771-2.754s-12.034,0-18.358,0.612s-12.75,1.428-19.278,2.448c-6.527,1.02-12.036,1.734-16.521,2.142
			c-0.408,1.632-1.227,3.264-2.448,4.896c-0.816,1.224-1.938,2.448-3.366,3.672s-3.162,2.04-5.202,2.448
			c-0.408,1.224-0.609,3.264-0.609,6.12c0,1.224-0.204,2.448-0.612,3.672c-8.16,11.832-11.018,25.092-8.568,39.78
			c2.04,10.607,6.225,18.768,12.546,24.479c6.324,5.715,13.771,8.568,22.339,8.568h1.226c0.813,0,1.632-0.102,2.448-0.306
			c0.813-0.204,1.836-0.309,3.06-0.309c8.977,0,15.198,0.513,18.666,1.53c3.468,1.021,5.406,1.734,5.814,2.144
			c-2.04,5.305-2.856,9.484-2.448,12.547c0.408,3.06,1.428,6.222,3.06,9.483l1.836,3.672c2.04,4.488,2.958,8.979,2.755,13.466
			c-0.202,4.486-0.715,9.181-1.528,14.074c0,2.856-0.204,5.103-0.612,6.732c-0.408,5.712,0.408,11.22,2.448,16.523l6.12,15.91
			c0.813,2.04,1.632,3.876,2.445,5.51c0.816,1.633,1.635,3.469,2.448,5.509c0,0.407,0.104,0.714,0.307,0.918
			c0.203,0.204,0.308,0.714,0.308,1.529c1.224,3.265,2.754,6.834,4.59,10.711c1.836,3.876,4.59,6.222,8.262,7.037
			c8.16,1.225,17.748-3.878,28.767-15.302c8.158-9.384,13.056-19.584,14.688-30.6c0.408-4.08,2.04-8.568,4.896-13.464
			c2.446-4.896,4.282-9.996,5.508-15.301c0.813-2.447,0.813-5.102,0-7.955c5.304-9.387,7.956-17.343,7.956-23.868
			c0-4.08,0.204-7.143,0.61-9.182l2.144-2.143l2.142-2.142c3.267-2.448,6.12-5.307,8.568-8.568c0.814-2.448,1.428-4.692,1.836-6.732
			s0.714-4.078,0.918-6.117c0.204-2.04-0.102-4.08-0.918-6.12c-0.408-0.816-1.428-1.633-3.06-2.448l-10.404-3.672
			c1.632-3.672,3.672-6.324,6.12-7.956c2.446-1.632,4.689-2.856,6.729-3.672c2.448-0.816,5.103-0.816,7.956,0L533.052,312.12z
			 M328.032,429.624c1.224-3.672,2.346-9.69,3.366-18.054s1.527-16.626,1.527-24.786c0-4.08-1.632-7.752-4.896-11.019
			c-3.267-3.264-7.446-6.525-12.546-9.792c-5.103-3.264-10.71-7.038-16.83-11.319c-6.12-4.284-12.24-9.69-18.36-16.221
			c-6.12-6.525-12.444-11.115-18.972-13.77c-6.528-2.652-13.158-4.182-19.89-4.59s-13.056-0.204-18.972,0.61
			c-5.916,0.815-11.322,1.226-16.218,1.226c-0.816,0-1.428-0.104-1.836-0.308c-0.408-0.202-1.02-0.307-1.836-0.307
			c-1.632-2.448-3.264-3.876-4.896-4.284c-1.224-0.405-2.244-1.02-3.06-1.836l-0.612-0.61v-0.611c0-0.816,0.612-1.836,1.836-3.062
			c1.224-1.633,1.428-3.469,0.612-5.508c-1.632-1.632-3.264-2.448-4.896-2.448c-2.04,0-4.08,0.204-6.12,0.612
			c-0.408-2.04-1.02-4.08-1.836-6.12s-1.53-4.386-2.142-7.038s-1.122-5.814-1.53-9.486c5.712,4.896,10.71,8.466,14.994,10.71
			s7.854,3.774,10.71,4.59c3.264,1.224,5.916,1.632,7.956,1.224c4.488-1.224,7.038-4.998,7.65-11.322s0.306-15.198-0.918-26.622
			c1.224-1.632,2.04-3.264,2.448-4.896c1.632-6.936,3.774-11.526,6.426-13.77s3.978-3.57,3.978-3.979
			c1.224,0,1.836-0.408,1.836-1.224c1.632-1.224,5.1-2.244,10.404-3.06c2.04-0.408,3.978-0.816,5.814-1.224s3.774-1.02,5.814-1.836
			c3.264-1.632,4.08-3.876,2.448-6.732c-0.408,0-0.612-0.102-0.612-0.306s-0.204-0.306-0.612-0.306
			c1.632-0.816,3.162-1.734,4.59-2.754s2.55-1.938,3.366-2.754c2.04-2.04,3.876-4.08,5.508-6.12s3.162-4.182,4.59-6.426
			s2.754-4.386,3.978-6.426c-2.04-3.264-4.488-6.222-7.344-8.874s-5.304-4.794-7.344-6.426c-2.856-1.632-5.508-3.06-7.956-4.284
			c-2.856-4.08-6.732-5.304-11.628-3.672c-2.448,0-4.488-0.612-6.12-1.836c-0.816-0.408-1.632-1.02-2.448-1.836
			c-3.672-2.448-6.12-3.876-7.344-4.284c-2.04-0.816-4.692-1.632-7.956-2.448c-5.712-3.672-11.118-7.956-16.218-12.852
			s-9.078-10.2-11.934-15.912c-2.04-4.488-5.916-7.446-11.628-8.874s-11.832-1.734-18.36-0.918
			c-22.848,17.544-41.922,38.76-57.222,63.648s-25.193,52.227-29.681,82.011c4.08,5.712,8.67,10.812,13.77,15.3
			c5.1,4.488,10.2,8.364,15.3,11.628c5.1,3.264,9.996,6.12,14.688,8.568c4.692,2.445,8.466,4.284,11.322,5.508
			c6.936,3.264,14.688,5.916,23.256,7.956s16.728,4.896,24.48,8.565l3.06,3.063c0,0,1.428,1.224,4.284,3.672
			c0.816,0.816,1.836,1.734,3.06,2.754c1.224,1.021,2.448,2.145,3.672,3.366c0.816,0.816,1.53,1.326,2.142,1.53
			s1.326,0.714,2.142,1.527c0,2.04-0.408,5.103-1.224,9.183s-1.02,10.199-0.612,18.357c0.408,9.387,2.448,17.442,6.12,24.176
			c3.672,6.73,7.344,12.952,11.016,18.665l3.672,5.51c2.04,3.264,3.672,6.12,4.896,8.565c1.224,2.448,1.428,5.103,0.612,7.956
			c-0.408,2.448-1.02,7.038-1.836,13.771c-0.816,6.729-1.734,14.278-2.754,22.644s-2.142,17.034-3.366,26.011
			c-1.224,8.978-2.04,16.934-2.448,23.867c3.672,1.633,6.834,3.267,9.486,4.896c2.652,1.632,5.508,3.162,8.568,4.59
			s6.732,2.754,11.016,3.979c4.284,1.226,10.098,2.039,17.442,2.447c1.632-2.854,3.264-6.526,4.896-11.016
			c1.632-3.267,3.57-7.446,5.814-12.546c2.244-5.103,4.998-10.71,8.262-16.83c0-6.12,0.918-11.424,2.754-15.912
			s3.774-8.16,5.814-11.018c2.448-3.265,5.304-6.118,8.568-8.566c8.16-5.712,15.402-11.832,21.726-18.36
			C323.034,438.396,326.808,433.296,328.032,429.624z M303.552,78.336c-24.888,0-48.552,3.672-70.992,11.016
			c11.016,5.712,23.562,10.914,37.638,15.606s28.05,7.038,41.922,7.038c2.04,0,4.08-0.102,6.12-0.306s4.08-0.51,6.12-0.918
			c3.264-0.408,6.426-1.428,9.483-3.06c3.063-1.632,6.225-3.468,9.486-5.508c2.04-1.224,4.08-2.346,6.12-3.366
			s4.08-1.938,6.12-2.754c5.304-2.04,10.812-2.754,16.521-2.142c5.712,0.612,11.628,1.53,17.748,2.754
			c3.266,0.816,5.916,1.428,7.956,1.836c-14.28-6.528-29.271-11.526-44.979-14.994C337.11,80.07,320.688,78.336,303.552,78.336z
			 M306,0c42.024,0,81.702,8.058,119.034,24.174s69.768,37.944,97.308,65.484s49.368,59.976,65.484,97.308S612,263.976,612,306
			c0,28.152-3.672,55.284-11.016,81.396c-7.347,26.109-17.646,50.487-30.906,73.134c-13.26,22.644-29.172,43.248-47.736,61.812
			c-18.562,18.564-39.168,34.479-61.812,47.736c-22.646,13.26-47.022,23.562-73.136,30.906C361.284,608.328,334.152,612,306,612
			s-55.284-3.672-81.396-11.016c-26.112-7.347-50.49-17.646-73.134-30.906s-43.248-29.172-61.812-47.736
			c-18.564-18.562-34.476-39.168-47.736-61.812c-13.26-22.646-23.562-47.022-30.906-73.135C3.672,361.284,0,334.152,0,306
			s3.672-55.284,11.016-81.396s17.646-50.49,30.906-73.134s29.172-43.248,47.736-61.812s39.168-34.476,61.812-47.736
			s47.022-23.562,73.134-30.906S277.848,0,306,0z"/>
	</g>
</g>
<g>
</g>
<g>
</g>
<g>
</g>
<g>
</g>
<g>
</g>
<g>
</g>
<g>
</g>
<g>
</g>
<g>
</g>
<g>
</g>
<g>
</g>
<g>
</g>
<g>
</g>
<g>
</g>
<g>
</g>
</svg>
