<?xml version="1.0" encoding="iso-8859-1"?>
<!-- Generator: Adobe Illustrator 18.1.1, SVG Export Plug-In . SVG Version: 6.00 Build 0)  -->
<svg version="1.1" id="Capa_1" xmlns="http://www.w3.org/2000/svg" xmlns:xlink="http://www.w3.org/1999/xlink" x="0px" y="0px"
	 viewBox="0 0 583.236 583.236" style="enable-background:new 0 0 583.236 583.236;" xml:space="preserve">
<g>
	<g>
		<path style="fill:#010002;" d="M78.643,298.044c-4.896-6.12-5.304-12.648-1.224-19.584c3.264-6.936,8.772-10.404,16.524-10.404
			h93.024V19.584c0-5.712,1.836-10.404,5.508-14.076C196.147,1.836,200.635,0,205.939,0h171.36c5.304,0,9.792,1.836,13.464,5.508
			c3.672,3.672,5.508,8.364,5.508,14.076v248.472h93.024c7.752,0,13.26,3.468,16.524,10.404c4.078,6.936,3.672,13.464-1.227,19.584
			L307.532,575.28c-3.267,5.304-8.364,7.956-15.303,7.956c-6.936,0-12.036-2.652-15.3-7.956L78.643,298.044L78.643,298.044z"/>
	</g>
</g>
<g>
</g>
<g>
</g>
<g>
</g>
<g>
</g>
<g>
</g>
<g>
</g>
<g>
</g>
<g>
</g>
<g>
</g>
<g>
</g>
<g>
</g>
<g>
</g>
<g>
</g>
<g>
</g>
<g>
</g>
</svg>
