<?xml version="1.0" encoding="iso-8859-1"?>
<!-- Generator: Adobe Illustrator 18.1.1, SVG Export Plug-In . SVG Version: 6.00 Build 0)  -->
<svg version="1.1" id="Capa_1" xmlns="http://www.w3.org/2000/svg" xmlns:xlink="http://www.w3.org/1999/xlink" x="0px" y="0px"
	 viewBox="0 0 583.236 583.236" style="enable-background:new 0 0 583.236 583.236;" xml:space="preserve">
<g>
	<g>
		<path style="fill:#010002;" d="M504.593,285.192c4.896,6.12,5.307,12.648,1.227,19.584c-3.267,6.936-8.772,10.401-16.524,10.401
			h-93.021v248.475c0,5.712-1.836,10.401-5.51,14.073c-3.673,3.675-8.158,5.511-13.465,5.511H205.937
			c-5.304,0-9.792-1.836-13.464-5.511c-3.672-3.672-5.508-8.361-5.508-14.073V315.179H93.941c-7.752,0-13.26-3.468-16.524-10.401
			c-4.08-6.938-3.672-13.464,1.224-19.584L275.705,8.568C278.969,2.856,284.069,0,291.005,0c6.937,0,12.036,2.652,15.3,7.956
			L504.593,285.192L504.593,285.192z"/>
	</g>
</g>
<g>
</g>
<g>
</g>
<g>
</g>
<g>
</g>
<g>
</g>
<g>
</g>
<g>
</g>
<g>
</g>
<g>
</g>
<g>
</g>
<g>
</g>
<g>
</g>
<g>
</g>
<g>
</g>
<g>
</g>
</svg>
