<?xml version="1.0" encoding="iso-8859-1"?>
<!-- Generator: Adobe Illustrator 18.1.1, SVG Export Plug-In . SVG Version: 6.00 Build 0)  -->
<svg version="1.1" id="Capa_1" xmlns="http://www.w3.org/2000/svg" xmlns:xlink="http://www.w3.org/1999/xlink" x="0px" y="0px"
	 viewBox="0 0 579.567 579.567" style="enable-background:new 0 0 579.567 579.567;" xml:space="preserve">
<g>
	<g>
		<path style="fill:#010002;" d="M470.936,205.635h105.876v359.244c0,4.08-1.428,7.548-4.281,10.404
			c-2.856,2.854-6.324,4.281-10.404,4.281H322.22c3.267-11.016,4.896-22.848,4.896-35.496c0-14.277-2.652-27.438-7.956-39.474
			c-5.307-12.036-12.141-23.154-20.502-33.354c-8.364-10.2-17.544-19.586-27.54-28.152c-9.996-8.568-19.686-16.524-29.07-23.868
			l-29.988-23.256c-4.896-3.672-9.792-8.262-14.688-13.771c-4.896-5.508-7.344-12.952-7.344-22.338c0-9.384,2.55-17.235,7.65-23.562
			c5.1-6.324,10.302-12.139,15.606-17.442c8.976-6.936,17.544-14.178,25.704-21.726s15.402-16.014,21.726-25.398
			s11.322-19.89,14.994-31.518s5.508-25.194,5.508-40.698c0-14.28-1.734-27.03-5.202-38.25s-7.752-21.114-12.852-29.682
			c-5.1-8.568-10.608-16.014-16.524-22.338c-5.916-6.324-11.322-11.73-16.218-16.218h50.796l47.124-37.944H151.472
			c-11.016,0-22.44,0.612-34.272,1.836s-23.868,3.468-36.108,6.732c-12.24,3.264-24.582,8.058-37.026,14.382
			S19.484,92.411,7.652,102.203c-0.816,0.816-1.632,1.53-2.448,2.142s-1.632,1.326-2.448,2.142v-91.8
			c0-4.08,1.428-7.548,4.284-10.404S13.364,0,17.444,0h544.68c4.08,0,7.548,1.428,10.404,4.284
			c2.854,2.856,4.281,6.324,4.281,10.404v146.88H470.936V55.081h-45.9v106.49H319.16v44.064h105.876v107.1h45.899v-107.1H470.936z
			 M164.936,459.003c15.912,11.424,30.498,21.624,43.758,30.6c13.26,8.979,24.786,17.646,34.578,26.01
			c9.792,8.364,17.442,16.935,22.95,25.704c5.508,8.772,8.262,18.462,8.262,29.07c0,2.04-0.102,3.774-0.306,5.202
			c-0.204,1.428-0.51,2.754-0.918,3.978H17.444c-4.08,0-7.548-1.428-10.404-4.281c-2.856-2.857-4.284-6.325-4.284-10.405v-57.528
			c8.976-10.605,18.972-18.768,29.988-24.479c11.016-5.712,19.38-9.588,25.092-11.628c8.568-2.856,17.646-5.202,27.234-7.038
			s18.564-3.162,26.928-3.979c8.364-0.813,15.606-1.428,21.726-1.836s10.2-0.61,12.24-0.61h10.098
			C156.062,457.778,159.02,458.187,164.936,459.003z M213.284,238.071c0,6.12-1.632,14.28-4.896,24.48s-8.976,19.992-17.136,29.376
			c-6.936,8.16-15.402,13.668-25.398,16.523c-9.996,2.854-20.298,4.282-30.906,4.282c-17.952,0-33.252-4.59-45.9-13.77
			s-23.052-20.808-31.212-34.884s-14.178-29.172-18.054-45.288s-5.814-31.314-5.814-45.594c0-10.608,0.918-21.318,2.754-32.13
			c1.836-10.812,6.426-20.706,13.77-29.682c6.936-8.16,15.708-14.79,26.316-19.89s21.216-7.65,31.824-7.65
			c17.544,0,32.844,5.202,45.9,15.606s23.97,23.358,32.742,38.862s15.3,32.232,19.584,50.184
			C211.142,206.451,213.284,222.975,213.284,238.071z M111.692,377.606c0,13.059,2.754,23.868,8.262,32.438
			c5.508,8.565,11.118,16.728,16.83,24.479c-8.16,0.408-17.85,0.612-29.07,0.612s-23.052,0.714-35.496,2.142
			c-12.444,1.431-24.684,3.774-36.72,7.038c-12.036,3.267-22.95,8.568-32.742,15.912V314.57
			c11.424,8.979,24.684,16.524,39.78,22.646c15.096,6.12,32.028,9.18,50.796,9.18c8.16,0,16.932-0.609,26.316-1.836
			c-2.04,5.306-3.876,10.302-5.508,14.994C112.508,364.245,111.692,370.263,111.692,377.606z"/>
	</g>
</g>
<g>
</g>
<g>
</g>
<g>
</g>
<g>
</g>
<g>
</g>
<g>
</g>
<g>
</g>
<g>
</g>
<g>
</g>
<g>
</g>
<g>
</g>
<g>
</g>
<g>
</g>
<g>
</g>
<g>
</g>
</svg>
