<?xml version="1.0" encoding="iso-8859-1"?>
<!-- Generator: Adobe Illustrator 18.1.1, SVG Export Plug-In . SVG Version: 6.00 Build 0)  -->
<svg version="1.1" id="Capa_1" xmlns="http://www.w3.org/2000/svg" xmlns:xlink="http://www.w3.org/1999/xlink" x="0px" y="0px"
	 viewBox="0 0 612 612" style="enable-background:new 0 0 612 612;" xml:space="preserve">
<g>
	<g>
		<path style="fill:#010002;" d="M306,612c-28.152,0-55.284-3.672-81.396-11.016c-26.112-7.347-50.49-17.646-73.134-30.906
			s-43.248-29.172-61.812-47.736c-18.564-18.562-34.476-39.168-47.736-61.812c-13.26-22.646-23.562-47.022-30.906-73.135
			C3.672,361.284,0,334.152,0,306s3.672-55.284,11.016-81.396s17.646-50.49,30.906-73.134s29.172-43.248,47.736-61.812
			s39.168-34.476,61.812-47.736s47.022-23.562,73.134-30.906S277.848,0,306,0c42.024,0,81.702,8.058,119.034,24.174
			s69.768,37.944,97.308,65.484s49.368,59.976,65.484,97.308S612,263.976,612,306c0,28.152-3.672,55.284-11.016,81.396
			c-7.347,26.109-17.646,50.487-30.906,73.134c-13.26,22.644-29.172,43.248-47.736,61.812
			c-18.562,18.564-39.168,34.479-61.812,47.736c-22.646,13.26-47.022,23.562-73.136,30.906C361.284,608.328,334.152,612,306,612z
			 M270.504,373.32c4.896-0.816,8.568-3.063,11.016-6.732l33.048-52.02l23.256,48.96c2.448,5.304,6.729,7.956,12.852,7.956
			c6.12,0.813,10.608-1.635,13.464-7.347l57.528-100.979c2.04-3.264,2.448-6.936,1.224-11.016s-3.468-7.14-6.729-9.18
			c-3.672-2.04-7.446-2.448-11.322-1.224c-3.876,1.224-6.834,3.468-8.874,6.732l-43.452,76.5l-22.644-47.736
			c-2.04-4.896-6.12-7.752-12.24-8.568c-6.12,0-10.606,2.448-13.464,7.344l-37.944,58.75l-17.136-17.136
			c-2.856-2.854-6.12-4.284-9.792-4.284s-7.14,1.021-10.404,3.063l-35.496,29.985c-3.264,2.448-5.1,5.712-5.508,9.792
			c-0.408,4.08,0.816,7.752,3.672,11.019c2.448,3.264,5.712,5.1,9.792,5.508s7.752-0.816,11.016-3.672l25.092-20.811l20.808,20.811
			c3.672,2.854,7.14,4.284,10.404,4.284L270.504,373.32L270.504,373.32z M452.88,433.908c5.712,0,10.608-2.04,14.688-6.12
			s6.117-8.978,6.117-14.688V198.9c0-5.712-2.037-10.608-6.117-14.688s-8.979-6.12-14.688-6.12H156.06
			c-5.712,0-10.608,2.04-14.688,6.12s-6.12,8.976-6.12,14.688v214.2c0,5.715,2.04,10.608,6.12,14.688s8.976,6.12,14.688,6.12
			L452.88,433.908L452.88,433.908z M432.072,392.292H176.868V219.708h255.204V392.292z"/>
	</g>
</g>
<g>
</g>
<g>
</g>
<g>
</g>
<g>
</g>
<g>
</g>
<g>
</g>
<g>
</g>
<g>
</g>
<g>
</g>
<g>
</g>
<g>
</g>
<g>
</g>
<g>
</g>
<g>
</g>
<g>
</g>
</svg>
