<?xml version="1.0" encoding="iso-8859-1"?>
<!-- Generator: Adobe Illustrator 18.1.1, SVG Export Plug-In . SVG Version: 6.00 Build 0)  -->
<svg version="1.1" id="Capa_1" xmlns="http://www.w3.org/2000/svg" xmlns:xlink="http://www.w3.org/1999/xlink" x="0px" y="0px"
	 viewBox="0 0 612.003 612.003" style="enable-background:new 0 0 612.003 612.003;" xml:space="preserve">
<g>
	<g>
		<path style="fill:#010002;" d="M191.556,162.794c-2.448-3.672-2.652-7.14-0.612-10.404c2.04-4.08,5.1-6.12,9.18-6.12h49.572
			V12.854c0-2.856,1.02-5.202,3.06-7.038s4.488-2.754,7.344-2.754h91.8c6.936,0,10.401,3.264,10.401,9.792V146.27h49.572
			c4.08,0,7.14,1.836,9.18,5.508c2.04,4.08,1.836,7.752-0.609,11.016L314.568,311.51c-2.04,2.854-4.692,4.281-7.957,4.281
			c-3.672,0-6.528-1.428-8.568-4.281L191.556,162.794L191.556,162.794z M574.056,314.57c10.608,0,19.584,3.774,26.931,11.322
			c7.344,7.548,11.016,16.626,11.016,27.231v217.873c0,10.608-3.672,19.584-11.016,26.931c-7.347,7.343-16.322,11.015-26.931,11.015
			H37.944c-10.608,0-19.584-3.672-26.928-11.016S0,581.606,0,570.997V353.125c0-10.605,3.672-19.686,11.016-27.231
			c7.344-7.548,16.32-11.322,26.928-11.322h135.864c8.568,0,16.218,2.448,22.95,7.344s11.322,11.427,13.77,19.584
			c6.936,20.811,19.074,37.641,36.414,50.49c17.34,12.854,37.026,19.278,59.058,19.278s41.82-6.426,59.364-19.278
			c17.544-12.852,29.784-29.682,36.72-50.49c2.448-8.157,7.038-14.688,13.77-19.584s14.181-7.344,22.341-7.344L574.056,314.57
			L574.056,314.57z"/>
	</g>
</g>
<g>
</g>
<g>
</g>
<g>
</g>
<g>
</g>
<g>
</g>
<g>
</g>
<g>
</g>
<g>
</g>
<g>
</g>
<g>
</g>
<g>
</g>
<g>
</g>
<g>
</g>
<g>
</g>
<g>
</g>
</svg>
