<?xml version="1.0" encoding="iso-8859-1"?>
<!-- Generator: Adobe Illustrator 18.1.1, SVG Export Plug-In . SVG Version: 6.00 Build 0)  -->
<svg version="1.1" id="Capa_1" xmlns="http://www.w3.org/2000/svg" xmlns:xlink="http://www.w3.org/1999/xlink" x="0px" y="0px"
	 viewBox="0 0 544.68 544.68" style="enable-background:new 0 0 544.68 544.68;" xml:space="preserve">
<g>
	<g>
		<path style="fill:#010002;" d="M477.972,79.56H66.708v283.967h411.264L477.972,79.56L477.972,79.56z M33.048,532.439
			c-9.384,0-17.238-3.264-23.562-9.791C3.162,516.122,0,508.166,0,498.783V45.902c0-9.384,3.162-17.34,9.486-23.868
			s14.178-9.792,23.562-9.792h478.584c9.384,0,17.238,3.264,23.562,9.792c6.324,6.528,9.486,14.484,9.486,23.868v452.879
			c0,9.383-3.162,17.34-9.486,23.865c-6.321,6.527-14.178,9.791-23.562,9.791L33.048,532.439L33.048,532.439z"/>
	</g>
</g>
<g>
</g>
<g>
</g>
<g>
</g>
<g>
</g>
<g>
</g>
<g>
</g>
<g>
</g>
<g>
</g>
<g>
</g>
<g>
</g>
<g>
</g>
<g>
</g>
<g>
</g>
<g>
</g>
<g>
</g>
</svg>
