<?xml version="1.0" encoding="iso-8859-1"?>
<!-- Generator: Adobe Illustrator 18.1.1, SVG Export Plug-In . SVG Version: 6.00 Build 0)  -->
<svg version="1.1" id="Capa_1" xmlns="http://www.w3.org/2000/svg" xmlns:xlink="http://www.w3.org/1999/xlink" x="0px" y="0px"
	 viewBox="0 0 535.499 535.499" style="enable-background:new 0 0 535.499 535.499;" xml:space="preserve">
<g>
	<g>
		<path style="fill:#010002;" d="M382.5,174.421c0-5.712-2.143-10.71-6.426-14.994c-4.285-4.284-9.486-6.426-15.605-6.426H175.032
			c-6.12,0-11.322,2.142-15.606,6.426S153,168.709,153,174.421V360.47c0,6.117,2.142,11.318,6.426,15.604
			c4.284,4.283,9.486,6.426,15.606,6.426h185.435c6.121,0,11.322-2.143,15.607-6.426c4.283-4.285,6.426-9.486,6.426-15.604
			L382.5,174.421L382.5,174.421z M267.444,0.001c37.128,0,71.91,7.038,104.345,21.114c32.439,14.076,60.793,33.15,85.068,57.222
			c24.275,24.072,43.453,52.326,57.529,84.762c14.074,32.436,21.113,67.218,21.113,104.346s-7.039,71.91-21.111,104.345
			c-14.076,32.439-33.256,60.793-57.529,85.068c-24.275,24.277-52.631,43.453-85.068,57.529
			c-32.436,14.072-67.217,21.111-104.345,21.111c-36.72,0-71.4-7.039-104.04-21.111c-32.64-14.076-60.996-33.252-85.068-57.529
			c-24.072-24.275-43.146-52.631-57.222-85.068C7.038,339.355,0,304.573,0,267.445s7.038-71.91,21.114-104.346
			s33.15-60.69,57.222-84.762s52.428-43.146,85.068-57.222S230.724,0.001,267.444,0.001z M329.256,195.229
			c3.266,0,5.916,1.02,7.955,3.06c2.041,2.04,3.063,4.692,3.063,7.956v122.401c0,3.264-1.021,5.916-3.063,7.955
			c-2.041,2.041-4.689,3.061-7.955,3.061H206.244c-3.264,0-5.916-1.02-7.956-3.061c-2.04-2.039-3.06-4.691-3.06-7.955V206.245
			c0-3.264,1.02-5.916,3.06-7.956s4.692-3.06,7.956-3.06H329.256L329.256,195.229z"/>
	</g>
</g>
<g>
</g>
<g>
</g>
<g>
</g>
<g>
</g>
<g>
</g>
<g>
</g>
<g>
</g>
<g>
</g>
<g>
</g>
<g>
</g>
<g>
</g>
<g>
</g>
<g>
</g>
<g>
</g>
<g>
</g>
</svg>
