<?xml version="1.0" encoding="iso-8859-1"?>
<!-- Generator: Adobe Illustrator 18.1.1, SVG Export Plug-In . SVG Version: 6.00 Build 0)  -->
<svg version="1.1" id="Capa_1" xmlns="http://www.w3.org/2000/svg" xmlns:xlink="http://www.w3.org/1999/xlink" x="0px" y="0px"
	 viewBox="0 0 558.14 558.14" style="enable-background:new 0 0 558.14 558.14;" xml:space="preserve">
<g>
	<g>
		<path style="fill:#010002;" d="M548.965,247.247c-6.121-6.324-13.465-9.486-22.033-9.486H301.104
			c-4.488-16.32-11.424-31.518-20.807-45.594c-9.385-14.076-20.503-26.214-33.355-36.414c-12.852-10.2-27.336-18.156-43.452-23.868
			c-16.116-5.712-32.946-8.568-50.49-8.568c-21.216,0-41.106,3.978-59.67,11.934s-34.782,18.87-48.654,32.742
			s-24.786,30.09-32.742,48.654S0,255.101,0,276.317s3.978,41.104,11.934,59.67c7.956,18.564,18.87,34.782,32.742,48.654
			c13.872,13.871,30.092,24.784,48.656,32.74s38.454,11.937,59.67,11.937c18.768,0,36.618-3.264,53.55-9.792
			s32.028-15.402,45.288-26.622c13.26-11.22,24.378-24.582,33.353-40.086c8.979-15.504,15.098-32.233,18.361-50.187h58.752v63.036
			c0,8.568,3.162,15.912,9.486,22.032c6.32,6.12,13.973,9.18,22.947,9.18c8.977,0,16.625-3.06,22.949-9.18
			s9.486-13.464,9.486-22.032V302.63h30.6v100.98c0,8.568,3.162,15.912,9.486,22.032s13.973,9.18,22.951,9.18
			c8.975,0,16.625-3.06,22.949-9.18c6.322-6.12,9.484-13.464,9.484-22.032V302.63h4.283c8.568,0,15.912-3.159,22.033-9.483
			c6.119-6.324,9.18-13.974,9.18-22.95S555.084,253.571,548.965,247.247z M228.582,308.447
			c-4.284,9.996-10.098,18.767-17.442,26.316c-7.344,7.548-16.014,13.464-26.01,17.747c-9.996,4.282-20.706,6.427-32.13,6.427
			c-11.424,0-22.134-2.144-32.13-6.427s-18.768-10.199-26.316-17.747c-7.548-7.55-13.464-16.32-17.748-26.316
			s-6.426-20.706-6.426-32.13s2.142-22.134,6.426-32.13c4.284-9.996,10.2-18.666,17.748-26.01s16.32-13.158,26.316-17.442
			s20.706-6.426,32.13-6.426c11.424,0,22.134,2.142,32.13,6.426s18.666,10.098,26.01,17.442s13.158,16.014,17.442,26.01
			s6.426,20.706,6.426,32.13S232.866,298.451,228.582,308.447z"/>
	</g>
</g>
<g>
</g>
<g>
</g>
<g>
</g>
<g>
</g>
<g>
</g>
<g>
</g>
<g>
</g>
<g>
</g>
<g>
</g>
<g>
</g>
<g>
</g>
<g>
</g>
<g>
</g>
<g>
</g>
<g>
</g>
</svg>
