<?xml version="1.0" encoding="iso-8859-1"?>
<!-- Generator: Adobe Illustrator 18.1.1, SVG Export Plug-In . SVG Version: 6.00 Build 0)  -->
<svg version="1.1" id="Capa_1" xmlns="http://www.w3.org/2000/svg" xmlns:xlink="http://www.w3.org/1999/xlink" x="0px" y="0px"
	 viewBox="0 0 612 612" style="enable-background:new 0 0 612 612;" xml:space="preserve">
<g>
	<g>
		<path style="fill:#010002;" d="M493.272,394.128c0-2.448-0.921-4.59-2.757-6.426s-3.978-2.754-6.426-2.754H127.908
			c-2.448,0-4.59,0.918-6.426,2.754s-2.754,3.978-2.754,6.426v21.42c0,2.856,0.816,4.896,2.448,6.12l12.852,14.076
			c2.04,2.04,4.284,3.06,6.732,3.06h329.256c2.448,0,4.692-1.02,6.732-3.06l13.464-13.464c2.04-2.04,3.063-4.284,3.063-6.732
			L493.272,394.128L493.272,394.128z M157.284,350.064c0,4.896,1.836,9.18,5.508,12.852s7.956,5.508,12.852,5.508h260.712
			c4.896,0,9.075-1.836,12.546-5.508c3.468-3.672,5.199-7.956,5.199-12.852V190.332c0-4.896-1.731-9.078-5.199-12.546
			c-3.471-3.468-7.65-5.202-12.546-5.202H175.644c-4.896,0-9.18,1.734-12.852,5.202s-5.508,7.65-5.508,12.546V350.064z M306,0
			c42.024,0,81.702,8.058,119.034,24.174s69.768,37.944,97.308,65.484s49.368,59.976,65.484,97.308S612,263.976,612,306
			c0,28.152-3.672,55.284-11.016,81.396c-7.347,26.109-17.646,50.487-30.906,73.134c-13.26,22.644-29.172,43.248-47.736,61.812
			c-18.562,18.564-39.168,34.479-61.812,47.736c-22.646,13.26-47.022,23.562-73.136,30.906C361.284,608.328,334.152,612,306,612
			s-55.284-3.672-81.396-11.016c-26.112-7.347-50.49-17.646-73.134-30.906s-43.248-29.172-61.812-47.736
			c-18.564-18.562-34.476-39.168-47.736-61.812c-13.26-22.646-23.562-47.022-30.906-73.135C3.672,361.284,0,334.152,0,306
			s3.672-55.284,11.016-81.396s17.646-50.49,30.906-73.134s29.172-43.248,47.736-61.812s39.168-34.476,61.812-47.736
			s47.022-23.562,73.134-30.906S277.848,0,306,0z M338.436,396.576c0.816,0,1.227,1.632,1.227,4.896v20.81
			c0,3.264-0.408,4.896-1.227,4.896h-64.872c-1.224,0-1.836-1.632-1.836-4.896v-20.811c0-3.264,0.612-4.896,1.836-4.896
			L338.436,396.576L338.436,396.576z M417.996,332.316H193.392V208.691h224.604V332.316z"/>
	</g>
</g>
<g>
</g>
<g>
</g>
<g>
</g>
<g>
</g>
<g>
</g>
<g>
</g>
<g>
</g>
<g>
</g>
<g>
</g>
<g>
</g>
<g>
</g>
<g>
</g>
<g>
</g>
<g>
</g>
<g>
</g>
</svg>
