<?xml version="1.0" encoding="iso-8859-1"?>
<!-- Generator: Adobe Illustrator 18.1.1, SVG Export Plug-In . SVG Version: 6.00 Build 0)  -->
<svg version="1.1" id="Capa_1" xmlns="http://www.w3.org/2000/svg" xmlns:xlink="http://www.w3.org/1999/xlink" x="0px" y="0px"
	 viewBox="0 0 566.715 566.715" style="enable-background:new 0 0 566.715 566.715;" xml:space="preserve">
<g>
	<g>
		<path style="fill:#010002;" d="M496.949,215.424h0.609c-0.408,0.816-0.609,2.448-0.609,4.896v3.06
			c-0.408,6.12-1.021,12.342-1.836,18.666c-0.816,6.324-1.84,12.546-3.063,18.666c-1.633,8.16-5.813,19.788-12.547,34.884
			c-6.732,15.099-15.096,31.824-25.092,50.187s-20.705,37.332-32.129,56.916c-11.428,19.584-22.441,37.74-33.051,54.468
			c-10.605,16.729-20.094,31.11-28.459,43.146c-8.361,12.033-14.178,19.89-17.439,23.562c-5.303,5.304-11.018,10.506-17.135,15.606
			c-6.121,5.1-12.037,9.688-17.748,13.77c-5.713,4.082-10.914,7.344-15.607,9.792c-4.689,2.448-7.853,3.672-9.486,3.672
			c-2.038,0-5.304-1.224-9.792-3.672s-9.69-5.812-15.606-10.098s-11.934-8.979-18.054-14.076
			c-6.12-5.098-11.628-10.098-16.524-14.994c-3.264-3.264-8.976-10.914-17.136-22.95c-8.16-12.035-17.544-26.418-28.152-43.146
			c-10.608-16.729-21.726-34.884-33.354-54.468s-22.338-38.658-32.13-57.225c-9.792-18.562-18.258-35.394-25.398-50.49
			c-7.14-15.096-11.322-26.724-12.546-34.883c-1.224-6.12-2.244-12.342-3.06-18.666c-0.816-6.324-1.428-12.546-1.836-18.666v-3.06
			c0-0.816-0.102-1.632-0.306-2.448s-0.305-1.633-0.305-2.449v-0.612c0-29.376,5.61-57.12,16.83-83.232s26.418-48.858,45.594-68.238
			s41.82-34.782,67.932-46.206C225.626,5.712,253.37,0,282.746,0h0.609h0.612c29.375,0,57.12,5.712,83.233,17.136
			c26.109,11.424,48.756,26.826,67.932,46.206s34.373,42.126,45.594,68.238c11.223,26.112,16.83,53.856,16.83,83.232
			C497.152,214.812,496.949,215.016,496.949,215.424z M369.041,212.364c0-11.832-2.244-23.052-6.732-33.66
			s-10.605-19.788-18.357-27.54c-7.754-7.752-16.936-13.872-27.541-18.36c-10.607-4.488-21.828-6.732-33.66-6.732
			s-23.052,2.244-33.66,6.732s-19.788,10.608-27.54,18.36s-13.872,16.932-18.36,27.54s-6.732,21.828-6.732,33.66
			s2.244,23.052,6.732,33.66c4.488,10.608,10.608,19.89,18.36,27.846s16.932,14.178,27.54,18.666s21.828,6.732,33.66,6.732
			s23.052-2.244,33.66-6.732c10.605-4.488,19.787-10.71,27.541-18.666c7.752-7.956,13.869-17.238,18.357-27.846
			S369.041,224.196,369.041,212.364z"/>
	</g>
</g>
<g>
</g>
<g>
</g>
<g>
</g>
<g>
</g>
<g>
</g>
<g>
</g>
<g>
</g>
<g>
</g>
<g>
</g>
<g>
</g>
<g>
</g>
<g>
</g>
<g>
</g>
<g>
</g>
<g>
</g>
</svg>
