<?xml version="1.0" encoding="iso-8859-1"?>
<!-- Generator: Adobe Illustrator 18.1.1, SVG Export Plug-In . SVG Version: 6.00 Build 0)  -->
<svg version="1.1" id="Capa_1" xmlns="http://www.w3.org/2000/svg" xmlns:xlink="http://www.w3.org/1999/xlink" x="0px" y="0px"
	 viewBox="0 0 589.968 589.968" style="enable-background:new 0 0 589.968 589.968;" xml:space="preserve">
<g>
	<g>
		<path style="fill:#010002;" d="M235.62,411.875c8.16-0.813,14.484-4.689,18.972-11.628l58.141-90.573l40.391,85.065
			c2.041,4.488,5.104,8.061,9.184,10.71c4.08,2.652,8.564,3.979,13.463,3.979c10.201,0.813,17.953-3.471,23.256-12.854
			L499.396,220.93c3.264-6.528,3.977-13.26,2.141-20.196s-5.811-12.036-11.934-15.3c-6.119-3.672-12.648-4.59-19.584-2.754
			c-6.938,1.836-12.24,6.018-15.912,12.546l-75.275,132.19l-39.168-82.007c-4.08-9.384-11.221-14.484-21.42-15.3
			c-4.896-0.408-9.385,0.51-13.465,2.754s-7.547,5.406-10.403,9.486L228.28,345.163l-29.988-29.986
			c-4.488-4.488-10.098-6.938-16.83-7.346c-6.732-0.406-12.75,1.43-18.054,5.51l-61.812,51.406
			c-5.712,4.487-8.874,10.304-9.486,17.441c-0.612,7.141,1.326,13.566,5.814,19.278s10.302,8.771,17.442,9.18
			s13.566-1.632,19.278-6.12l44.064-36.105l36.108,36.105c4.08,4.896,9.996,7.344,17.748,7.344L235.62,411.875L235.62,411.875z
			 M517.141,144.432H72.828v301.104h444.313V144.432z M36.108,518.364c-9.792,0-18.258-3.57-25.398-10.71
			C3.57,500.514,0,491.844,0,481.644v-373.32c0-10.2,3.57-18.87,10.71-26.01s15.606-10.71,25.398-10.71h517.751
			c9.793,0,18.258,3.57,25.398,10.71c7.141,7.14,10.711,15.81,10.711,26.01v373.32c0,10.2-3.57,18.87-10.711,26.01
			c-7.143,7.141-15.605,10.71-25.398,10.71H36.108L36.108,518.364z"/>
	</g>
</g>
<g>
</g>
<g>
</g>
<g>
</g>
<g>
</g>
<g>
</g>
<g>
</g>
<g>
</g>
<g>
</g>
<g>
</g>
<g>
</g>
<g>
</g>
<g>
</g>
<g>
</g>
<g>
</g>
<g>
</g>
</svg>
