<?xml version="1.0" encoding="iso-8859-1"?>
<!-- Generator: Adobe Illustrator 18.1.1, SVG Export Plug-In . SVG Version: 6.00 Build 0)  -->
<svg version="1.1" id="Capa_1" xmlns="http://www.w3.org/2000/svg" xmlns:xlink="http://www.w3.org/1999/xlink" x="0px" y="0px"
	 viewBox="0 0 612 612" style="enable-background:new 0 0 612 612;" xml:space="preserve">
<g>
	<g>
		<path style="fill:#010002;" d="M167.076,214.2v186.048h275.397V214.2H167.076z M317.628,339.66l-53.856,31.212v-62.424v-62.424
			l53.856,31.212l53.856,31.212L317.628,339.66z M587.826,186.966c-16.116-37.332-37.944-69.768-65.484-97.308
			s-59.976-49.368-97.308-65.484S348.024,0,306,0c-28.152,0-55.284,3.672-81.396,11.016s-50.49,17.646-73.134,30.906
			s-43.248,29.172-61.812,47.736s-34.476,39.168-47.736,61.812c-13.26,22.646-23.562,47.022-30.906,73.134
			C3.672,250.716,0,277.848,0,306s3.672,55.284,11.016,81.396c7.344,26.11,17.646,50.487,30.906,73.134
			c13.26,22.644,29.172,43.249,47.736,61.812c18.564,18.564,39.168,34.478,61.812,47.736c22.644,13.26,47.022,23.561,73.134,30.906
			C250.716,608.328,277.848,612,306,612s55.284-3.672,81.396-11.016c26.111-7.346,50.488-17.646,73.135-30.906
			c22.644-13.259,43.249-29.172,61.812-47.736c18.564-18.563,34.478-39.168,47.736-61.812c13.26-22.646,23.561-47.023,30.906-73.135
			C608.328,361.284,612,334.152,612,306C612,263.976,603.942,224.298,587.826,186.966z M487.153,422.892
			c0,6.12-2.145,11.322-6.429,15.606c-4.281,4.284-9.688,6.426-16.218,6.426H145.044c-6.12,0-11.424-2.142-15.912-6.426
			c-4.488-4.284-6.732-9.486-6.732-15.606V191.557c0-6.12,2.244-11.424,6.732-15.912c4.488-4.488,9.792-6.732,15.912-6.732h319.464
			c6.529,0,11.937,2.244,16.218,6.732c4.284,4.488,6.429,9.792,6.429,15.912L487.153,422.892L487.153,422.892z"/>
	</g>
</g>
<g>
</g>
<g>
</g>
<g>
</g>
<g>
</g>
<g>
</g>
<g>
</g>
<g>
</g>
<g>
</g>
<g>
</g>
<g>
</g>
<g>
</g>
<g>
</g>
<g>
</g>
<g>
</g>
<g>
</g>
</svg>
