<?xml version="1.0" encoding="iso-8859-1"?>
<!-- Generator: Adobe Illustrator 18.1.1, SVG Export Plug-In . SVG Version: 6.00 Build 0)  -->
<svg version="1.1" id="Capa_1" xmlns="http://www.w3.org/2000/svg" xmlns:xlink="http://www.w3.org/1999/xlink" x="0px" y="0px"
	 viewBox="0 0 612 612" style="enable-background:new 0 0 612 612;" xml:space="preserve">
<g>
	<g>
		<path style="fill:#010002;" d="M432.072,287.64c0-3.264-1.227-6.12-3.672-8.568c-2.448-2.448-5.307-3.672-8.568-3.672
			s-6.222,1.224-8.874,3.672c-2.652,2.448-3.978,5.304-3.978,8.568v81.396c-0.816,1.632-2.958,4.284-6.429,7.956
			c-3.468,3.672-9.078,7.344-16.83,11.016s-17.748,6.938-29.985,9.792c-12.24,2.856-27.336,4.284-45.288,4.284
			s-33.252-1.428-45.9-4.284c-12.648-2.854-23.154-6.222-31.518-10.098c-8.364-3.876-14.586-7.65-18.666-11.322
			s-6.528-6.324-7.344-7.956V287.64c0-3.264-1.326-6.12-3.978-8.568s-5.61-3.672-8.874-3.672s-6.12,1.224-8.568,3.672
			s-3.672,5.304-3.672,8.568v82.008c0,4.485,1.938,9.384,5.814,14.688s9.588,10.608,17.136,15.912s17.034,10.098,28.458,14.382
			c11.424,4.284,24.684,7.446,39.78,9.486v44.063h-36.72c-4.08,0-6.12,2.04-6.12,6.12v13.464c0,4.08,2.04,6.12,6.12,6.12h143.208
			c4.078,0,6.118-2.04,6.118-6.12V474.3c0-4.08-2.04-6.12-6.118-6.12h-36.722v-42.84c15.912-2.04,29.58-5.202,41.004-9.486
			c11.427-4.281,20.91-9.18,28.458-14.688c7.55-5.508,13.059-11.016,16.524-16.524c3.468-5.508,5.202-10.506,5.202-14.991
			L432.072,287.64L432.072,287.64z M221.544,352.512c0,1.633,1.632,4.185,4.896,7.65s8.364,6.936,15.3,10.404
			s15.81,6.525,26.622,9.18s23.97,3.978,39.474,3.978s28.563-1.323,39.168-3.978c10.608-2.652,19.074-5.712,25.398-9.18
			c6.321-3.471,10.914-6.938,13.77-10.404c2.856-3.468,4.284-6.021,4.284-7.65v-57.528v-52.02v-94.248
			c0-1.224-1.428-3.468-4.284-6.732c-2.854-3.264-7.548-6.528-14.076-9.792c-1.224-0.816-3.06-1.224-5.508-1.224
			s-3.672,2.652-3.672,7.956v27.54c0,0.816-0.612,2.448-1.836,4.896s-3.468,3.672-6.732,3.672s-5.508-1.224-6.729-3.672
			c-1.227-2.448-1.836-4.08-1.836-4.896v-34.272c0-4.896-0.714-7.956-2.145-9.18c-1.428-1.224-2.55-1.836-3.363-1.836
			c-2.856-0.816-5.814-1.428-8.874-1.836c-3.063-0.408-6.225-0.612-9.486-0.612c-2.448-0.408-4.284,0.306-5.508,2.142
			c-1.227,1.836-1.836,5.61-1.836,11.322v34.272c0,0.816-0.612,2.448-1.836,4.896c-1.227,2.448-3.471,3.672-6.732,3.672
			c-3.264,0-5.508-1.224-6.732-3.672s-1.836-4.08-1.836-4.896v-34.272c0-6.528-0.714-10.506-2.142-11.934
			c-1.428-1.428-3.162-2.142-5.202-2.142c-3.264,0-6.222,0.204-8.874,0.612s-5.202,0.816-7.65,1.224
			c-1.224,0.408-2.754,1.122-4.59,2.142c-1.836,1.021-2.754,4.386-2.754,10.098v34.272c0,0.816-0.612,2.448-1.836,4.896
			s-3.468,3.672-6.732,3.672s-5.508-1.224-6.732-3.672s-1.836-4.08-1.836-4.896V137.7c0-5.304-1.428-7.752-4.284-7.344
			s-5.1,1.02-6.732,1.836c-5.712,3.264-9.894,6.528-12.546,9.792c-2.652,3.264-3.978,5.508-3.978,6.732v94.248v52.02
			L221.544,352.512L221.544,352.512z M306,0c42.024,0,81.702,8.058,119.034,24.174s69.768,37.944,97.308,65.484
			s49.368,59.976,65.484,97.308S612,263.976,612,306c0,28.152-3.672,55.284-11.016,81.396
			c-7.347,26.109-17.646,50.487-30.906,73.134c-13.26,22.644-29.172,43.248-47.736,61.812
			c-18.562,18.564-39.168,34.479-61.812,47.736c-22.646,13.26-47.022,23.562-73.136,30.906C361.284,608.328,334.152,612,306,612
			s-55.284-3.672-81.396-11.016c-26.112-7.347-50.49-17.646-73.134-30.906s-43.248-29.172-61.812-47.736
			c-18.564-18.562-34.476-39.168-47.736-61.812c-13.26-22.646-23.562-47.022-30.906-73.135C3.672,361.284,0,334.152,0,306
			s3.672-55.284,11.016-81.396s17.646-50.49,30.906-73.134s29.172-43.248,47.736-61.812s39.168-34.476,61.812-47.736
			s47.022-23.562,73.134-30.906S277.848,0,306,0z"/>
	</g>
</g>
<g>
</g>
<g>
</g>
<g>
</g>
<g>
</g>
<g>
</g>
<g>
</g>
<g>
</g>
<g>
</g>
<g>
</g>
<g>
</g>
<g>
</g>
<g>
</g>
<g>
</g>
<g>
</g>
<g>
</g>
</svg>
