<?xml version="1.0" encoding="iso-8859-1"?>
<!-- Generator: Adobe Illustrator 18.1.1, SVG Export Plug-In . SVG Version: 6.00 Build 0)  -->
<svg version="1.1" id="Capa_1" xmlns="http://www.w3.org/2000/svg" xmlns:xlink="http://www.w3.org/1999/xlink" x="0px" y="0px"
	 viewBox="0 0 560.593 560.593" style="enable-background:new 0 0 560.593 560.593;" xml:space="preserve">
<g>
	<g>
		<path style="fill:#010002;" d="M364.751,30.601c0-3.672,0.51-6.426,1.53-8.262s2.346-2.856,3.978-3.06s3.264-0.102,4.896,0.306
			s2.854,0.816,3.672,1.224c9.384,5.304,16.218,10.302,20.502,14.994c4.284,4.692,6.426,8.058,6.426,10.098v140.76v77.112v85.68
			c0,2.446-2.04,6.222-6.12,11.319c-4.08,5.103-10.914,10.2-20.502,15.303c-9.588,5.1-22.236,9.688-37.944,13.77
			s-34.983,6.12-57.834,6.12c-23.253,0-42.939-2.04-59.058-6.12c-16.119-4.08-29.376-8.67-39.78-13.77
			c-10.404-5.103-17.952-10.2-22.644-15.303c-4.692-5.1-7.038-8.872-7.038-11.319v-85.68v-77.112V45.901
			c0-2.04,1.938-5.406,5.814-10.098c3.876-4.692,10.098-9.69,18.666-14.994c1.224-0.408,2.754-1.02,4.59-1.836
			s3.672-1.02,5.508-0.612s3.366,1.428,4.59,3.06s1.836,4.284,1.836,7.956v43.452c0,1.224,0.918,3.57,2.754,7.038
			c1.836,3.468,4.998,5.202,9.486,5.202s7.752-1.734,9.792-5.202c2.04-3.468,3.06-5.814,3.06-7.038V20.808
			c0-8.16,1.326-13.056,3.978-14.688c2.652-1.632,4.998-2.652,7.038-3.06c4.08-0.816,7.956-1.53,11.628-2.142S251.531,0,256.427,0
			c2.856,0,5.406,1.122,7.65,3.366c2.244,2.244,3.366,8.058,3.366,17.442v52.021c0,1.224,1.02,3.57,3.06,7.038
			c2.04,3.468,5.304,5.202,9.792,5.202s7.752-1.734,9.792-5.202c2.04-3.468,3.06-5.814,3.06-7.038V20.808
			c0-8.568,0.918-14.178,2.757-16.83c1.836-2.652,4.386-3.774,7.647-3.366c5.304,0.408,10.2,0.918,14.688,1.53
			c4.485,0.612,8.976,1.326,13.464,2.142c1.224,0.408,2.854,1.53,4.896,3.366s3.063,6.222,3.063,13.158v52.021
			c0,1.224,0.918,3.57,2.754,7.038c1.836,3.468,4.998,5.202,9.483,5.202c4.488,0,7.754-1.734,9.793-5.202s3.062-5.814,3.062-7.038
			L364.751,30.601L364.751,30.601z M283.967,460.837c32.641,0,60.588-3.06,83.844-9.18c23.259-6.12,42.33-13.566,57.225-22.339
			c14.892-8.771,25.806-18.056,32.742-27.848s10.401-18.357,10.401-25.704v-123.01c0-5.304-1.731-9.69-5.202-13.158
			c-3.468-3.468-7.854-5.202-13.155-5.202c-5.307,0-9.69,1.734-13.158,5.202s-5.202,7.854-5.202,13.158v121.176
			c-1.224,2.448-4.59,6.427-10.098,11.937c-5.511,5.508-13.977,11.016-25.398,16.521s-26.316,10.404-44.676,14.688
			s-40.8,6.426-67.32,6.426c-26.52,0-49.266-2.142-68.238-6.426s-34.68-9.282-47.124-14.994s-21.828-11.322-28.152-16.83
			s-10.098-9.486-11.322-11.934V252.757c0-5.304-1.734-9.69-5.202-13.158s-7.854-5.202-13.158-5.202s-9.69,1.734-13.158,5.202
			c-3.468,3.468-5.202,7.854-5.202,13.158v123.012c0,7.752,3.978,16.524,11.934,26.316c7.956,9.792,19.992,19.074,36.108,27.846
			c16.116,8.772,36.108,16.116,59.976,22.032C224.297,457.879,252.143,460.837,283.967,460.837z M332.314,437.581v84.456h54.471
			c6.12,0,9.18,3.06,9.18,9.18v20.196c0,2.448-0.816,4.59-2.448,6.426c-1.632,1.836-3.876,2.754-6.729,2.754h-212.98
			c-2.448,0-4.59-0.918-6.426-2.754c-1.836-1.836-2.754-3.978-2.754-6.426v-20.196c0-2.854,0.918-5.1,2.754-6.729
			c1.836-1.635,3.978-2.448,6.426-2.448h55.08v-84.456L332.314,437.581L332.314,437.581z"/>
	</g>
</g>
<g>
</g>
<g>
</g>
<g>
</g>
<g>
</g>
<g>
</g>
<g>
</g>
<g>
</g>
<g>
</g>
<g>
</g>
<g>
</g>
<g>
</g>
<g>
</g>
<g>
</g>
<g>
</g>
<g>
</g>
</svg>
