<?xml version="1.0" encoding="iso-8859-1"?>
<!-- Generator: Adobe Illustrator 18.1.1, SVG Export Plug-In . SVG Version: 6.00 Build 0)  -->
<svg version="1.1" id="Capa_1" xmlns="http://www.w3.org/2000/svg" xmlns:xlink="http://www.w3.org/1999/xlink" x="0px" y="0px"
	 viewBox="0 0 590.753 590.753" style="enable-background:new 0 0 590.753 590.753;" xml:space="preserve">
<g>
	<g>
		<path style="fill:#010002;" d="M562.992,160.82c-0.816,10.812-2.449,20.502-4.896,29.07c-8.566,30.192-27.336,59.772-56.305,88.74
			L233.124,547.299c-24.888,24.891-50.388,39.169-76.5,42.843c-2.04,0-4.182,0.102-6.426,0.306
			c-2.244,0.203-4.386,0.305-6.426,0.305c-10.608,0-22.44-2.346-35.496-7.038c-13.056-4.689-26.316-13.77-39.78-27.231
			c-8.976-8.979-16.014-17.748-21.114-26.316c-5.1-8.565-8.976-16.83-11.628-24.786c-2.652-7.956-4.284-15.399-4.896-22.338
			c-0.612-6.936-0.51-13.26,0.306-18.972c2.856-26.112,16.116-51.204,39.78-75.276l226.44-226.438
			c15.912-15.912,30.396-26.826,43.451-32.742c13.057-5.916,24.787-8.772,35.191-8.568c10.4,0.204,19.479,2.448,27.23,6.732
			s14.076,8.874,18.973,13.77c6.119,6.12,11.223,13.158,15.303,21.114s6.018,17.136,5.811,27.54
			c-0.205,10.404-3.467,21.828-9.791,34.272s-17.035,26.214-32.131,41.31L192.732,474.472l-40.392-41.005l208.08-208.082
			c8.16-8.16,13.975-14.79,17.443-19.89c3.467-5.1,5.711-9.282,6.729-12.546c1.021-3.264,1.021-5.712,0-7.344
			c-1.02-1.632-1.938-2.856-2.754-3.672c-0.814-0.408-2.039-1.122-3.672-2.142c-1.631-1.02-4.08-1.122-7.344-0.306
			c-3.266,0.816-7.549,2.958-12.854,6.426s-11.832,9.078-19.584,16.83l-226.44,226.441c-4.896,4.896-9.894,11.016-14.994,18.357
			c-5.1,7.347-8.058,15.099-8.874,23.256c-1.632,13.872,5.304,28.971,20.808,45.288c10.2,9.792,18.768,15.198,25.704,16.221
			c6.936,1.02,11.628,1.323,14.076,0.918c13.872-2.04,28.56-11.019,44.064-26.931l268.666-268.667
			c22.033-21.624,35.904-42.636,41.617-63.036c7.752-28.968-2.244-57.324-29.986-85.068c-7.346-7.344-15.813-14.178-25.398-20.502
			c-9.588-6.324-20.502-10.098-32.742-11.322s-25.805,1.224-40.697,7.344c-14.893,6.12-31.313,18.156-49.266,36.108L77.062,349.011
			c-5.712,5.712-12.546,8.565-20.502,8.565s-14.79-2.854-20.502-8.565c-5.712-5.715-8.568-12.445-8.568-20.197
			s2.856-14.484,8.568-20.196l247.86-247.86C322.677,22.406,361.949,2.21,401.728,0.17s77.217,14.28,112.305,48.96
			c13.463,13.464,23.766,26.724,30.902,39.78c7.143,13.056,12.141,25.602,14.994,37.638
			C562.787,138.584,563.806,150.008,562.992,160.82z"/>
	</g>
</g>
<g>
</g>
<g>
</g>
<g>
</g>
<g>
</g>
<g>
</g>
<g>
</g>
<g>
</g>
<g>
</g>
<g>
</g>
<g>
</g>
<g>
</g>
<g>
</g>
<g>
</g>
<g>
</g>
<g>
</g>
</svg>
