<?xml version="1.0" encoding="iso-8859-1"?>
<!-- Generator: Adobe Illustrator 18.1.1, SVG Export Plug-In . SVG Version: 6.00 Build 0)  -->
<svg version="1.1" id="Capa_1" xmlns="http://www.w3.org/2000/svg" xmlns:xlink="http://www.w3.org/1999/xlink" x="0px" y="0px"
	 viewBox="0 0 459.005 459.005" style="enable-background:new 0 0 459.005 459.005;" xml:space="preserve">
<g>
	<g>
		<path style="fill:#010002;" d="M442.478,176.258c0,25.296-4.895,48.246-14.688,68.85c-9.791,20.604-23.766,38.25-41.922,52.938
			s-40.086,26.01-65.789,33.966c-25.705,7.956-54.469,12.138-86.293,12.546v27.54c0,17.136-4.692,32.946-14.076,47.43
			s-21.828,25.194-37.332,32.133c-4.08,2.04-8.976,3.771-14.688,5.199c-5.712,1.431-12.036,2.145-18.972,2.145
			c-6.12,0-12.75-0.816-19.89-2.448s-14.79-4.487-22.95-8.565v-79.563c6.528,4.896,12.75,7.956,18.666,9.18
			c5.916,1.227,11.22,1.122,15.912-0.306s8.466-4.08,11.322-7.956s4.284-8.67,4.284-14.382V134.031h77.724v137.7
			c6.121,0,13.77-0.405,22.951-1.224c9.18-0.816,18.768-2.346,28.764-4.59s19.992-5.508,29.988-9.792s18.971-9.996,26.928-17.137
			c7.955-7.142,14.484-15.812,19.584-26.01c5.1-10.2,7.65-22.44,7.65-36.72c0-19.176-4.08-35.292-12.24-48.348
			s-18.871-23.664-32.131-31.824s-28.254-14.076-44.982-17.748c-16.727-3.672-33.66-5.508-50.795-5.508
			c-17.544,0-34.68,2.04-51.408,6.12s-31.722,10.302-44.982,18.666s-23.868,19.074-31.824,32.13
			c-7.956,13.056-11.934,28.56-11.934,46.512c0,5.712,0.612,11.832,1.836,18.36s2.856,12.852,4.896,18.972s4.386,11.73,7.038,16.83
			c2.652,5.1,5.406,8.874,8.262,11.322l-49.572,53.243c-7.344-6.938-13.872-15.302-19.584-25.094s-10.404-19.991-14.076-30.6
			c-3.672-10.608-6.528-21.42-8.568-32.436c-2.04-11.015-3.06-21.215-3.06-30.599c0-26.112,5.202-49.98,15.606-71.604
			s24.99-40.188,43.758-55.692s41.208-27.54,67.32-36.108S198.087,0,229.503,0c31.825,0,60.792,4.284,86.905,12.852
			c26.109,8.568,48.551,20.502,67.316,35.802c18.771,15.3,33.252,33.864,43.453,55.692
			C437.379,126.176,442.478,150.146,442.478,176.258z"/>
	</g>
</g>
<g>
</g>
<g>
</g>
<g>
</g>
<g>
</g>
<g>
</g>
<g>
</g>
<g>
</g>
<g>
</g>
<g>
</g>
<g>
</g>
<g>
</g>
<g>
</g>
<g>
</g>
<g>
</g>
<g>
</g>
</svg>
