<?xml version="1.0" encoding="iso-8859-1"?>
<!-- Generator: Adobe Illustrator 18.1.1, SVG Export Plug-In . SVG Version: 6.00 Build 0)  -->
<svg version="1.1" id="Capa_1" xmlns="http://www.w3.org/2000/svg" xmlns:xlink="http://www.w3.org/1999/xlink" x="0px" y="0px"
	 viewBox="0 0 566.713 566.713" style="enable-background:new 0 0 566.713 566.713;" xml:space="preserve">
<g>
	<g>
		<path style="fill:#010002;" d="M283.356,0c39.168,0,75.991,7.446,110.465,22.338c34.479,14.892,64.465,35.088,89.965,60.588
			c25.5,25.5,45.695,55.488,60.588,89.964c14.893,34.476,22.338,71.298,22.338,110.466c0,39.167-7.445,75.99-22.34,110.466
			c-14.893,34.479-35.088,64.463-60.588,89.963s-55.486,45.697-89.965,60.588c-34.473,14.893-71.295,22.34-110.463,22.34
			c-14.28,0-28.05-1.021-41.31-3.063c-13.26-2.041-26.214-4.896-38.862-8.568c5.304-8.566,10.608-18.055,15.912-28.459
			c5.304-10.4,9.384-21.111,12.24-32.129c0.816-2.854,2.04-7.752,3.672-14.688c1.632-5.713,3.672-13.566,6.12-23.563
			c2.448-9.996,5.916-23.152,10.404-39.475c4.896,9.385,13.77,17.545,26.622,24.479c12.855,6.938,27.031,10.404,42.535,10.404
			c22.848,0,43.656-4.896,62.424-14.688c18.77-9.793,34.883-23.359,48.348-40.699c13.467-17.34,23.867-37.842,31.215-61.506
			c7.344-23.664,11.016-49.367,11.016-77.112c0-20.808-4.285-41.004-12.852-60.588c-8.568-19.584-20.605-36.924-36.109-52.02
			s-34.373-27.132-56.609-36.108c-22.234-8.976-46.816-13.464-73.746-13.464c-33.864,0-63.443,5.406-88.74,16.218
			c-25.296,10.812-46.308,24.786-63.036,41.922s-29.376,36.21-37.944,57.222c-8.568,21.012-12.852,41.514-12.852,61.506
			c0,24.48,4.692,46.613,14.076,66.402c9.384,19.787,24.072,33.762,44.064,41.922c3.264,1.227,6.222,1.227,8.874,0
			c2.652-1.225,4.386-3.672,5.202-7.344c0.816-2.449,1.734-6.121,2.754-11.016c1.02-4.896,1.938-8.773,2.754-11.629
			c0.816-3.672,1.02-6.428,0.612-8.264s-1.836-4.387-4.284-7.648c-5.712-6.938-10.302-14.789-13.77-23.563
			c-3.468-8.77-5.202-19.479-5.202-32.129c0-17.952,3.264-35.088,9.792-51.408c6.528-16.32,15.81-30.702,27.846-43.146
			c12.036-12.444,26.622-22.338,43.758-29.682s36.516-11.016,58.139-11.016c18.771,0,35.496,2.754,50.188,8.262
			c14.688,5.508,27.131,13.056,37.332,22.644c10.199,9.588,17.85,21.012,22.949,34.272c5.1,13.26,7.648,27.642,7.648,43.146
			c0,20.4-2.143,39.78-6.426,58.139c-4.285,18.361-10.404,34.375-18.361,48.043c-7.955,13.668-17.439,24.48-28.457,32.438
			c-11.016,7.957-23.256,11.934-36.721,11.934c-7.344,0-14.178-1.428-20.502-4.283c-6.324-2.854-11.525-6.73-15.605-11.629
			c-4.08-4.895-7.038-10.709-8.874-17.439c-1.836-6.732-1.734-13.771,0.306-21.113c2.04-8.979,4.488-18.055,7.344-27.234
			s5.61-18.055,8.261-26.623c2.652-8.564,4.896-16.829,6.732-24.785s2.754-15.198,2.754-21.726c0-11.832-3.162-21.93-9.486-30.294
			c-6.323-8.364-16.013-12.546-29.069-12.546c-7.344,0-14.382,1.836-21.114,5.508s-12.546,8.874-17.442,15.606
			s-8.772,14.586-11.628,23.562s-4.284,18.564-4.284,28.764c0,5.304,0.408,10.608,1.224,15.911
			c0.816,4.488,1.734,9.283,2.754,14.385c1.02,5.1,2.754,9.895,5.202,14.383c-8.16,33.047-14.484,59.67-18.972,79.863
			c-4.488,20.195-8.16,35.805-11.016,46.818c-3.264,13.055-5.508,22.439-6.732,28.152c-2.448,10.605-3.978,21.623-4.59,33.047
			s-0.714,22.033-0.306,31.824c-24.888-11.018-47.736-25.297-68.544-42.842s-38.658-37.533-53.55-59.977
			c-14.892-22.439-26.52-46.92-34.884-73.439c-8.367-26.518-12.549-54.262-12.549-83.228c0-39.168,7.446-75.99,22.338-110.466
			s35.088-64.464,60.588-89.964s55.488-45.696,89.964-60.588C207.366,7.446,244.188,0,283.356,0z"/>
	</g>
</g>
<g>
</g>
<g>
</g>
<g>
</g>
<g>
</g>
<g>
</g>
<g>
</g>
<g>
</g>
<g>
</g>
<g>
</g>
<g>
</g>
<g>
</g>
<g>
</g>
<g>
</g>
<g>
</g>
<g>
</g>
</svg>
