<?xml version="1.0" encoding="iso-8859-1"?>
<!-- Generator: Adobe Illustrator 18.1.1, SVG Export Plug-In . SVG Version: 6.00 Build 0)  -->
<svg version="1.1" id="Capa_1" xmlns="http://www.w3.org/2000/svg" xmlns:xlink="http://www.w3.org/1999/xlink" x="0px" y="0px"
	 viewBox="0 0 582.626 582.626" style="enable-background:new 0 0 582.626 582.626;" xml:space="preserve">
<g>
	<g>
		<path style="fill:#010002;" d="M372.709,427.178c2.037-2.041,4.59-3.063,7.646-3.063c3.063,0,5.611,1.021,7.65,3.063
			c2.041,2.041,3.061,4.484,3.061,7.344c0,2.857-1.02,5.303-3.061,7.344c-0.408,0.408-2.553,2.244-6.428,5.508
			c-3.877,3.266-9.793,6.834-17.748,10.709c-7.953,3.879-18.055,7.447-30.295,10.713c-12.236,3.264-26.723,4.896-43.451,4.896
			s-31.008-1.633-42.84-4.896c-11.832-3.266-21.624-6.836-29.376-10.713c-7.752-3.875-13.362-7.443-16.83-10.709
			c-3.468-3.264-5.406-5.1-5.814-5.508c-2.04-2.449-2.958-5.1-2.754-7.957c0.204-2.854,1.53-5.303,3.978-7.344
			c2.04-2.039,4.488-2.854,7.344-2.447c2.856,0.408,5.304,1.631,7.344,3.672l4.59,3.979c0,0,4.692,2.854,14.076,8.568
			c9.384,5.713,17.442,8.467,24.174,8.262c6.732-0.203,18.768,1.02,36.108,3.672s29.682,1.326,37.025-3.979
			c7.346-5.305,15.912-8.158,25.705-8.566c9.791-0.408,14.789-3.264,14.994-8.568L372.709,427.178z M439.416,100.369
			c0-6.936,1.227-13.872,3.674-20.808l4.281,1.224c2.857,0.816,5.104,2.346,6.732,4.59c1.631,2.244,2.041,4.794,1.225,7.65
			c-0.814,3.264-2.445,5.61-4.896,7.038c-2.449,1.428-5.102,1.734-7.955,0.918L439.416,100.369L439.416,100.369z M290.7,196.453
			h10.403c-2.039,3.672-4.895,5.508-8.568,5.508c-1.632,0-2.854-0.204-3.672-0.612c-2.448-0.408-4.284-2.04-5.508-4.896H290.7z
			 M283.356,196.453c-1.632-2.856-1.836-5.712-0.612-8.568l0.612-1.836h7.344h14.688l-3.063,9.18l-1.225,1.224h-10.404H283.356
			L283.356,196.453z M290.7,186.049h-7.344l47.125-133.416l112.607,26.928c-2.447,6.936-3.674,13.872-3.674,20.808l-95.473-22.644
			l-38.554,108.324H290.7L290.7,186.049z M380.053,371.484c-11.832,0-21.729-3.977-29.686-11.934
			c-7.955-7.955-11.934-17.646-11.934-29.07s3.979-21.113,11.934-29.07c7.957-7.955,17.854-11.933,29.686-11.933
			c11.424,0,21.111,3.978,29.066,11.933c7.957,7.957,11.938,17.646,11.938,29.07s-3.98,21.115-11.938,29.07
			C401.162,367.508,391.477,371.484,380.053,371.484z M249.084,330.48c0,11.424-4.08,21.115-12.24,29.07
			c-8.16,7.957-17.952,11.934-29.376,11.934s-21.114-3.977-29.07-11.934c-7.956-7.955-11.934-17.646-11.934-29.07
			s3.978-21.113,11.934-29.07c7.956-7.955,17.646-11.933,29.07-11.933c11.424,0,21.216,3.978,29.376,11.933
			C245.004,309.367,249.084,319.057,249.084,330.48z M468.18,237.457c0.814-0.816,1.428-1.326,1.836-1.53s0.814-0.714,1.225-1.53
			c3.266,2.04,6.324,4.182,9.182,6.426c2.854,2.244,5.713,4.386,8.566,6.426c-2.447,1.632-4.488,3.264-6.121,4.896L468.18,237.457z
			 M537.947,324.973c2.449-1.227,4.693-2.855,6.732-4.896c1.633,3.268,2.854,6.732,3.672,10.404l2.449,11.016
			c-0.408,0.408-0.816,0.717-1.227,0.918c-0.406,0.205-0.814,0.514-1.225,0.918L537.947,324.973L537.947,324.973z M515.305,217.873
			c9.383,0,18.156,1.734,26.313,5.202c8.16,3.468,15.303,8.262,21.42,14.382c6.121,6.12,10.914,13.26,14.385,21.42
			c3.469,8.16,5.203,16.728,5.203,25.704c0,11.831-2.857,22.745-8.568,32.741c-5.713,9.996-13.465,18.057-23.256,24.174
			l-2.449-11.016c0,0-1.223-3.467-3.672-10.404c5.305-4.484,9.486-9.791,12.547-15.912c3.059-6.117,4.59-12.645,4.59-19.582
			c0-12.648-4.488-23.46-13.465-32.436c-8.975-8.976-19.992-13.464-33.047-13.464c-9.385,0-18.156,2.856-26.316,8.568
			c-2.854-2.04-5.713-4.182-8.566-6.426c-2.855-2.244-5.916-4.386-9.182-6.426C484.297,223.381,498.984,217.873,515.305,217.873z
			 M99.756,252.145c-1.224-0.816-2.346-1.734-3.366-2.754s-2.142-1.938-3.366-2.754c6.12-4.488,12.036-8.568,17.748-12.24
			c0.816,0.408,2.04,1.428,3.672,3.06L99.756,252.145L99.756,252.145z M34.272,343.332c-1.632-0.813-2.856-1.631-3.672-2.445
			c0.816-3.672,1.734-7.346,2.754-11.018s2.142-7.141,3.366-10.402c1.224,0.814,2.448,1.732,3.672,2.754
			c1.224,1.02,2.652,1.938,4.284,2.754L34.272,343.332z M20.808,284.581c0,13.464,5.304,25.093,15.912,34.884
			c-1.224,3.264-2.346,6.73-3.366,10.402s-1.938,7.346-2.754,11.018c-9.384-6.119-16.83-14.076-22.338-23.867
			C2.754,307.225,0,296.412,0,284.581c0-8.976,1.734-17.544,5.202-25.704c3.468-8.16,8.262-15.3,14.382-21.42
			s13.158-10.914,21.114-14.382s16.626-5.202,26.01-5.202c17.136,0,31.824,5.508,44.064,16.524
			c-5.712,3.672-11.628,7.752-17.748,12.24c-8.568-5.304-17.34-7.956-26.316-7.956c-12.648,0-23.46,4.488-32.436,13.464
			C25.296,261.121,20.808,271.933,20.808,284.581z M493.885,66.709c-9.387,0-17.34,3.264-23.869,9.792
			c-6.527,6.528-9.791,14.484-9.791,23.868s3.264,17.34,9.791,23.868c6.529,6.528,14.482,9.792,23.869,9.792
			c9.383,0,17.34-3.264,23.867-9.792c6.525-6.528,9.793-14.484,9.793-23.868s-3.268-17.34-9.793-23.868
			C511.225,69.973,503.268,66.709,493.885,66.709z M493.885,154.837c-15.1,0-27.949-5.304-38.559-15.912
			c-10.605-10.608-15.912-23.46-15.912-38.556l3.063,0.612c2.854,0.816,5.508,0.51,7.955-0.918c2.449-1.428,4.08-3.774,4.896-7.038
			c0.816-2.856,0.408-5.406-1.225-7.65c-1.631-2.244-3.875-3.774-6.732-4.59l-4.281-1.224c4.486-10.2,11.221-18.462,20.193-24.786
			c8.979-6.324,19.18-9.486,30.604-9.486c15.504,0,28.559,5.304,39.168,15.912c10.605,10.608,15.912,23.664,15.912,39.168
			c0,15.096-5.307,27.948-15.912,38.556C522.443,149.533,509.389,154.837,493.885,154.837z M550.801,341.496
			c1.223,6.939,1.836,13.668,1.836,20.197c0,24.072-6.834,46.818-20.502,68.238s-32.439,40.086-56.307,55.998
			c-23.865,15.912-51.715,28.457-83.537,37.637s-65.688,13.771-101.591,13.771c-36.312,0-70.278-4.592-101.898-13.771
			c-31.62-9.18-59.364-21.725-83.232-37.637c-23.868-15.912-42.636-34.578-56.304-55.998s-20.502-44.166-20.502-68.238
			c0-3.672,0.204-7.242,0.612-10.711c0.408-3.467,0.816-6.834,1.224-10.098c0.816,0.814,2.04,1.633,3.672,2.447l10.404-18.359
			c-1.632-0.816-3.06-1.734-4.284-2.754c-1.224-1.021-2.448-1.938-3.672-2.754c10.608-27.744,29.376-52.021,56.304-72.828
			c1.224,0.816,2.346,1.734,3.366,2.754s2.142,1.938,3.366,2.754l14.688-14.688c-1.632-1.632-2.856-2.652-3.672-3.06
			c22.848-14.28,48.96-25.704,78.336-34.272s60.792-13.26,94.248-14.076l-0.612,1.836c-1.224,2.856-1.02,5.712,0.612,8.568
			c-33.864,0.816-65.586,5.61-95.166,14.382s-55.386,20.604-77.418,35.496c-22.032,14.892-39.474,32.232-52.326,52.021
			c-12.852,19.787-19.278,40.902-19.278,63.342c0,22.85,6.63,44.27,19.89,64.26c13.26,19.992,31.212,37.535,53.856,52.635
			c22.644,15.096,49.266,26.928,79.866,35.492c30.6,8.568,63.24,12.855,97.92,12.855c34.681,0,67.319-4.285,97.919-12.855
			c30.602-8.564,57.225-20.396,79.865-35.492c22.646-15.1,40.596-32.643,53.857-52.635c13.26-19.99,19.889-41.41,19.889-64.26
			c0-22.438-6.324-43.453-18.971-63.037c-12.648-19.583-29.785-36.821-51.408-51.713c-21.625-14.892-47.125-26.826-76.5-35.802
			c-29.377-8.976-60.793-13.872-94.248-14.688l1.223-1.224l3.063-9.18c32.23,1.224,62.424,6.12,90.576,14.688
			c28.15,8.568,53.244,19.788,75.273,33.66c-0.408,0.816-0.813,1.326-1.223,1.53c-0.408,0.204-1.021,0.714-1.836,1.53l14.688,14.688
			c1.631-1.632,3.672-3.264,6.119-4.896c27.336,21.216,45.9,45.491,55.693,72.827c-2.041,2.041-4.285,3.674-6.732,4.896
			l10.404,18.359c0.408-0.406,0.814-0.715,1.223-0.918C549.984,342.211,550.393,341.904,550.801,341.496z M531.828,361.693
			c0-21.217-6.322-41.311-18.973-60.283c-12.645-18.971-29.885-35.393-51.713-49.265c-21.828-13.872-47.43-24.888-76.807-33.048
			c-29.375-8.16-60.59-12.24-93.636-12.24c-33.048,0-64.26,4.08-93.636,12.24s-54.876,19.176-76.5,33.048
			c-21.624,13.872-38.76,30.294-51.408,49.265c-12.648,18.975-18.972,39.066-18.972,60.283c0,21.215,6.324,41.207,18.972,59.979
			c12.648,18.768,29.784,35.088,51.408,48.959c21.624,13.873,47.124,24.889,76.5,33.049s60.588,12.236,93.636,12.236
			c33.046,0,64.261-4.076,93.636-12.236c29.377-8.16,54.979-19.176,76.807-33.049c21.828-13.871,39.066-30.191,51.713-48.959
			C525.504,402.9,531.828,382.908,531.828,361.693z M292.536,201.961c3.675,0,6.529-1.836,8.568-5.508
			c33.457,0.816,64.873,5.712,94.248,14.688c29.377,8.976,54.877,20.91,76.5,35.802c21.625,14.892,38.76,32.13,51.408,51.713
			c12.646,19.584,18.973,40.6,18.973,63.037c0,22.848-6.631,44.27-19.891,64.26c-13.262,19.992-31.211,37.535-53.855,52.635
			c-22.645,15.096-49.266,26.928-79.867,35.492c-30.6,8.568-63.236,12.855-97.917,12.855c-34.68,0-67.32-4.285-97.92-12.855
			c-30.6-8.564-57.222-20.396-79.866-35.492c-22.644-15.1-40.596-32.643-53.856-52.635c-13.26-19.99-19.89-41.412-19.89-64.26
			c0-22.438,6.426-43.555,19.278-63.342c12.852-19.789,30.294-37.128,52.326-52.021c22.032-14.892,47.838-26.724,77.418-35.496
			s61.302-13.566,95.166-14.382c1.224,2.856,3.06,4.488,5.508,4.896C289.68,201.757,290.904,201.961,292.536,201.961z
			 M493.885,134.029c-9.387,0-17.34-3.264-23.869-9.792c-6.527-6.528-9.791-14.484-9.791-23.868s3.264-17.34,9.791-23.868
			c6.529-6.528,14.482-9.792,23.869-9.792c9.383,0,17.34,3.264,23.867,9.792c6.525,6.528,9.793,14.484,9.793,23.868
			s-3.268,17.34-9.793,23.868C511.225,130.765,503.268,134.029,493.885,134.029z M544.68,320.076
			c-9.791-27.336-28.355-51.611-55.691-72.827c8.16-5.712,16.934-8.568,26.316-8.568c13.055,0,24.072,4.488,33.047,13.464
			c8.977,8.976,13.465,19.788,13.465,32.436c0,6.936-1.531,13.464-4.59,19.583C554.166,310.285,549.984,315.59,544.68,320.076z
			 M20.808,284.581c0-12.648,4.488-23.46,13.464-32.436c8.976-8.976,19.788-13.464,32.436-13.464c8.976,0,17.748,2.652,26.316,7.956
			c-26.928,20.808-45.696,45.084-56.304,72.828C26.112,309.674,20.808,298.045,20.808,284.581z"/>
	</g>
</g>
<g>
</g>
<g>
</g>
<g>
</g>
<g>
</g>
<g>
</g>
<g>
</g>
<g>
</g>
<g>
</g>
<g>
</g>
<g>
</g>
<g>
</g>
<g>
</g>
<g>
</g>
<g>
</g>
<g>
</g>
</svg>
