<?xml version="1.0" encoding="iso-8859-1"?>
<!-- Generator: Adobe Illustrator 18.1.1, SVG Export Plug-In . SVG Version: 6.00 Build 0)  -->
<svg version="1.1" id="Capa_1" xmlns="http://www.w3.org/2000/svg" xmlns:xlink="http://www.w3.org/1999/xlink" x="0px" y="0px"
	 viewBox="0 0 612 612" style="enable-background:new 0 0 612 612;" xml:space="preserve">
<g>
	<g>
		<path style="fill:#010002;" d="M306,612c-28.152,0-55.284-3.672-81.396-11.016c-26.112-7.347-50.49-17.646-73.134-30.906
			s-43.248-29.172-61.812-47.736c-18.564-18.562-34.476-39.168-47.736-61.812c-13.26-22.646-23.562-47.022-30.906-73.135
			C3.672,361.284,0,334.152,0,306s3.672-55.284,11.016-81.396s17.646-50.49,30.906-73.134s29.172-43.248,47.736-61.812
			s39.168-34.476,61.812-47.736s47.022-23.562,73.134-30.906S277.848,0,306,0c42.024,0,81.702,8.058,119.034,24.174
			s69.768,37.944,97.308,65.484s49.368,59.976,65.484,97.308S612,263.976,612,306c0,28.152-3.672,55.284-11.016,81.396
			c-7.347,26.109-17.646,50.487-30.906,73.134c-13.26,22.644-29.172,43.248-47.736,61.812
			c-18.562,18.564-39.168,34.479-61.812,47.736c-22.646,13.26-47.022,23.562-73.136,30.906C361.284,608.328,334.152,612,306,612z
			 M443.088,257.04h-15.912h-56.304H268.056v-47.124c0-11.424,3.978-21.216,11.934-29.376s17.85-12.24,29.682-12.24
			s21.729,4.08,29.682,12.24c7.956,8.16,11.937,17.952,11.937,29.376c0,5.712,2.854,8.568,8.568,8.568h42.84h0.609
			c5.307,0,7.956-2.856,7.956-8.568v-1.836c-0.405-13.872-3.264-26.826-8.565-38.862c-5.307-12.036-12.546-22.542-21.729-31.518
			c-9.18-8.976-19.89-16.116-32.13-21.42c-12.24-5.304-25.296-7.956-39.168-7.956s-27.03,2.652-39.474,7.956
			s-23.256,12.546-32.436,21.726c-9.18,9.18-16.422,19.992-21.726,32.436s-7.956,25.602-7.956,39.474v47.124h-23.868H168.3
			c-3.264,0-6.018,1.02-8.262,3.06s-3.366,4.692-3.366,7.956v165.24c0,3.264,1.122,6.021,3.366,8.262
			c2.244,2.244,4.998,3.366,8.262,3.366h274.788c3.264,0,5.916-1.122,7.956-3.366c2.04-2.242,3.06-4.997,3.06-8.262v-165.24
			c0-3.264-1.02-5.916-3.06-7.956S446.352,257.04,443.088,257.04z"/>
	</g>
</g>
<g>
</g>
<g>
</g>
<g>
</g>
<g>
</g>
<g>
</g>
<g>
</g>
<g>
</g>
<g>
</g>
<g>
</g>
<g>
</g>
<g>
</g>
<g>
</g>
<g>
</g>
<g>
</g>
<g>
</g>
</svg>
