<?xml version="1.0" encoding="iso-8859-1"?>
<!-- Generator: Adobe Illustrator 18.1.1, SVG Export Plug-In . SVG Version: 6.00 Build 0)  -->
<svg version="1.1" id="Capa_1" xmlns="http://www.w3.org/2000/svg" xmlns:xlink="http://www.w3.org/1999/xlink" x="0px" y="0px"
	 viewBox="0 0 612 612" style="enable-background:new 0 0 612 612;" xml:space="preserve">
<g>
	<g>
		<path style="fill:#010002;" d="M344.25,267.75c10.404,10.404,15.606,23.154,15.606,38.25s-5.202,27.846-15.606,38.25
			s-23.154,15.606-38.25,15.606s-27.846-5.202-38.25-15.606s-15.606-23.154-15.606-38.25s5.202-27.846,15.606-38.25
			s23.154-15.606,38.25-15.606S333.846,257.346,344.25,267.75z M612,306c0,28.152-3.672,55.284-11.016,81.396
			c-7.347,26.109-17.646,50.487-30.906,73.134c-13.26,22.644-29.172,43.248-47.736,61.812
			c-18.562,18.564-39.168,34.479-61.812,47.736c-22.646,13.26-47.022,23.562-73.136,30.906C361.284,608.328,334.152,612,306,612
			s-55.284-3.672-81.396-11.016c-26.112-7.347-50.49-17.646-73.134-30.906s-43.248-29.172-61.812-47.736
			c-18.564-18.562-34.476-39.168-47.736-61.812c-13.26-22.646-23.562-47.022-30.906-73.135C3.672,361.284,0,334.152,0,306
			s3.672-55.284,11.016-81.396s17.646-50.49,30.906-73.134s29.172-43.248,47.736-61.812s39.168-34.476,61.812-47.736
			s47.022-23.562,73.134-30.906S277.848,0,306,0c42.024,0,81.702,8.058,119.034,24.174s69.768,37.944,97.308,65.484
			s49.368,59.976,65.484,97.308S612,263.976,612,306z M488.988,285.804c0-2.448-0.918-4.59-2.754-6.426s-3.979-2.754-6.429-2.754
			l-46.512-4.896c-1.224-5.712-2.958-11.118-5.202-16.218c-2.244-5.1-4.794-10.302-7.647-15.606l29.376-36.108
			c3.672-4.488,3.468-8.772-0.612-12.852l-28.152-28.152c-2.04-2.04-4.281-3.06-6.729-3.06s-4.488,0.816-6.12,2.448l-36.108,29.376
			c-5.304-2.856-10.506-5.406-15.604-7.65c-5.103-2.244-10.506-3.979-16.218-5.202l-4.896-46.512c0-2.448-0.918-4.59-2.754-6.426
			s-3.979-2.754-6.426-2.754h-40.392c-2.448,0-4.59,0.918-6.426,2.754s-2.754,3.978-2.754,6.426l-4.896,46.512
			c-5.712,1.224-11.118,2.958-16.218,5.202c-5.1,2.244-10.302,4.794-15.606,7.65L203.8,162.18c-1.632-1.632-3.672-2.448-6.12-2.448
			s-4.692,1.02-6.732,3.06l-28.152,28.152c-4.08,4.08-4.284,8.364-0.612,12.852l29.376,36.108
			c-2.856,5.304-5.406,10.506-7.65,15.606c-2.244,5.1-3.978,10.506-5.202,16.218l-46.512,4.896c-2.448,0-4.59,0.918-6.426,2.754
			s-2.754,3.978-2.754,6.426v40.392c0,2.445,0.918,4.59,2.754,6.426c1.836,1.836,3.978,2.754,6.426,2.754l46.512,4.896
			c1.224,5.713,2.958,11.116,5.202,16.219c2.244,5.1,4.794,10.302,7.65,15.604l-29.376,36.108
			c-3.672,4.488-3.468,8.771,0.612,12.852l28.152,28.152c2.04,2.04,4.284,3.061,6.732,3.061s4.488-0.814,6.12-2.446l36.108-29.376
			c5.304,2.854,10.506,5.403,15.606,7.647c5.1,2.244,10.506,3.979,16.218,5.202l4.896,46.512c0,2.448,0.918,4.592,2.754,6.429
			c1.836,1.836,3.978,2.754,6.426,2.754H326.2c2.447,0,4.59-0.918,6.426-2.754c1.836-1.837,2.754-3.979,2.754-6.429l4.896-46.512
			c5.712-1.224,11.115-2.958,16.218-5.202c5.1-2.244,10.302-4.794,15.604-7.648l36.108,29.377c1.632,1.632,3.672,2.446,6.12,2.446
			s4.689-1.021,6.729-3.061l28.152-28.152c4.08-4.08,4.284-8.362,0.612-12.852l-29.376-36.108
			c2.854-5.304,5.403-10.506,7.647-15.604c2.244-5.103,3.979-10.507,5.202-16.219l46.512-4.896c2.448,0,4.593-0.918,6.429-2.754
			s2.754-3.979,2.754-6.426v-40.392H488.988z"/>
	</g>
</g>
<g>
</g>
<g>
</g>
<g>
</g>
<g>
</g>
<g>
</g>
<g>
</g>
<g>
</g>
<g>
</g>
<g>
</g>
<g>
</g>
<g>
</g>
<g>
</g>
<g>
</g>
<g>
</g>
<g>
</g>
</svg>
