<?xml version="1.0" encoding="iso-8859-1"?>
<!-- Generator: Adobe Illustrator 18.1.1, SVG Export Plug-In . SVG Version: 6.00 Build 0)  -->
<svg version="1.1" id="Capa_1" xmlns="http://www.w3.org/2000/svg" xmlns:xlink="http://www.w3.org/1999/xlink" x="0px" y="0px"
	 viewBox="0 0 585.685 585.685" style="enable-background:new 0 0 585.685 585.685;" xml:space="preserve">
<g>
	<g>
		<path style="fill:#010002;" d="M226.748,139.536c0,0.816-0.102,1.428-0.306,1.836s-0.306,1.02-0.306,1.836
			c0,9.384,1.836,18.258,5.508,26.622c3.672,8.364,8.568,15.606,14.688,21.726c6.12,6.12,13.362,10.914,21.726,14.382
			s17.238,5.202,26.622,5.202s18.155-1.734,26.313-5.202c8.16-3.468,15.303-8.262,21.42-14.382
			c6.12-6.12,11.019-13.362,14.688-21.726c3.672-8.364,5.508-17.238,5.508-26.622v-3.672H226.748L226.748,139.536z M294.68,239.904
			c-16.728,0-32.334-3.162-46.818-9.486c-14.484-6.324-27.132-14.892-37.944-25.704s-19.38-23.46-25.704-37.944
			c-6.324-14.484-9.486-30.09-9.486-46.818s3.162-32.334,9.486-46.818c6.324-14.484,14.892-27.132,25.704-37.944
			s23.46-19.38,37.944-25.704C262.346,3.162,277.952,0,294.68,0c16.317,0,31.824,3.162,46.512,9.486s27.438,14.892,38.25,25.704
			c10.813,10.812,19.38,23.46,25.704,37.944c6.324,14.484,9.486,30.09,9.486,46.818s-3.162,32.334-9.486,46.818
			c-6.324,14.484-14.892,27.132-25.704,37.944s-23.562,19.38-38.25,25.704C326.504,236.742,311,239.904,294.68,239.904z
			 M385.256,259.488c35.901,0.408,61.605,9.384,77.109,26.928s23.256,46.92,23.256,88.128v201.96c0,2.448-0.813,4.59-2.445,6.426
			c-1.635,1.836-3.471,2.755-5.511,2.755h-52.631c-2.04,0-3.978-0.919-5.812-2.755s-2.754-3.978-2.754-6.426v-180.54
			c0-4.488-1.326-8.16-3.979-11.016c-2.649-2.856-6.018-4.284-10.098-4.284c-3.672,0-6.938,1.428-9.792,4.284
			c-2.856,2.854-4.284,6.525-4.284,11.016v180.54c0,2.448-0.816,4.59-2.448,6.426s-3.672,2.755-6.12,2.755h-171.36
			c-2.448,0-4.488-0.919-6.12-2.755c-1.632-1.836-2.448-3.978-2.448-6.426v-180.54c0-4.488-1.326-8.16-3.978-11.016
			s-6.018-4.284-10.098-4.284c-3.672,0-6.936,1.428-9.792,4.284c-2.856,2.854-4.284,6.525-4.284,11.016v180.54
			c0,2.448-0.816,4.59-2.448,6.426s-3.672,2.755-6.12,2.755h-54.467c-2.04,0-3.978-0.919-5.814-2.755s-2.754-3.978-2.754-6.426
			v-201.96c0-41.208,7.752-70.584,23.256-88.128s41.412-26.52,77.724-26.928h90.576h3.06H385.256L385.256,259.488z"/>
	</g>
</g>
<g>
</g>
<g>
</g>
<g>
</g>
<g>
</g>
<g>
</g>
<g>
</g>
<g>
</g>
<g>
</g>
<g>
</g>
<g>
</g>
<g>
</g>
<g>
</g>
<g>
</g>
<g>
</g>
<g>
</g>
</svg>
