<?xml version="1.0" encoding="iso-8859-1"?>
<!-- Generator: Adobe Illustrator 18.1.1, SVG Export Plug-In . SVG Version: 6.00 Build 0)  -->
<svg version="1.1" id="Capa_1" xmlns="http://www.w3.org/2000/svg" xmlns:xlink="http://www.w3.org/1999/xlink" x="0px" y="0px"
	 viewBox="0 0 612 612" style="enable-background:new 0 0 612 612;" xml:space="preserve">
<g>
	<g>
		<path style="fill:#010002;" d="M465.732,165.24c0-5.304-1.734-9.69-5.202-13.158c-3.471-3.468-7.854-5.202-13.158-5.202h-281.52
			c-4.896,0-9.18,1.734-12.852,5.202s-5.508,7.854-5.508,13.158v281.52c0,4.896,1.836,9.183,5.508,12.854s7.956,5.508,12.852,5.508
			h281.52c5.304,0,9.688-1.836,13.158-5.508c3.468-3.672,5.202-7.956,5.202-12.854V165.24z M306,0
			c42.024,0,81.702,8.058,119.034,24.174s69.768,37.944,97.308,65.484s49.368,59.976,65.484,97.308S612,263.976,612,306
			c0,28.152-3.672,55.284-11.016,81.396c-7.347,26.109-17.646,50.487-30.906,73.134c-13.26,22.644-29.172,43.248-47.736,61.812
			c-18.562,18.564-39.168,34.479-61.812,47.736c-22.646,13.26-47.022,23.562-73.136,30.906C361.284,608.328,334.152,612,306,612
			s-55.284-3.672-81.396-11.016c-26.112-7.347-50.49-17.646-73.134-30.906s-43.248-29.172-61.812-47.736
			c-18.564-18.562-34.476-39.168-47.736-61.812c-13.26-22.646-23.562-47.022-30.906-73.135C3.672,361.284,0,334.152,0,306
			s3.672-55.284,11.016-81.396s17.646-50.49,30.906-73.134s29.172-43.248,47.736-61.812s39.168-34.476,61.812-47.736
			s47.022-23.562,73.134-30.906S277.848,0,306,0z M306.611,425.34c-15.095,0-29.375-2.854-42.839-8.565
			c-13.464-5.715-25.194-13.566-35.19-23.563s-17.85-21.624-23.562-34.884s-8.568-27.438-8.568-42.534h220.932
			c0,15.096-2.958,29.274-8.874,42.534s-13.872,24.888-23.868,34.884c-9.993,9.996-21.726,17.851-35.188,23.563
			C335.988,422.484,321.708,425.34,306.611,425.34z M358.632,276.012c-9.384,0-17.439-3.366-24.174-10.098
			s-10.098-14.79-10.098-24.174s3.363-17.442,10.098-24.174s14.79-10.098,24.174-10.098s17.442,3.366,24.174,10.098
			c6.732,6.732,10.101,14.79,10.101,24.174s-3.366,17.442-10.101,24.174C376.074,272.646,368.016,276.012,358.632,276.012z
			 M251.532,276.012c-9.384,0-17.442-3.366-24.174-10.098s-10.098-14.79-10.098-24.174s3.366-17.442,10.098-24.174
			s14.79-10.098,24.174-10.098c9.384,0,17.442,3.366,24.174,10.098s10.098,14.79,10.098,24.174s-3.366,17.442-10.098,24.174
			S260.916,276.012,251.532,276.012z"/>
	</g>
</g>
<g>
</g>
<g>
</g>
<g>
</g>
<g>
</g>
<g>
</g>
<g>
</g>
<g>
</g>
<g>
</g>
<g>
</g>
<g>
</g>
<g>
</g>
<g>
</g>
<g>
</g>
<g>
</g>
<g>
</g>
</svg>
