<?xml version="1.0" encoding="iso-8859-1"?>
<!-- Generator: Adobe Illustrator 18.1.1, SVG Export Plug-In . SVG Version: 6.00 Build 0)  -->
<svg version="1.1" id="Capa_1" xmlns="http://www.w3.org/2000/svg" xmlns:xlink="http://www.w3.org/1999/xlink" x="0px" y="0px"
	 viewBox="0 0 573.446 573.446" style="enable-background:new 0 0 573.446 573.446;" xml:space="preserve">
<g>
	<g>
		<path style="fill:#010002;" d="M451.047,535.532c-6.529,0-11.832-2.448-15.912-7.347c-4.08-4.485-5.916-9.588-5.508-15.3
			c0.404-5.712,2.854-10.606,7.344-14.688c30.189-26.931,53.447-58.753,69.768-95.475c16.32-36.72,24.48-75.273,24.48-115.668
			c0-40.8-8.16-79.56-24.48-116.28c-16.318-36.72-39.576-68.544-69.768-95.472c-4.488-4.08-6.939-8.976-7.344-14.688
			c-0.408-5.712,1.428-10.812,5.508-15.3s8.975-6.936,14.688-7.344c5.711-0.408,10.813,1.428,15.299,5.508
			c34.684,31.008,61.404,67.626,80.176,109.854c18.768,42.228,28.148,86.802,28.148,133.722c0,46.514-9.383,90.882-28.148,133.11
			c-18.771,42.228-45.492,78.846-80.176,109.854C460.635,533.695,455.941,535.532,451.047,535.532z M406.369,460.868
			c-5.711,0-10.605-2.04-14.688-6.12c-4.488-4.488-6.732-9.588-6.732-15.3c0-5.715,2.244-10.608,6.732-14.688
			c18.361-18.768,32.334-40.086,41.922-63.954s14.383-48.855,14.383-74.97s-4.795-51.102-14.383-74.97
			c-9.588-23.868-23.561-44.982-41.922-63.342c-4.488-4.488-6.732-9.588-6.732-15.3c0-5.712,2.244-10.812,6.732-15.3
			c4.488-4.08,9.588-6.12,15.301-6.12c5.711,0,10.607,2.244,14.688,6.732c22.438,22.848,39.574,48.654,51.406,77.418
			s17.748,59.058,17.748,90.882s-5.916,62.22-17.748,91.188c-11.832,28.971-28.969,54.675-51.406,77.112
			C417.182,458.624,412.082,460.868,406.369,460.868z M333.543,62.456c-9.387-3.264-17.139-1.632-23.26,4.896
			c-0.404,0.408-4.08,3.979-11.016,10.71s-16.728,14.994-29.375,24.786s-27.744,20.502-45.288,32.13s-37.026,22.338-58.446,32.13
			c-21.42,9.792-44.37,17.952-68.85,24.48s-49.776,9.792-75.888,9.792c-6.12,0-11.22,2.142-15.3,6.426S0,217.088,0,222.8v135.252
			c0,5.712,2.04,10.71,6.12,14.994s9.18,6.426,15.3,6.426c26.112,0,51.408,3.267,75.888,9.792c24.48,6.528,47.43,14.688,68.85,24.48
			c21.42,9.792,40.902,20.397,58.446,31.821c17.544,11.427,32.64,22.137,45.288,32.133c12.648,9.994,22.44,18.258,29.375,24.783
			c6.936,6.528,10.609,9.996,11.016,10.404c3.676,4.488,8.773,6.732,15.303,6.732c2.041,0,4.689-0.612,7.957-1.836
			c4.076-1.635,7.238-4.185,9.482-7.65s3.367-7.446,3.367-11.935V82.651C346.395,73.268,342.109,66.536,333.543,62.456z"/>
	</g>
</g>
<g>
</g>
<g>
</g>
<g>
</g>
<g>
</g>
<g>
</g>
<g>
</g>
<g>
</g>
<g>
</g>
<g>
</g>
<g>
</g>
<g>
</g>
<g>
</g>
<g>
</g>
<g>
</g>
<g>
</g>
</svg>
