<?xml version="1.0" encoding="iso-8859-1"?>
<!-- Generator: Adobe Illustrator 18.1.1, SVG Export Plug-In . SVG Version: 6.00 Build 0)  -->
<svg version="1.1" id="Capa_1" xmlns="http://www.w3.org/2000/svg" xmlns:xlink="http://www.w3.org/1999/xlink" x="0px" y="0px"
	 viewBox="0 0 597.788 597.788" style="enable-background:new 0 0 597.788 597.788;" xml:space="preserve">
<g>
	<g>
		<path style="fill:#010002;" d="M596.938,226.064c2.04,6.528,0.408,11.832-4.896,15.912L434.146,366.823l70.992,199.516
			c2.04,6.525,0.408,11.832-4.896,15.912c-2.445,2.445-5.304,3.672-8.565,3.672c-2.448,0-4.896-0.816-7.347-2.449L298.894,472.7
			L113.458,583.471c-2.448,1.633-5.202,2.346-8.262,2.143c-3.06-0.205-5.61-1.324-7.65-3.363c-5.304-4.08-6.936-9.387-4.896-15.912
			l70.992-199.516L5.746,241.976c-5.304-4.08-6.936-9.384-4.896-15.912c2.856-6.528,7.344-9.792,13.464-9.792h201.96L285.43,21.656
			c2.04-6.528,6.528-9.792,13.464-9.792c6.935,0,11.423,3.264,13.463,9.792l69.156,194.616h201.96
			C589.594,216.272,594.081,219.536,596.938,226.064z M596.938,226.064c2.04,6.528,0.408,11.832-4.896,15.912L434.146,366.823
			l70.992,199.516c2.04,6.525,0.408,11.832-4.896,15.912c-2.445,2.445-5.304,3.672-8.565,3.672c-2.448,0-4.896-0.816-7.347-2.449
			L298.894,472.7L113.458,583.471c-2.448,1.633-5.202,2.346-8.262,2.143c-3.06-0.205-5.61-1.324-7.65-3.363
			c-5.304-4.08-6.936-9.387-4.896-15.912l70.992-199.516L5.746,241.976c-5.304-4.08-6.936-9.384-4.896-15.912
			c2.856-6.528,7.344-9.792,13.464-9.792h201.96L285.43,21.656c2.04-6.528,6.528-9.792,13.464-9.792
			c6.935,0,11.423,3.264,13.463,9.792l69.156,194.616h201.96C589.594,216.272,594.081,219.536,596.938,226.064z"/>
	</g>
</g>
<g>
</g>
<g>
</g>
<g>
</g>
<g>
</g>
<g>
</g>
<g>
</g>
<g>
</g>
<g>
</g>
<g>
</g>
<g>
</g>
<g>
</g>
<g>
</g>
<g>
</g>
<g>
</g>
<g>
</g>
</svg>
