<?xml version="1.0" encoding="iso-8859-1"?>
<!-- Generator: Adobe Illustrator 18.1.1, SVG Export Plug-In . SVG Version: 6.00 Build 0)  -->
<svg version="1.1" id="Capa_1" xmlns="http://www.w3.org/2000/svg" xmlns:xlink="http://www.w3.org/1999/xlink" x="0px" y="0px"
	 viewBox="0 0 570.385 570.385" style="enable-background:new 0 0 570.385 570.385;" xml:space="preserve">
<g>
	<g>
		<path style="fill:#010002;" d="M510.409,110.16c18.77,24.48,33.455,51.51,44.064,81.09c10.605,29.58,15.912,60.894,15.912,93.942
			c0,39.167-7.447,76.091-22.34,110.773c-14.893,34.68-35.293,64.973-61.199,90.881c-25.908,25.906-56.201,46.309-90.881,61.197
			c-34.684,14.895-71.605,22.342-110.773,22.342c-27.744,0-54.366-3.775-79.866-11.322c-25.5-7.549-49.164-18.156-70.992-31.824
			s-41.514-30.09-59.058-49.266c-17.544-19.18-32.232-40.189-44.064-63.037h124.236c29.784,0,53.958-7.445,72.522-22.338
			c18.564-14.895,27.846-35.189,27.846-60.896c0-17.951-3.06-32.025-9.18-42.227c-6.12-10.201-13.77-18.055-22.95-23.563
			c-9.18-5.508-19.176-9.282-29.988-11.322s-20.808-3.876-29.988-5.508s-16.83-3.672-22.95-6.12s-9.18-6.936-9.18-13.464
			c0-9.384,3.57-15.912,10.71-19.584c7.14-3.672,17.442-5.508,30.906-5.508h45.288h41.004c6.12,0,12.342,0.408,18.666,1.224
			s11.936,2.244,16.831,4.284c4.896,2.04,8.975,4.998,12.24,8.874c3.264,3.876,4.895,9.078,4.895,15.606v86.292
			c0,15.504,2.754,29.172,8.266,41.004c5.508,11.832,12.852,21.727,22.029,29.682c9.182,7.957,19.787,13.873,31.824,17.748
			c12.035,3.877,24.377,5.814,37.025,5.814c12.646,0,24.988-1.938,37.023-5.814c12.037-3.875,22.646-9.791,31.824-17.748
			c9.178-7.955,16.525-17.85,22.033-29.682s8.262-25.5,8.262-41.004L510.409,110.16L510.409,110.16z M285.192,0
			c29.785,0,58.14,4.386,85.068,13.158s52.02,20.91,75.273,36.414v273.565c0,9.383-3.365,17.439-10.098,24.174
			c-6.732,6.729-14.789,10.098-24.174,10.098s-17.543-3.367-24.48-10.098c-6.936-6.732-10.404-14.791-10.404-24.174v-82.009
			c0-16.32-1.938-30.396-5.811-42.228c-3.875-11.832-9.18-21.522-15.912-29.07c-6.73-7.548-14.791-13.056-24.174-16.524
			c-9.385-3.468-19.381-5.202-29.988-5.202H160.344c-12.648,0-24.582,1.938-35.802,5.814s-21.114,9.486-29.682,16.83
			s-15.3,16.218-20.196,26.622c-4.896,10.404-7.344,21.93-7.344,34.578c0,6.528,0.816,13.668,2.448,21.42
			c1.632,7.752,4.794,15.096,9.486,22.032s11.22,13.159,19.584,18.667s19.278,9.486,32.742,11.934
			c11.016,2.039,20.298,3.57,27.846,4.592c7.548,1.02,13.77,2.346,18.666,3.979c4.896,1.631,8.466,3.979,10.71,7.037
			c2.244,3.061,3.366,7.447,3.366,13.158c0,5.713-1.53,10.098-4.59,13.158c-3.06,3.061-7.14,5.305-12.24,6.73
			s-11.22,2.244-18.36,2.447c-7.14,0.205-14.994,0.307-23.562,0.307H9.18c-2.856-11.832-5.1-23.664-6.732-35.496
			C0.816,310.08,0,297.842,0,285.192C0,246.024,7.446,209.1,22.338,174.42s35.292-64.974,61.2-90.882s56.202-46.308,90.882-61.2
			S246.024,0,285.192,0z"/>
	</g>
</g>
<g>
</g>
<g>
</g>
<g>
</g>
<g>
</g>
<g>
</g>
<g>
</g>
<g>
</g>
<g>
</g>
<g>
</g>
<g>
</g>
<g>
</g>
<g>
</g>
<g>
</g>
<g>
</g>
<g>
</g>
</svg>
