<?xml version="1.0" encoding="iso-8859-1"?>
<!-- Generator: Adobe Illustrator 18.1.1, SVG Export Plug-In . SVG Version: 6.00 Build 0)  -->
<svg version="1.1" id="Capa_1" xmlns="http://www.w3.org/2000/svg" xmlns:xlink="http://www.w3.org/1999/xlink" x="0px" y="0px"
	 viewBox="0 0 544.68 544.68" style="enable-background:new 0 0 544.68 544.68;" xml:space="preserve">
<g>
	<g>
		<path style="fill:#010002;" d="M477.973,114.751H66.708v224.604h411.265L477.973,114.751L477.973,114.751z M511.633,47.431
			c9.383,0,17.236,3.264,23.561,9.792c6.324,6.528,9.486,14.484,9.486,23.868v291.924c0,9.384-3.162,17.237-9.486,23.562
			c-6.322,6.324-14.178,9.486-23.561,9.486H343.332v50.796H382.5c2.445,0,4.59,0.918,6.426,2.754s2.754,4.185,2.754,7.038v21.42
			c0,2.856-0.918,5.103-2.754,6.732s-3.979,2.445-6.426,2.445H157.284c-2.448,0-4.59-0.813-6.426-2.445s-2.754-3.876-2.754-6.732
			v-21.42c0-2.854,0.918-5.202,2.754-7.038s3.978-2.754,6.426-2.754h39.168v-50.796H33.048c-9.384,0-17.238-3.162-23.562-9.486
			C3.162,390.255,0,382.399,0,373.015V81.091c0-9.384,3.162-17.34,9.486-23.868s14.178-9.792,23.562-9.792H511.633L511.633,47.431z"
			/>
	</g>
</g>
<g>
</g>
<g>
</g>
<g>
</g>
<g>
</g>
<g>
</g>
<g>
</g>
<g>
</g>
<g>
</g>
<g>
</g>
<g>
</g>
<g>
</g>
<g>
</g>
<g>
</g>
<g>
</g>
<g>
</g>
</svg>
