<?xml version="1.0" encoding="iso-8859-1"?>
<!-- Generator: Adobe Illustrator 18.1.1, SVG Export Plug-In . SVG Version: 6.00 Build 0)  -->
<svg version="1.1" id="Capa_1" xmlns="http://www.w3.org/2000/svg" xmlns:xlink="http://www.w3.org/1999/xlink" x="0px" y="0px"
	 viewBox="0 0 492.442 492.442" style="enable-background:new 0 0 492.442 492.442;" xml:space="preserve">
<g>
	<g>
		<path style="fill:#010002;" d="M5.29,174.514c2.04-3.264,4.794-5.61,8.262-7.038s7.038-2.142,10.71-2.142h122.4
			c-1.632-13.056-3.366-24.276-5.202-33.66s-3.57-17.544-5.202-24.479c-2.04-9.792-1.224-19.074,2.448-27.846
			s8.364-16.626,14.076-23.562s11.526-12.75,17.442-17.442s10.098-7.854,12.546-9.486c5.712-4.08,12.648-5.1,20.808-3.06
			c6.936,2.448,12.036,7.344,15.3,14.688l55.692,124.848h56.307c6.936,0,12.75,2.346,17.439,7.038
			c4.692,4.692,7.038,10.506,7.038,17.442v247.248c0,6.937-2.346,12.75-7.038,17.44c-4.689,4.692-10.506,7.038-17.439,7.038h-226.44
			c-2.856,0-7.548-0.816-14.076-2.448s-13.362-4.485-20.502-8.565s-14.076-9.588-20.808-16.524
			c-6.732-6.936-11.526-15.912-14.382-26.928L0.394,194.71C-0.831,186.55,0.802,179.818,5.29,174.514z M403.09,160.438h71.604
			c4.896,0,9.078,1.632,12.546,4.896c3.471,3.264,5.202,7.344,5.202,12.24v272.952c0,4.485-1.731,8.466-5.202,11.934
			c-3.468,3.468-7.647,5.202-12.546,5.202H403.09c-4.896,0-9.078-1.734-12.546-5.202c-3.471-3.468-5.202-7.446-5.202-11.934V177.574
			c0-4.896,1.731-8.976,5.202-12.24C394.012,162.07,398.193,160.438,403.09,160.438z"/>
	</g>
</g>
<g>
</g>
<g>
</g>
<g>
</g>
<g>
</g>
<g>
</g>
<g>
</g>
<g>
</g>
<g>
</g>
<g>
</g>
<g>
</g>
<g>
</g>
<g>
</g>
<g>
</g>
<g>
</g>
<g>
</g>
</svg>
