<?xml version="1.0" encoding="iso-8859-1"?>
<!-- Generator: Adobe Illustrator 18.1.1, SVG Export Plug-In . SVG Version: 6.00 Build 0)  -->
<svg version="1.1" id="Capa_1" xmlns="http://www.w3.org/2000/svg" xmlns:xlink="http://www.w3.org/1999/xlink" x="0px" y="0px"
	 viewBox="0 0 492.44 492.44" style="enable-background:new 0 0 492.44 492.44;" xml:space="preserve">
<g>
	<g>
		<path style="fill:#010002;" d="M487.152,317.926c-4.488,6.12-10.813,9.18-18.973,9.18h-122.4
			c1.633,13.056,3.367,24.276,5.203,33.66s3.57,17.544,5.201,24.479c2.041,9.792,1.225,19.074-2.447,27.849
			c-3.672,8.771-8.365,16.626-14.076,23.562c-5.713,6.938-11.523,12.75-17.439,17.442c-5.916,4.689-10.102,7.854-12.549,9.484
			c-6.525,4.079-13.465,5.102-20.809,3.062c-6.936-2.448-12.035-7.344-15.299-14.688l-55.692-124.849h-56.304
			c-6.936,0-12.75-2.346-17.442-7.038c-4.692-4.689-7.038-10.506-7.038-17.439V55.38c0-6.936,2.346-12.75,7.038-17.442
			s10.506-7.038,17.442-7.038h226.438c2.855,0,7.551,0.816,14.076,2.448c6.527,1.632,13.361,4.488,20.502,8.568
			c7.143,4.08,13.977,9.588,20.502,16.524c6.527,6.936,11.426,15.708,14.688,26.316l34.271,212.976
			C493.271,305.89,491.641,312.622,487.152,317.926z M89.352,332.003H17.748c-4.896,0-9.078-1.734-12.546-5.202
			C1.734,323.33,0,319.354,0,314.864V41.913c0-4.896,1.734-8.976,5.202-12.24s7.65-4.896,12.546-4.896h71.604
			c4.896,0,9.078,1.632,12.546,4.896c3.468,3.264,5.202,7.344,5.202,12.24v272.953c0,4.488-1.734,8.466-5.202,11.937
			C98.43,330.268,94.248,332.003,89.352,332.003z"/>
	</g>
</g>
<g>
</g>
<g>
</g>
<g>
</g>
<g>
</g>
<g>
</g>
<g>
</g>
<g>
</g>
<g>
</g>
<g>
</g>
<g>
</g>
<g>
</g>
<g>
</g>
<g>
</g>
<g>
</g>
<g>
</g>
</svg>
