<?xml version="1.0" encoding="iso-8859-1"?>
<!-- Generator: Adobe Illustrator 18.1.1, SVG Export Plug-In . SVG Version: 6.00 Build 0)  -->
<svg version="1.1" id="Capa_1" xmlns="http://www.w3.org/2000/svg" xmlns:xlink="http://www.w3.org/1999/xlink" x="0px" y="0px"
	 viewBox="0 0 612 612" style="enable-background:new 0 0 612 612;" xml:space="preserve">
<g>
	<g>
		<path style="fill:#010002;" d="M587.826,186.966c-16.116-37.332-37.944-69.768-65.484-97.308s-59.976-49.368-97.308-65.484
			S348.024,0,306,0c-28.152,0-55.284,3.672-81.396,11.016s-50.49,17.646-73.134,30.906s-43.248,29.172-61.812,47.736
			s-34.476,39.168-47.736,61.812c-13.26,22.646-23.562,47.022-30.906,73.134C3.672,250.716,0,277.848,0,306
			s3.672,55.284,11.016,81.396c7.344,26.11,17.646,50.487,30.906,73.134c13.26,22.644,29.172,43.249,47.736,61.812
			c18.564,18.564,39.168,34.478,61.812,47.736c22.644,13.26,47.022,23.561,73.134,30.906C250.716,608.328,277.848,612,306,612
			s55.284-3.672,81.396-11.016c26.111-7.346,50.488-17.646,73.135-30.906c22.644-13.259,43.249-29.172,61.812-47.736
			c18.564-18.563,34.478-39.168,47.736-61.812c13.26-22.646,23.561-47.023,30.906-73.135C608.328,361.284,612,334.152,612,306
			C612,263.976,603.942,224.298,587.826,186.966z M442.476,473.076c0,7.752-3.876,11.628-11.628,11.628H181.152
			c-3.264,0-6.018-1.122-8.262-3.366c-2.244-2.244-3.366-4.998-3.366-8.262V231.948c0-3.264,1.122-5.916,3.366-7.956
			s4.998-3.06,8.262-3.06h249.696c3.266,0,6.02,1.02,8.265,3.06c2.241,2.04,3.363,4.692,3.363,7.956V473.076z M457.776,187.884
			c0,7.752-3.876,11.628-11.628,11.628H165.852c-3.264,0-6.018-1.122-8.262-3.366c-2.244-2.244-3.366-4.998-3.366-8.262v-33.048
			c0-3.264,1.122-6.018,3.366-8.262c2.244-2.244,4.998-3.366,8.262-3.366h94.86V128.52c0-3.264,1.122-6.018,3.366-8.262
			c2.244-2.244,4.998-3.366,8.262-3.366h67.934c3.264,0,6.018,1.122,8.262,3.366s3.366,4.998,3.366,8.262v14.688h94.248
			c7.752,0,11.628,3.876,11.628,11.628L457.776,187.884L457.776,187.884z"/>
	</g>
</g>
<g>
</g>
<g>
</g>
<g>
</g>
<g>
</g>
<g>
</g>
<g>
</g>
<g>
</g>
<g>
</g>
<g>
</g>
<g>
</g>
<g>
</g>
<g>
</g>
<g>
</g>
<g>
</g>
<g>
</g>
</svg>
