<?xml version="1.0" encoding="iso-8859-1"?>
<!-- Generator: Adobe Illustrator 18.1.1, SVG Export Plug-In . SVG Version: 6.00 Build 0)  -->
<svg version="1.1" id="Capa_1" xmlns="http://www.w3.org/2000/svg" xmlns:xlink="http://www.w3.org/1999/xlink" x="0px" y="0px"
	 viewBox="0 0 578.952 578.952" style="enable-background:new 0 0 578.952 578.952;" xml:space="preserve">
<g>
	<g>
		<path style="fill:#010002;" d="M576.505,14.076v550.801c0,4.08-1.432,7.443-4.285,10.098c-2.855,2.652-6.324,3.977-10.404,3.977
			H17.136c-4.08,0-7.548-1.322-10.404-3.977s-4.284-6.018-4.284-10.098V14.076c0-4.08,1.428-7.446,4.284-10.098S13.056,0,17.136,0
			h544.679c4.08,0,7.549,1.326,10.404,3.978S576.505,9.996,576.505,14.076z M353.734,424.115c-5.303,0-10.811-0.713-16.521-2.141
			c-5.709-1.428-10.914-3.162-15.605-5.203c-4.691-2.039-8.566-4.283-11.629-6.729c-3.059-2.449-4.59-4.693-4.59-6.732v-83.234
			v-64.872h93.637v-17.136v-47.736h-93.637v-97.92h-53.855c-1.224,24.888-7.956,46.308-20.196,64.26
			c-5.712,8.16-11.832,14.892-18.36,20.196c-11.016,8.976-23.256,13.464-36.72,13.464h-7.956v64.872h44.674v17.136v143.208
			c0,15.096,3.06,27.336,9.18,36.719c6.12,9.385,13.77,16.627,22.95,21.727c9.18,5.102,19.074,8.469,29.682,10.1
			c10.608,1.633,20.604,2.449,29.988,2.449h24.48c14.277,0,26.01-0.309,35.188-0.918c9.182-0.613,16.625-1.531,22.338-2.758
			c5.713-1.223,10.305-2.549,13.771-3.977s6.834-2.959,10.098-4.59v-69.156v-0.613v0.613c-8.16,5.303-17.137,9.791-26.928,13.463
			C373.93,422.279,363.936,424.115,353.734,424.115z"/>
	</g>
</g>
<g>
</g>
<g>
</g>
<g>
</g>
<g>
</g>
<g>
</g>
<g>
</g>
<g>
</g>
<g>
</g>
<g>
</g>
<g>
</g>
<g>
</g>
<g>
</g>
<g>
</g>
<g>
</g>
<g>
</g>
</svg>
