<?xml version="1.0" encoding="iso-8859-1"?>
<!-- Generator: Adobe Illustrator 18.1.1, SVG Export Plug-In . SVG Version: 6.00 Build 0)  -->
<svg version="1.1" id="Capa_1" xmlns="http://www.w3.org/2000/svg" xmlns:xlink="http://www.w3.org/1999/xlink" x="0px" y="0px"
	 viewBox="0 0 574.057 574.057" style="enable-background:new 0 0 574.057 574.057;" xml:space="preserve">
<g>
	<g>
		<path style="fill:#010002;" d="M574.057,83.231v407.592c0,4.08-1.432,7.443-4.285,10.098c-2.855,2.652-6.324,3.98-10.404,3.98
			H14.688c-4.08,0-7.548-1.326-10.404-3.98C1.428,498.268,0,494.903,0,490.824V83.231c0-4.08,1.428-7.446,4.284-10.098
			c2.856-2.652,6.324-3.978,10.404-3.978h544.679c4.08,0,7.549,1.326,10.404,3.978C572.627,75.785,574.057,79.151,574.057,83.231z
			 M204.408,414.324l200.737-126.072L204.408,162.179V414.324z"/>
	</g>
</g>
<g>
</g>
<g>
</g>
<g>
</g>
<g>
</g>
<g>
</g>
<g>
</g>
<g>
</g>
<g>
</g>
<g>
</g>
<g>
</g>
<g>
</g>
<g>
</g>
<g>
</g>
<g>
</g>
<g>
</g>
</svg>
