<?xml version="1.0" encoding="iso-8859-1"?>
<!-- Generator: Adobe Illustrator 18.1.1, SVG Export Plug-In . SVG Version: 6.00 Build 0)  -->
<svg version="1.1" id="Capa_1" xmlns="http://www.w3.org/2000/svg" xmlns:xlink="http://www.w3.org/1999/xlink" x="0px" y="0px"
	 viewBox="0 0 583.847 583.847" style="enable-background:new 0 0 583.847 583.847;" xml:space="preserve">
<g>
	<g>
		<path style="fill:#010002;" d="M312.12,343.944l-85.68,49.572V293.76v-99.145l85.68,49.572l86.292,49.572L312.12,343.944z
			 M583.847,107.101v369.648c0,10.199-3.57,18.768-10.71,25.703s-15.604,10.402-25.396,10.402H36.108l0,0
			c-9.792,0-18.258-3.467-25.398-10.4C3.57,495.514,0,486.95,0,476.749V107.101c0-10.2,3.57-18.768,10.71-25.704
			c7.14-6.936,15.606-10.404,25.398-10.404H547.74c9.792,0,18.258,3.468,25.396,10.404S583.847,96.901,583.847,107.101z
			 M512.244,142.596H71.604v298.657h440.64V142.596z"/>
	</g>
</g>
<g>
</g>
<g>
</g>
<g>
</g>
<g>
</g>
<g>
</g>
<g>
</g>
<g>
</g>
<g>
</g>
<g>
</g>
<g>
</g>
<g>
</g>
<g>
</g>
<g>
</g>
<g>
</g>
<g>
</g>
</svg>
