<?xml version="1.0" encoding="iso-8859-1"?>
<!-- Generator: Adobe Illustrator 18.1.1, SVG Export Plug-In . SVG Version: 6.00 Build 0)  -->
<svg version="1.1" id="Capa_1" xmlns="http://www.w3.org/2000/svg" xmlns:xlink="http://www.w3.org/1999/xlink" x="0px" y="0px"
	 viewBox="0 0 578.952 578.952" style="enable-background:new 0 0 578.952 578.952;" xml:space="preserve">
<g>
	<g>
		<path style="fill:#010002;" d="M466.956,200.124c2.445-13.056,2.037-24.684-1.227-34.884c-0.813-2.04-1.631-3.978-2.447-5.814
			c-0.814-1.836-2.041-3.774-3.672-5.814c-3.672-4.488-8.059-7.956-13.158-10.404c-5.1-2.448-10.605-4.182-16.521-5.202
			c-5.916-1.021-11.938-1.428-18.055-1.224c-6.119,0.204-11.832,0.714-17.139,1.53c-4.08,0.816-10.301,2.958-18.666,6.426
			c-8.361,3.468-17.234,8.772-26.621,15.912c-9.385,7.14-18.463,16.014-27.232,26.622c-8.771,10.608-15.605,23.46-20.502,38.556
			h8.566c10.607-0.816,19.277,0.102,26.012,2.754c6.73,2.652,11.115,8.058,13.156,16.218c1.635,4.488,2.039,11.628,1.227,21.42
			c-0.816,8.16-2.959,16.422-6.426,24.786c-3.471,8.361-7.447,16.627-11.938,24.787c-2.447,4.895-5.508,10.4-9.18,16.521
			c-3.672,6.119-7.752,11.219-12.24,15.299s-9.588,6.43-15.299,7.039c-5.712,0.611-11.628-2.551-17.749-9.484
			c-1.224-1.227-2.448-2.652-3.672-4.283l-3.672-4.896c-3.672-6.525-6.528-13.668-8.568-21.42s-3.672-15.811-4.896-24.174
			c-1.224-8.364-2.142-16.524-2.754-24.48s-1.53-15.402-2.754-22.338c-1.632-8.568-3.264-17.952-4.896-28.152
			s-3.876-19.788-6.732-28.764l-1.224-3.672l-1.224-3.672c-3.264-6.936-7.242-13.26-11.934-18.972
			c-4.692-5.712-9.894-9.588-15.606-11.628c-7.344-2.04-15.096-1.938-23.256,0.306s-14.892,4.998-20.196,8.262
			c-17.136,10.2-32.742,21.828-46.818,34.884c-14.076,13.056-28.458,25.5-43.146,37.332v2.448c2.04,2.04,3.672,4.284,4.896,6.732
			c1.632,2.04,3.162,3.978,4.59,5.814c1.428,1.836,3.57,2.958,6.426,3.366c4.896,0.816,9.792,0.408,14.688-1.224
			s9.69-3.06,14.382-4.284s9.078-1.428,13.158-0.612s7.752,4.08,11.016,9.792c0.816,1.632,1.632,3.162,2.448,4.59
			s1.632,3.162,2.448,5.202c-0.408-0.408-0.612-0.816-0.612-1.224c0,0.408,0.204,0.816,0.612,1.224
			c2.448,5.712,4.386,11.526,5.814,17.442s3.162,11.728,5.202,17.443c3.672,10.197,6.936,20.604,9.792,31.211
			c2.856,10.607,5.712,21.828,8.568,33.658c3.264,12.648,6.834,26.521,10.71,41.617c3.876,15.098,9.282,28.766,16.218,41.004
			c3.672,6.938,7.854,12.854,12.546,17.748c4.692,4.896,10.098,8.566,16.218,11.018c4.08,2.039,8.772,2.957,14.076,2.754
			c5.304-0.205,10.506-0.918,15.606-2.145c5.1-1.225,9.996-2.754,14.688-4.59s8.67-3.771,11.935-5.813
			c17.951-10.607,33.861-23.154,47.732-37.639c13.873-14.482,26.727-29.479,38.559-44.98c13.873-18.359,26.109-36.924,36.721-55.691
			c10.607-18.77,19.584-36.415,26.928-52.938c7.346-16.524,13.059-31.11,17.139-43.758
			C463.079,215.016,465.731,205.836,466.956,200.124z M561.815,0c4.08,0,7.549,1.326,10.404,3.978
			c2.854,2.652,4.285,6.018,4.285,10.098v550.801c0,4.08-1.432,7.443-4.285,10.098c-2.855,2.652-6.324,3.977-10.404,3.977H17.136
			c-4.08,0-7.548-1.322-10.404-3.977s-4.284-6.018-4.284-10.098V14.076c0-4.08,1.428-7.446,4.284-10.098S13.056,0,17.136,0H561.815
			L561.815,0z"/>
	</g>
</g>
<g>
</g>
<g>
</g>
<g>
</g>
<g>
</g>
<g>
</g>
<g>
</g>
<g>
</g>
<g>
</g>
<g>
</g>
<g>
</g>
<g>
</g>
<g>
</g>
<g>
</g>
<g>
</g>
<g>
</g>
</svg>
