<?xml version="1.0" encoding="iso-8859-1"?>
<!-- Generator: Adobe Illustrator 18.1.1, SVG Export Plug-In . SVG Version: 6.00 Build 0)  -->
<svg version="1.1" id="Capa_1" xmlns="http://www.w3.org/2000/svg" xmlns:xlink="http://www.w3.org/1999/xlink" x="0px" y="0px"
	 viewBox="0 0 595.476 595.476" style="enable-background:new 0 0 595.476 595.476;" xml:space="preserve">
<g>
	<g>
		<path style="fill:#010002;" d="M351.9,450.127c0-2.04-0.204-3.774-0.612-5.202c-0.408-1.429-1.021-2.145-1.836-2.145H246.024
			c-0.816,0-1.428,0.717-1.836,2.145c-0.408,1.428-0.612,3.162-0.612,5.202v33.657c0,2.04,0.204,3.774,0.612,5.202
			c0.408,1.431,1.02,2.145,1.836,2.145h103.428c0.813,0,1.428-0.714,1.836-2.145c0.408-1.428,0.612-3.162,0.612-5.202V450.127z
			 M581.4,424.423c4.077,0,7.443,1.326,10.098,3.978c2.651,2.652,3.978,6.021,3.978,10.101v34.884c0,4.08-1.224,7.344-3.672,9.792
			l-22.03,22.032c-2.447,2.854-5.916,4.281-10.403,4.281H34.884c-4.488,0-7.956-1.428-10.404-4.281L3.672,483.176
			C1.224,480.32,0,477.056,0,473.384V438.5c0-4.08,1.428-7.446,4.284-10.101c2.856-2.649,6.324-3.978,10.404-3.978H581.4V424.423z
			 M119.34,339.966h357.408V143.514H119.34V339.966z M90.576,397.494c-8.16,0-14.994-2.754-20.502-8.262
			c-5.508-5.508-8.262-12.342-8.262-20.502V114.75c0-8.16,2.754-14.994,8.262-20.502s12.342-8.262,20.502-8.262h414.936
			c8.16,0,14.994,2.754,20.502,8.262c5.509,5.508,8.265,12.342,8.265,20.502v253.98c0,8.16-2.756,14.994-8.265,20.502
			c-5.508,5.508-12.342,8.262-20.502,8.262H90.576L90.576,397.494z"/>
	</g>
</g>
<g>
</g>
<g>
</g>
<g>
</g>
<g>
</g>
<g>
</g>
<g>
</g>
<g>
</g>
<g>
</g>
<g>
</g>
<g>
</g>
<g>
</g>
<g>
</g>
<g>
</g>
<g>
</g>
<g>
</g>
</svg>
