<?xml version="1.0" encoding="iso-8859-1"?>
<!-- Generator: Adobe Illustrator 18.1.1, SVG Export Plug-In . SVG Version: 6.00 Build 0)  -->
<svg version="1.1" id="Capa_1" xmlns="http://www.w3.org/2000/svg" xmlns:xlink="http://www.w3.org/1999/xlink" x="0px" y="0px"
	 viewBox="0 0 610.775 610.775" style="enable-background:new 0 0 610.775 610.775;" xml:space="preserve">
<g>
	<g>
		<path style="fill:#010002;" d="M355.572,469.404H253.98V367.813h101.592V469.404z M484.092,469.404H382.5V367.813h101.592V469.404
			z M227.052,469.404H125.46V367.813h101.592V469.404z M484.092,148.104H125.46v187.273h358.632L484.092,148.104L484.092,148.104z
			 M535.5,94.248H75.276v422.279H535.5V94.248z M37.332,591.191c-10.2,0-18.972-3.566-26.316-10.709
			C3.672,573.342,0,564.469,0,553.859V56.916c0-10.608,3.672-19.482,11.016-26.622c7.344-7.14,16.116-10.71,26.316-10.71h536.111
			c10.201,0,18.975,3.57,26.316,10.71c7.344,7.14,11.016,16.014,11.016,26.622v496.943c0,10.609-3.672,19.482-11.016,26.623
			c-7.344,7.143-16.115,10.709-26.316,10.709H37.332z"/>
	</g>
</g>
<g>
</g>
<g>
</g>
<g>
</g>
<g>
</g>
<g>
</g>
<g>
</g>
<g>
</g>
<g>
</g>
<g>
</g>
<g>
</g>
<g>
</g>
<g>
</g>
<g>
</g>
<g>
</g>
<g>
</g>
</svg>
