<?xml version="1.0" encoding="iso-8859-1"?>
<!-- Generator: Adobe Illustrator 18.1.1, SVG Export Plug-In . SVG Version: 6.00 Build 0)  -->
<svg version="1.1" id="Capa_1" xmlns="http://www.w3.org/2000/svg" xmlns:xlink="http://www.w3.org/1999/xlink" x="0px" y="0px"
	 viewBox="0 0 535.498 535.498" style="enable-background:new 0 0 535.498 535.498;" xml:space="preserve">
<g>
	<g>
		<path style="fill:#010002;" d="M479.195,280.908c0.816-3.264,0.816-5.711,0-7.344c-0.816-2.447-2.447-4.08-4.895-4.896
			l-20.197-9.179c-2.447-1.224-4.896-1.224-7.344,0c-2.855,1.224-4.488,3.06-4.896,5.508c-0.814,2.04-2.652,5.101-5.508,9.181
			s-7.141,6.117-12.854,6.117c-7.752,0-14.074-4.182-18.973-12.546c-4.895-8.364-7.344-19.276-7.344-32.742
			c0-13.464,2.449-24.48,7.344-33.048c4.896-8.568,11.221-12.852,18.973-12.852c4.896,0,8.771,1.632,11.629,4.896
			c2.855,3.264,5.102,6.528,6.73,9.792c0.816,2.448,2.449,4.08,4.896,4.896c2.445,0.816,4.896,0.816,7.344,0l20.195-9.18
			c2.039-0.816,3.674-2.652,4.896-5.508c0.816-2.856,0.613-5.304-0.611-7.344c-11.832-25.296-30.189-37.944-55.08-37.944
			c-20.809,0-37.639,7.956-50.488,23.868c-12.854,15.912-19.277,36.72-19.277,62.424s6.426,46.409,19.277,62.118
			c12.852,15.707,29.682,23.563,50.488,23.563C448.393,320.689,466.955,307.43,479.195,280.908z M284.58,320.689
			c17.139,0,31.008-4.795,41.615-14.383c10.609-9.588,15.912-22.133,15.912-37.641c0-8.159-1.734-15.299-5.201-21.417
			c-3.469-6.12-7.65-11.22-12.547-15.3c4.488-4.08,8.16-8.976,11.016-14.688c2.857-5.712,4.285-12.036,4.285-18.972
			c0-15.096-4.896-27.03-14.688-35.802c-9.793-8.772-23.258-13.158-40.395-13.158c-23.256,0-41.208,9.18-53.856,27.54
			c-2.856,4.08-2.448,8.16,1.224,12.24l14.688,13.464c2.04,2.04,4.488,3.06,7.344,3.06c2.856-0.816,5.1-2.04,6.732-3.672
			c6.12-8.568,13.462-12.852,22.032-12.852c6.938,0,11.018,1.734,12.24,5.202c1.223,3.468,1.836,6.018,1.836,7.65
			c0,1.224-0.613,3.366-1.836,6.426c-1.225,3.06-5.713,4.59-13.465,4.59h-11.014c-3.264,0-5.71,0.816-7.344,2.448
			c-2.04,2.04-3.06,4.284-3.06,6.732v22.032c0,2.856,1.02,5.304,3.06,7.344c1.632,2.04,4.08,2.652,7.344,1.836h11.627
			c8.568,0,13.566,1.632,14.994,4.896c1.432,3.264,2.145,5.916,2.145,7.956c0,9.385-5.102,14.074-15.299,14.074
			c-9.793,0-17.955-4.486-24.481-13.464c-1.632-2.448-3.876-3.672-6.732-3.672c-2.448-0.816-4.896,0-7.344,2.448l-15.3,15.299
			c-3.672,3.672-4.08,7.549-1.224,11.629c5.712,8.979,13.464,15.912,23.256,20.811C261.936,318.24,272.748,320.689,284.58,320.689z
			 M223.992,162.793c0.816-3.264,0.204-5.916-1.836-7.956c-2.04-2.448-4.284-3.672-6.732-3.672h-26.928
			c-4.896,0-7.752,2.448-8.568,7.344l-12.852,65.484l-13.464-65.484c-1.224-4.896-4.284-7.344-9.18-7.344h-19.584
			c-5.304,0-8.364,2.448-9.18,7.344l-13.464,65.484l-12.852-65.484c-0.816-4.896-3.876-7.344-9.18-7.344H53.856
			c-3.264,0-5.712,1.224-7.344,3.672c-1.632,2.448-2.244,5.1-1.836,7.956l33.66,148.104c1.224,4.896,4.284,7.344,9.18,7.344h25.704
			c4.896,0,7.956-2.447,9.18-7.344l12.24-61.2l12.24,61.2c0.816,4.896,3.876,7.344,9.18,7.344h25.704
			c4.896,0,7.956-2.447,9.18-7.344L223.992,162.793z M517.141,9.793c5.303,0,9.688,1.734,13.154,5.202
			c3.471,3.468,5.203,7.854,5.203,13.158v384.335c0,3.672-1.02,7.141-3.061,10.404c-2.039,3.264-4.896,5.508-8.568,6.73
			L275.398,524.48c-1.633,0.816-3.877,1.225-6.733,1.225c-2.854,0-5.1-0.406-6.729-1.225L12.24,429.623
			c-3.672-1.225-6.63-3.469-8.874-6.73C1.122,419.626,0,416.16,0,412.488V28.153c0-5.304,1.836-9.69,5.508-13.158
			s8.16-5.202,13.464-5.202H517.141L517.141,9.793z"/>
	</g>
</g>
<g>
</g>
<g>
</g>
<g>
</g>
<g>
</g>
<g>
</g>
<g>
</g>
<g>
</g>
<g>
</g>
<g>
</g>
<g>
</g>
<g>
</g>
<g>
</g>
<g>
</g>
<g>
</g>
<g>
</g>
</svg>
