<?xml version="1.0" encoding="iso-8859-1"?>
<!-- Generator: Adobe Illustrator 18.1.1, SVG Export Plug-In . SVG Version: 6.00 Build 0)  -->
<svg version="1.1" id="Capa_1" xmlns="http://www.w3.org/2000/svg" xmlns:xlink="http://www.w3.org/1999/xlink" x="0px" y="0px"
	 viewBox="0 0 612 612" style="enable-background:new 0 0 612 612;" xml:space="preserve">
<g>
	<g>
		<path style="fill:#010002;" d="M587.826,186.966c-16.116-37.332-37.944-69.768-65.484-97.308s-59.976-49.368-97.308-65.484
			S348.024,0,306,0c-28.152,0-55.284,3.672-81.396,11.016s-50.49,17.646-73.134,30.906s-43.248,29.172-61.812,47.736
			s-34.476,39.168-47.736,61.812c-13.26,22.646-23.562,47.022-30.906,73.134C3.672,250.716,0,277.848,0,306
			s3.672,55.284,11.016,81.396c7.344,26.11,17.646,50.487,30.906,73.134c13.26,22.644,29.172,43.249,47.736,61.812
			c18.564,18.564,39.168,34.478,61.812,47.736c22.644,13.26,47.022,23.561,73.134,30.906C250.716,608.328,277.848,612,306,612
			s55.284-3.672,81.396-11.016c26.111-7.346,50.488-17.646,73.135-30.906c22.644-13.259,43.249-29.172,61.812-47.736
			c18.564-18.563,34.478-39.168,47.736-61.812c13.26-22.646,23.561-47.023,30.906-73.135C608.328,361.284,612,334.152,612,306
			C612,263.976,603.942,224.298,587.826,186.966z M462.367,268.974c-5.103,12.036-12.342,22.746-21.729,32.13
			c-9.792,9.792-20.706,17.442-32.74,22.948c-12.036,5.509-24.177,8.265-36.414,8.265c-7.347,0-15.708-2.04-25.095-6.12
			l-102.813,116.89c-0.816,0.816-2.346,2.753-4.59,5.814c-2.244,3.059-5.202,6.221-8.874,9.483
			c-3.672,3.267-7.956,6.325-12.852,9.183c-4.896,2.854-10.404,4.69-16.524,5.508c-13.872,1.632-27.744-3.672-41.616-15.912
			c0-0.408-0.204-0.612-0.612-0.612c0-0.408-0.204-0.609-0.612-0.609c-12.24-13.872-17.544-27.744-15.912-41.616
			c0.816-6.12,2.652-11.628,5.508-16.524s5.916-9.18,9.18-12.852c3.264-3.672,6.426-6.63,9.486-8.874s4.998-3.775,5.814-4.59
			L288.865,268.67c-4.08-9.384-6.12-17.748-6.12-25.092c0-12.24,2.754-24.378,8.262-36.414s13.158-22.95,22.95-32.742
			c9.384-9.384,20.094-16.626,32.13-21.726c12.036-5.1,23.97-7.65,35.802-7.65c1.227,0,2.245,0.306,3.063,0.918
			c0.813,0.612,2.244,2.142,4.284,4.59l4.896,4.896c2.856,2.448,2.856,5.1,0,7.956c-2.04,2.039-4.08,3.977-6.12,5.813
			s-3.876,3.774-5.508,5.814c-5.712,7.14-9.997,11.322-12.852,12.546c-2.857,1.224-4.998,3.876-6.429,7.956
			c-1.428,4.08-2.142,6.12-2.142,6.12v7.65v5.508c0,3.264,1.224,7.242,3.672,11.934s5.916,9.282,10.404,13.77
			c4.486,4.488,8.976,7.854,13.464,10.098c4.488,2.244,8.364,3.366,11.628,3.366h5.508h7.65c1.836,0,3.876-0.714,6.12-2.142
			c2.241-1.428,4.895-3.57,7.956-6.426c3.06-2.856,7.239-7.14,12.546-12.852c2.04-1.632,3.977-3.468,5.812-5.508
			c1.835-2.04,3.774-4.08,5.814-6.12c2.854-2.856,5.508-2.856,7.956,0l4.896,4.896c2.448,2.04,3.979,3.468,4.59,4.284
			c0.612,0.816,0.918,1.836,0.918,3.06C470.016,245.004,467.467,256.938,462.367,268.974z M215.424,417.384
			c0,4.896-1.836,9.183-5.508,12.854c-3.264,3.264-7.344,4.896-12.24,4.896s-9.18-1.632-12.852-4.896
			c-3.264-3.672-4.896-7.956-4.896-12.854c0-4.896,1.632-8.976,4.896-12.24c3.672-3.672,7.956-5.508,12.852-5.508
			s8.976,1.836,12.24,5.508C213.588,408.409,215.424,412.489,215.424,417.384z"/>
	</g>
</g>
<g>
</g>
<g>
</g>
<g>
</g>
<g>
</g>
<g>
</g>
<g>
</g>
<g>
</g>
<g>
</g>
<g>
</g>
<g>
</g>
<g>
</g>
<g>
</g>
<g>
</g>
<g>
</g>
<g>
</g>
</svg>
